<svg width="415" height="253" viewBox="0 0 415 253" fill="none" xmlns="http://www.w3.org/2000/svg">
    <g clip-path="url(#clip0_19_52)">
        <g opacity="0.67">
            <path opacity="0.67" d="M360.222 116.092C366.217 116.092 371.076 111.233 371.076 105.238C371.076 99.2441 366.217 94.3848 360.222 94.3848C354.227 94.3848 349.368 99.2441 349.368 105.238C349.368 111.233 354.227 116.092 360.222 116.092Z" fill="#F2F6F9"/>
            <path opacity="0.67" d="M367.756 26.7144H352.689V86.4689H367.756V26.7144Z" fill="#F2F6F9"/>
            <path opacity="0.67" d="M153.63 192.487C159.624 192.487 164.483 187.628 164.483 181.633C164.483 175.639 159.624 170.779 153.63 170.779C147.635 170.779 142.776 175.639 142.776 181.633C142.776 187.628 147.635 192.487 153.63 192.487Z" fill="#F2F6F9"/>
            <path opacity="0.67" d="M161.164 103.109H146.097V162.864H161.164V103.109Z" fill="#F2F6F9"/>
            <path opacity="0.67" d="M87.6944 229.637H-2.28882e-05L43.8472 155.948L87.6944 229.637Z" fill="#F2F6F9"/>
            <path opacity="0.67" d="M275.335 95.3238H187.643L231.487 21.6348L275.335 95.3238Z" fill="#F2F6F9"/>
            <path opacity="0.67" d="M414.68 247.647H326.986L370.832 173.958L414.68 247.647Z" fill="#F2F6F9"/>
            <path opacity="0.67" d="M64.4065 119.812C70.4008 119.812 75.2601 114.953 75.2601 108.959C75.2601 102.964 70.4008 98.105 64.4065 98.105C58.4124 98.105 53.5531 102.964 53.5531 108.959C53.5531 114.953 58.4124 119.812 64.4065 119.812Z" fill="#F2F6F9"/>
            <path opacity="0.67" d="M71.9382 30.4346H56.871V90.1889H71.9382V30.4346Z" fill="#F2F6F9"/>
            <path opacity="0.67" d="M242.631 53.0391C242.631 53.0391 237.496 53.5922 232.619 75.62" stroke="white" stroke-width="0.782705" stroke-miterlimit="10" stroke-linecap="square"/>
        </g>
        <path d="M266.486 146.226H288.006L271.987 95.7842H250.467L266.486 146.226Z" fill="#FF4D4D"/>
        <path d="M251.7 146.224H279.42V142.927H251.7V146.224Z" fill="#FF4D4D"/>
        <path d="M216.249 252.124C305.807 252.124 378.408 251.17 378.408 249.991C378.408 248.814 305.807 247.858 216.249 247.858C126.69 247.858 54.0887 248.814 54.0887 249.991C54.0887 251.17 126.69 252.124 216.249 252.124Z" fill="#E4EFF7"/>
        <path d="M200.983 146.748L178.005 249.991" stroke="#475056" stroke-width="1.36234" stroke-miterlimit="10"/>
        <path d="M225.873 146.748L202.892 249.991" stroke="#475056" stroke-width="1.36234" stroke-miterlimit="10"/>
        <path d="M343.53 146.644L366.53 249.991" stroke="#475056" stroke-width="1.36234" stroke-miterlimit="10"/>
        <path d="M318.619 146.644L341.621 249.991" stroke="#475056" stroke-width="1.36234" stroke-miterlimit="10"/>
        <path d="M180.092 146.682H359.281" stroke="#475056" stroke-width="1.36234" stroke-miterlimit="10"/>
        <path d="M256.846 123.59H248.017V95.7842L256.846 123.59Z" fill="#24272D"/>
        <path d="M265.57 123.59C265.64 123.828 265.722 124.062 265.815 124.291C267.045 127.266 270.031 128.852 272.488 127.833C274.123 127.154 275.113 125.498 275.23 123.585C275.284 122.567 275.11 121.55 274.715 120.61C273.485 117.634 270.498 116.049 268.038 117.068C265.776 118.005 264.75 120.825 265.57 123.59Z" fill="white"/>
        <path d="M263.118 123.591H272.778C272.832 122.573 272.658 121.556 272.263 120.616C271.033 117.64 268.046 116.054 265.588 117.073C263.324 118.005 262.298 120.825 263.118 123.591Z" fill="#24272D"/>
        <path d="M315.986 64.9884V120.321C315.986 121.188 315.642 122.02 315.029 122.633C314.416 123.246 313.583 123.591 312.716 123.591H310.536C311.403 123.591 312.236 123.246 312.849 122.633C313.462 122.02 313.807 121.188 313.807 120.321V64.9884C313.807 64.1212 313.462 63.2895 312.849 62.6763C312.236 62.0633 311.403 61.7188 310.536 61.7188H312.716C313.583 61.7188 314.416 62.0633 315.029 62.6763C315.642 63.2895 315.986 64.1212 315.986 64.9884Z" fill="#24272D"/>
        <path d="M310.54 61.7212H210.941C209.136 61.7212 207.672 63.185 207.672 64.9907V120.324C207.672 122.129 209.136 123.593 210.941 123.593H310.54C312.344 123.593 313.808 122.129 313.808 120.324V64.9907C313.808 63.185 312.344 61.7212 310.54 61.7212Z" fill="#FF4D4D"/>
        <path d="M309.982 64.9116H215.152V119.397H309.982V64.9116Z" fill="white"/>
        <path d="M282.704 108.177H239.793L261.248 72.1182L282.704 108.177Z" fill="#FFC774"/>
        <path d="M261.248 103.615C262.622 103.615 263.737 102.501 263.737 101.127C263.737 99.753 262.622 98.6392 261.248 98.6392C259.875 98.6392 258.76 99.753 258.76 101.127C258.76 102.501 259.875 103.615 261.248 103.615Z" fill="#EA6F57"/>
        <path d="M262.974 83.1343H259.521V96.8256H262.974V83.1343Z" fill="#EA6F57"/>
        <path d="M44.4452 225.683L28.8473 241.535L43.3413 250.225H88.0344L64.2408 237.563L44.4452 225.683Z" fill="#F9D0B5"/>
        <path d="M132.397 230.326L122.417 250.225H179.539L155.746 237.563L132.397 230.326Z" fill="#F9D0B5"/>
        <path d="M70.6253 241.089L124.305 187.44C129.133 182.61 132.302 176.37 133.354 169.622L137.942 140.178L158.034 169.467L126.516 229.889L160.749 240.033L193.138 187.851C196.1 183.081 197.59 177.542 197.418 171.928C197.247 166.315 195.424 160.877 192.177 156.295L160.85 111.077L109.951 98.4653L105.986 104.686C102.033 110.888 99.7207 117.994 99.267 125.335L96.9996 161.865L36.2194 224.412L70.6253 241.089Z" fill="#24272D"/>
        <path d="M134.368 125.603C134.368 125.603 130.695 126.295 125.06 127.593C125.06 127.593 122.903 131.678 121.879 131.77C118.666 132.015 109.328 128.566 114.158 118.852C118.988 109.137 134.368 110.444 134.368 110.444" fill="#F9D0B5"/>
        <path d="M98.5395 168.523L95.9528 161.544L102.311 160.56" stroke="white" stroke-width="0.895057" stroke-miterlimit="10" stroke-linecap="square"/>
        <path d="M162.664 174.536L156.736 169.225L164.95 165.12" stroke="white" stroke-width="0.895057" stroke-miterlimit="10" stroke-linecap="square"/>
        <path d="M138.847 131.646L136.944 152.441" stroke="white" stroke-width="0.895057" stroke-miterlimit="10" stroke-linecap="square"/>
        <path d="M146.168 43.4441C127.16 39.2612 109.951 98.4662 109.951 98.4662L160.85 111.086C160.85 111.086 172.581 49.2559 146.168 43.4441Z" fill="#FF4D4D"/>
        <path d="M144.737 43.2498C144.737 43.2498 133.635 42.274 128.357 45.2725C125.355 46.9792 113.26 59.9843 103.376 70.898C97.4089 77.4856 100.989 88.2024 109.641 89.6942L160.74 98.4657L162.366 80.1947L131.874 72.4703L137.997 63.0722" fill="#FF4D4D"/>
        <path d="M149.098 44.3774C149.098 44.3774 169.3 50.2371 172.605 55.5597C175.911 60.8823 173.563 98.4656 173.563 98.4656L135.517 128.748L120.829 111.086L153.242 84.5684" fill="#FF4D4D"/>
        <path d="M162.644 38.6784C171.818 37.2139 177.968 27.962 176.379 18.0136C174.791 8.0652 166.067 1.18763 156.893 2.65211C147.719 4.1166 141.57 13.3686 143.158 23.317C144.746 33.2654 153.47 40.1429 162.644 38.6784Z" fill="#24272D"/>
        <path d="M151.721 58.3848C153.217 58.2044 154.613 57.5416 155.698 56.4966C156.784 55.4518 157.499 54.0817 157.736 52.5937L161.435 29.2925C161.693 27.4928 161.232 25.6641 160.153 24.201C159.073 22.738 157.462 21.7581 155.667 21.4729C153.871 21.1878 152.035 21.6202 150.556 22.6769C149.076 23.7334 148.072 25.3296 147.759 27.1205L144.059 50.4217C143.893 51.4792 143.973 52.5609 144.294 53.5821C144.615 54.6033 145.169 55.5362 145.911 56.3077C146.653 57.079 147.564 57.668 148.572 58.0284C149.58 58.3888 150.658 58.5109 151.721 58.3848Z" fill="#F9D0B5"/>
        <path d="M156.509 46.914L157.927 47.1318C159.572 47.3804 161.251 47.2642 162.846 46.7909C164.441 46.3176 165.913 45.4991 167.156 44.3935C168.399 43.2877 169.384 41.922 170.04 40.3931C170.696 38.8642 171.008 37.2096 170.953 35.5467L170.654 27.3063C170.561 24.6457 169.534 22.103 167.754 20.1233C165.974 18.1437 163.555 16.8536 160.919 16.4791C157.947 16.068 154.934 16.8514 152.539 18.6577C150.144 20.4639 148.562 23.1458 148.141 26.1158L147.01 34.1384C146.597 37.089 147.362 40.0833 149.14 42.4741C150.918 44.8648 153.565 46.4597 156.509 46.914Z" fill="#F9D0B5"/>
        <path d="M164.684 28.8999L167.48 35.8546L164.651 36.2453" stroke="#24272D" stroke-width="0.895057" stroke-miterlimit="10"/>
        <path d="M162.121 32.843C162.798 32.843 163.347 32.294 163.347 31.6168C163.347 30.9396 162.798 30.3906 162.121 30.3906C161.444 30.3906 160.895 30.9396 160.895 31.6168C160.895 32.294 161.444 32.843 162.121 32.843Z" fill="#24272D"/>
        <path d="M168.396 32.843C169.073 32.843 169.622 32.294 169.622 31.6168C169.622 30.9396 169.073 30.3906 168.396 30.3906C167.719 30.3906 167.17 30.9396 167.17 31.6168C167.17 32.294 167.719 32.843 168.396 32.843Z" fill="#24272D"/>
        <path d="M160.074 38.0495C160.074 38.0495 163.252 37.8495 164.884 40.4362" stroke="#24272D" stroke-width="0.895057" stroke-miterlimit="10"/>
        <path d="M117.07 46.5491C117.07 46.5491 115.14 61.6903 127.84 61.5381C148.865 61.2846 152.24 47.4709 150.784 39.493C150.187 36.3155 148.239 33.9585 146.052 31.706C157.389 29.2207 156.616 21.7977 156.616 21.7977C156.616 21.7977 177.701 31.7836 176.484 18.4801C175.266 5.17653 162.801 -0.0953549 154.239 0.638591C134.335 2.34814 133.748 15.0251 128.41 16.8511C98.1305 27.2098 117.07 46.5491 117.07 46.5491Z" fill="#24272D"/>
        <path d="M145.714 35.3731C147.108 37.8215 150.223 38.6761 152.672 37.2817C155.12 35.8875 155.975 32.7722 154.581 30.3237L152.286 26.2948C150.892 23.8464 147.777 22.9918 145.328 24.3861C142.88 25.7805 142.025 28.8956 143.42 31.3442L145.714 35.3731Z" fill="#F9D0B5"/>
        <path d="M146.857 27.437L150.115 33.1535" stroke="#24272D" stroke-width="0.895057" stroke-miterlimit="10"/>
        <path d="M155.375 86.0836L163.356 83.1001C163.356 83.1001 172.662 89.6906 174.992 85.1884C174.992 85.1884 176.484 86.1849 177.206 85.4391C177.928 84.6932 175.97 80.0062 175.97 80.0062C175.97 80.0062 176.928 76.041 174.306 73.347C171.683 70.6528 164.55 65.6464 163.356 66.2491C162.163 66.8518 155.381 74.1644 155.381 74.1644L155.375 86.0836Z" fill="#F9D0B5"/>
        <path d="M113.522 90.5088L153.696 91.3949" stroke="#24272D" stroke-width="0.895057" stroke-miterlimit="10"/>
        <path d="M151.554 70.728L123.586 69.5347" stroke="#24272D" stroke-width="0.895057" stroke-miterlimit="10"/>
        <path d="M134.783 63.4873L128.267 69.6751" stroke="#24272D" stroke-width="0.895057" stroke-miterlimit="10"/>
        <path d="M130.138 103.472L145.13 91.2041" stroke="#24272D" stroke-width="0.895057" stroke-miterlimit="10"/>
    </g>
    <defs>
        <clipPath id="clip0_19_52">
            <rect width="414.68" height="252.414" fill="white"/>
        </clipPath>
    </defs>
</svg>
