<svg width="329" height="275" viewBox="0 0 329 275" fill="none" xmlns="http://www.w3.org/2000/svg">
    <g opacity="0.5">
        <path d="M25.1854 92.1836V74.9759C25.185 74.185 25.3979 73.4087 25.8017 72.7287C26.2055 72.0487 26.7852 71.4902 27.4798 71.112C28.1743 70.7339 28.9581 70.55 29.7483 70.5799C30.5386 70.6098 31.3062 70.8523 31.9702 71.2818L54.5946 85.9149C58.0648 88.1568 56.8085 93.5082 52.7072 93.9746L30.0797 96.5523C29.4643 96.6224 28.841 96.5617 28.2507 96.3741C27.6604 96.1865 27.1164 95.8764 26.6543 95.4639C26.1922 95.0514 25.8225 94.546 25.5694 93.9807C25.3162 93.4154 25.1854 92.803 25.1854 92.1836Z" fill="#E9EEF2"/>
        <path d="M158.751 98.6469L126.646 89.0294C125.17 88.589 123.84 87.7587 122.797 86.6261C121.753 85.4934 121.035 84.1003 120.716 82.5935C120.398 81.0866 120.492 79.5218 120.988 78.0639C121.485 76.606 122.365 75.3089 123.536 74.3092L163.493 40.2701C169.612 35.0556 178.897 40.3883 177.485 48.3018L169.646 91.9585C169.433 93.1468 168.971 94.2766 168.291 95.2737C167.61 96.2709 166.726 97.1129 165.698 97.7445C164.669 98.3761 163.518 98.783 162.321 98.9385C161.124 99.094 159.907 98.9947 158.751 98.6469Z" fill="#F2F6F9"/>
        <path d="M0.58845 161.828L11.0922 139.064C11.5744 138.018 12.3298 137.121 13.2787 136.468C14.2277 135.815 15.3352 135.43 16.4845 135.354C17.6339 135.278 18.7825 135.513 19.8096 136.034C20.8366 136.556 21.704 137.344 22.3204 138.318L43.3279 171.48C46.5461 176.564 41.6208 182.879 35.9087 180.992L4.40064 170.594C3.5435 170.311 2.75573 169.851 2.08893 169.243C1.42214 168.634 0.891406 167.892 0.531476 167.065C0.171546 166.237 -0.00944359 165.343 0.000379472 164.44C0.0102025 163.538 0.21059 162.648 0.58845 161.828Z" fill="#F2F6F9"/>
        <path d="M287.457 77.0179L291.207 87.9507C291.379 88.4529 291.412 88.9922 291.304 89.5118C291.195 90.0314 290.949 90.5121 290.59 90.9035C290.231 91.2949 289.774 91.5824 289.266 91.7358C288.758 91.8892 288.218 91.9029 287.702 91.7754L270.14 87.4221C269.549 87.2763 269.017 86.951 268.618 86.4909C268.219 86.0309 267.972 85.4586 267.911 84.8526C267.85 84.2466 267.978 83.6366 268.277 83.1062C268.577 82.5759 269.033 82.1512 269.583 81.8904L283.396 75.3233C283.77 75.1441 284.179 75.046 284.594 75.0354C285.009 75.0249 285.422 75.1021 285.805 75.2621C286.189 75.4221 286.534 75.6611 286.818 75.9637C287.103 76.2663 287.32 76.6255 287.457 77.0179Z" fill="#E9EEF2"/>
        <path d="M218.579 41.1562L230.989 52.7421C231.554 53.2765 231.966 53.9526 232.181 54.7002C232.397 55.4478 232.408 56.2394 232.214 56.9927C232.019 57.746 231.627 58.4335 231.077 58.9836C230.527 59.5338 229.839 59.9264 229.086 60.1208L203.299 66.5947C199.347 67.5866 196.331 63.0779 198.756 59.8036L212.127 41.747C212.492 41.2569 212.956 40.8491 213.489 40.5502C214.022 40.2513 214.613 40.0681 215.221 40.0123C215.83 39.9566 216.443 40.0297 217.022 40.2267C217.6 40.4238 218.131 40.7405 218.579 41.1562Z" fill="#E9EEF2"/>
        <path d="M308.662 133.364L288.221 146.595C286.938 147.424 285.472 147.926 283.951 148.056C282.429 148.186 280.899 147.941 279.494 147.341C278.09 146.742 276.854 145.807 275.895 144.619C274.936 143.43 274.284 142.024 273.995 140.525L268.227 110.469C266.672 102.422 275.522 96.4391 282.418 100.864L308.631 117.683C309.944 118.526 311.025 119.684 311.774 121.052C312.523 122.42 312.918 123.955 312.921 125.515C312.924 127.075 312.536 128.611 311.792 129.982C311.048 131.353 309.972 132.516 308.662 133.364Z" fill="#F2F6F9"/>
        <path d="M161.879 201.902C156.935 206.846 153.421 203.332 148.477 208.273C143.533 213.214 147.05 216.734 142.106 221.675C137.162 226.616 133.648 223.105 128.701 228.049C123.754 232.993 127.274 236.51 122.33 241.454" stroke="#F2F6F9" stroke-width="6.2189" stroke-miterlimit="10" stroke-linecap="round"/>
        <path d="M50.1743 18.5759C55.3039 18.5759 59.4622 14.4175 59.4622 9.28793C59.4622 4.15835 55.3039 0 50.1743 0C45.0447 0 40.8864 4.15835 40.8864 9.28793C40.8864 14.4175 45.0447 18.5759 50.1743 18.5759Z" fill="#E9EEF2"/>
        <path d="M256.003 224.587C268.228 224.587 278.139 214.676 278.139 202.45C278.139 190.225 268.228 180.314 256.003 180.314C243.777 180.314 233.867 190.225 233.867 202.45C233.867 214.676 243.777 224.587 256.003 224.587Z" fill="#E9EEF2"/>
    </g>
    <path d="M104.487 272.707H66.8162L73.417 254.25L88.2475 260.406L104.487 272.707Z" fill="#F9D0B5"/>
    <path d="M42.2969 272.707H7.19617L13.7942 254.25L26.0576 260.406L42.2969 272.707Z" fill="#F9D0B5"/>
    <path d="M112.669 113.93C112.669 113.93 122.902 111.341 127.029 113.228C131.156 115.116 133.33 118.563 132.708 122.231C132.406 124.006 121.768 131.96 121.768 131.96L110.85 122.952L112.669 113.93Z" fill="#F9D0B5"/>
    <path d="M122.539 199.601L96.9499 264.417L67.6025 258.537L89.7823 194.265L74.3409 180.18L78.1325 186.594C79.7727 189.354 80.5882 192.526 80.4824 195.735C80.3765 198.944 79.3539 202.056 77.5354 204.702L36.8134 264.428L8.2749 254.407L42.1182 198.104L29.156 153.375C27.1199 146.343 26.9768 136.509 29.3788 129.575L34.1389 117.856L70.9566 116.913C71.0777 116.913 106.176 163.963 120.28 182.91C122.052 185.267 123.19 188.039 123.585 190.961C123.981 193.883 123.62 196.857 122.539 199.601Z" fill="#24272D"/>
    <path d="M71.053 91.2852L66.8982 111.478C66.4172 113.814 66.4992 116.23 67.1374 118.527C67.7756 120.824 68.9517 122.936 70.5683 124.689C72.1849 126.441 74.1955 127.783 76.4339 128.604C78.6722 129.425 81.0739 129.701 83.4402 129.41L114.238 125.627L114.086 112.018L90.2886 110.491C90.2886 110.491 95.3679 81.1157 84.417 74.823C69.0251 65.9798 61.7144 70.4207 56.6627 76.3941C52.7225 81.0579 48.1853 92.3253 44.9468 97.8558C41.7083 103.386 34.1417 117.837 34.1417 117.837L68.6151 122.22" fill="#4ADB61"/>
    <path d="M72.6296 77.382C71.7276 77.3818 70.8395 77.1599 70.0434 76.7358C69.2473 76.3117 68.5677 75.6984 68.0643 74.9499C67.561 74.2014 67.2493 73.3406 67.1568 72.4434C67.0643 71.5461 67.1938 70.6399 67.5339 69.8044L76.523 47.6879C77.0743 46.3357 78.1402 45.2579 79.4862 44.6916C80.8322 44.1253 82.348 44.1169 83.7002 44.6682C85.0524 45.2195 86.1303 46.2854 86.6966 47.6314C87.2629 48.9774 87.2713 50.4932 86.72 51.8454L77.7281 73.9619C77.3143 74.974 76.6082 75.8399 75.7001 76.449C74.7921 77.0582 73.7231 77.383 72.6296 77.382Z" fill="#F9D0B5"/>
    <path d="M79.0761 67.2537L80.2565 67.727C81.6281 68.2743 83.1034 68.5127 84.5776 68.4251C86.0518 68.3375 87.4886 67.9262 88.7857 67.2203C90.0829 66.5145 91.2086 65.5315 92.0827 64.3412C92.9569 63.1509 93.558 61.7827 93.8433 60.3338L95.2576 53.1551C95.7135 50.8369 95.3381 48.4321 94.1974 46.3631C93.0567 44.2941 91.2236 42.693 89.02 41.841C86.5337 40.8802 83.7677 40.9462 81.3301 42.0246C78.8926 43.1031 76.9832 45.1055 76.022 47.5916L73.43 54.297C72.4755 56.765 72.5331 59.5099 73.5902 61.9358C74.6473 64.3616 76.6186 66.2726 79.0761 67.2537Z" fill="#F9D0B5"/>
    <path d="M28.2285 47.908C25.1386 63.5915 40.3764 66.6181 40.3764 66.6181C40.3764 66.6181 29.9455 83.0417 49.1564 83.6966C68.3673 84.3515 75.0671 71.3341 75.1882 63.4786C75.235 60.3502 73.895 57.7748 72.3377 55.2599C82.9584 54.8004 83.5913 47.5915 83.5913 47.5915C83.5913 47.5915 99.6104 55.9698 100.898 43.0736C102.186 30.1774 89.4382 24.6056 81.6212 23.8682C79.9733 23.7211 78.3127 23.825 76.696 24.1764C71.4902 25.2632 67.2722 27.8028 60.5943 27.1727C42.1428 25.431 39.2262 35.6253 39.2262 35.6253C39.2262 35.6253 30.3169 37.3037 28.2285 47.908Z" fill="#24272D"/>
    <path d="M95.0734 53.2596L96.5537 61.4618L93.4418 61.0849" fill="#F9D0B5"/>
    <path d="M91.8292 55.8489C92.6406 55.8489 93.2985 55.191 93.2985 54.3796C93.2985 53.5681 92.6406 52.9103 91.8292 52.9103C91.0177 52.9103 90.3599 53.5681 90.3599 54.3796C90.3599 55.191 91.0177 55.8489 91.8292 55.8489Z" fill="#24272D"/>
    <path d="M89.2646 61.9021C89.2646 61.9021 87.8366 61.5554 88.164 60.0834L89.2646 61.9021Z" fill="#24272D"/>
    <path d="M89.2646 61.9021C89.2646 61.9021 87.8366 61.5554 88.164 60.0834" stroke="#24272D" stroke-width="0.825447" stroke-miterlimit="10" stroke-linecap="square"/>
    <path d="M77.6488 58.2989L78.3345 58.095C80.5412 57.4388 81.7981 55.118 81.142 52.9113L79.7649 48.28C79.1087 46.0733 76.7879 44.8164 74.5812 45.4725L73.8954 45.6764C71.6887 46.3326 70.4318 48.6534 71.088 50.8601L72.4651 55.4914C73.1212 57.6981 75.442 58.955 77.6488 58.2989Z" fill="#F9D0B5"/>
    <path d="M74.4559 47.564L76.3682 53.9888" stroke="#24272D" stroke-width="0.825447" stroke-miterlimit="10" stroke-linecap="square"/>
    <path d="M71.052 91.2853L66.3745 115.014C65.8599 116.968 66.4377 120.071 68.6059 122.209" stroke="white" stroke-width="0.825447" stroke-miterlimit="10"/>
    <path d="M87.9415 193.101L49.2885 156.364C49.2885 156.364 44.7871 152.707 44.7871 143.638" stroke="white" stroke-width="0.825447" stroke-miterlimit="10"/>
    <path d="M217.325 169.291H238.797L222.814 118.96H201.342L217.325 169.291Z" fill="#4ADB61"/>
    <path d="M202.571 169.288H230.231V165.998H202.571V169.288Z" fill="#4ADB61"/>
    <path d="M167.199 274.954C256.559 274.954 329 274.001 329 272.826C329 271.65 256.559 270.697 167.199 270.697C77.8382 270.697 5.39722 271.65 5.39722 272.826C5.39722 274.001 77.8382 274.954 167.199 274.954Z" fill="#E4EFF7"/>
    <path d="M151.966 169.81L129.04 272.826" stroke="#475056" stroke-width="1.7" stroke-miterlimit="10"/>
    <path d="M176.802 169.81L153.872 272.826" stroke="#475056" stroke-width="1.7" stroke-miterlimit="10"/>
    <path d="M294.198 169.707L317.149 272.826" stroke="#475056" stroke-width="1.7" stroke-miterlimit="10"/>
    <path d="M269.342 169.707L292.293 272.826" stroke="#475056" stroke-width="1.7" stroke-miterlimit="10"/>
    <path d="M131.122 169.745H309.915" stroke="#475056" stroke-width="1.7" stroke-miterlimit="10"/>
    <path d="M207.707 146.704H198.896V118.96L207.707 146.704Z" fill="#24272D"/>
    <path d="M216.412 146.704C216.481 146.941 216.563 147.174 216.657 147.403C217.883 150.372 220.862 151.954 223.315 150.937C224.946 150.26 225.933 148.607 226.05 146.699C226.105 145.683 225.929 144.668 225.536 143.73C224.31 140.761 221.327 139.179 218.875 140.196C216.616 141.131 215.594 143.945 216.412 146.704Z" fill="white"/>
    <path d="M213.966 146.704H223.603C223.659 145.688 223.483 144.673 223.09 143.735C221.863 140.766 218.881 139.184 216.429 140.201C214.17 141.131 213.147 143.945 213.966 146.704Z" fill="#24272D"/>
    <path d="M266.716 88.231V143.442C266.716 144.307 266.372 145.137 265.76 145.749C265.148 146.36 264.318 146.704 263.453 146.704H261.278C262.144 146.704 262.973 146.36 263.585 145.749C264.197 145.137 264.541 144.307 264.541 143.442V88.231C264.541 87.3657 264.197 86.5359 263.585 85.9241C262.973 85.3123 262.144 84.9686 261.278 84.9686H263.453C264.318 84.9686 265.148 85.3123 265.76 85.9241C266.372 86.5359 266.716 87.3657 266.716 88.231Z" fill="#24272D"/>
    <path d="M261.281 84.9712H161.902C160.101 84.9712 158.64 86.4318 158.64 88.2336V143.444C158.64 145.246 160.101 146.707 161.902 146.707H261.281C263.082 146.707 264.543 145.246 264.543 143.444V88.2336C264.543 86.4318 263.082 84.9712 261.281 84.9712Z" fill="#4ADB61"/>
    <path d="M260.726 88.1548H166.106V142.52H260.726V88.1548Z" fill="white"/>
    <path fill-rule="evenodd" clip-rule="evenodd" d="M175.034 124.385H197.966C197.989 124.093 198 123.798 198 123.5C198 117.149 192.851 112 186.5 112C180.149 112 175 117.149 175 123.5C175 123.798 175.011 124.093 175.034 124.385Z" fill="#FF4D4D"/>
    <path d="M210.634 111.5C211.019 110.833 211.981 110.833 212.366 111.5L218.861 122.75C219.246 123.417 218.765 124.25 217.995 124.25H205.005C204.235 124.25 203.754 123.417 204.139 122.75L210.634 111.5Z" fill="#4C40F7"/>
    <rect x="225" y="112" width="26" height="13" rx="1" fill="#FFDC52"/>
</svg>
