<svg width="22" height="23" viewBox="0 0 22 23" fill="none" xmlns="http://www.w3.org/2000/svg">
<path d="M7.94922 13.6357C7.94922 14.8182 8.85672 15.7715 9.98422 15.7715H12.2851C13.2659 15.7715 14.0634 14.9374 14.0634 13.9107C14.0634 12.7924 13.5776 12.3982 12.8534 12.1415L9.15922 10.8582C8.43505 10.6015 7.94922 10.2074 7.94922 9.08904C7.94922 8.06238 8.74672 7.22821 9.72755 7.22821H12.0284C13.1559 7.22821 14.0634 8.18154 14.0634 9.36404" stroke="#292D32" stroke-width="1.5" stroke-linecap="round" stroke-linejoin="round"/>
<path d="M11 6V17" stroke="#292D32" stroke-width="1.5" stroke-linecap="round" stroke-linejoin="round"/>
<path d="M11.0002 20.6666C16.0628 20.6666 20.1668 16.5626 20.1668 11.5C20.1668 6.43737 16.0628 2.33331 11.0002 2.33331C5.93755 2.33331 1.8335 6.43737 1.8335 11.5C1.8335 16.5626 5.93755 20.6666 11.0002 20.6666Z" stroke="#292D32" stroke-width="1.5" stroke-linecap="round" stroke-linejoin="round"/>
</svg>
