<svg width="22" height="22" viewBox="0 0 22 22" fill="none" xmlns="http://www.w3.org/2000/svg">
<path d="M17.439 9.16519C17.5549 9.0019 17.6478 8.84556 17.7171 8.6962C17.7864 8.54693 17.8447 8.37977 17.8922 8.195C17.9406 8.00677 17.9642 7.77804 17.9642 7.50996C17.9642 7.22333 17.8459 6.91545 17.6187 6.58777C17.4172 6.29051 17.1515 6.0497 16.8225 5.86522L16.9139 5.82797L16.9144 5.82777C17.3205 5.65813 17.7605 5.52942 18.2346 5.44182L18.3082 5.42821L18.2789 5.35932L18.1231 4.99311L18.1064 4.95396L18.064 4.95673C17.5793 4.98834 16.8471 5.18153 15.8715 5.53191C15.1566 5.44472 14.6361 5.40073 14.3122 5.40073C13.3799 5.40073 12.4711 5.57624 11.5864 5.927L11.5863 5.92705C10.7077 6.27743 9.93811 6.74322 9.27806 7.32469C8.62276 7.90136 8.09599 8.59071 7.69784 9.39225C7.30847 10.171 7.10885 10.9758 7.09973 11.8059C6.25477 11.8158 5.47187 12.0367 4.75216 12.4685C4.38502 12.6867 4.08718 12.9848 3.85892 13.3617C3.62947 13.7405 3.5152 14.167 3.5152 14.6394C3.5152 15.3428 3.78288 15.8963 4.31868 16.2928L4.31892 16.2929C4.99154 16.7855 5.86212 17.0292 6.92565 17.0292C7.70059 17.0292 8.41914 16.9113 9.08077 16.675C9.74151 16.4391 10.3042 16.116 10.7678 15.705C11.2293 15.296 11.615 14.8343 11.9247 14.3199C12.2383 13.8076 12.4492 13.3397 12.555 12.9164L12.555 12.9162C12.6592 12.4944 12.8256 11.7403 13.0541 10.6547C13.147 10.2266 13.2865 9.74331 13.4729 9.20482L13.473 9.20459C13.8964 7.96488 14.5835 7.05025 15.5325 6.45567C15.8416 6.59672 16.0792 6.83611 16.2452 7.17776L16.2453 7.17806C16.4189 7.53033 16.5041 7.85889 16.5041 8.16447C16.5041 8.4711 16.4287 8.77891 16.2765 9.08844C16.1234 9.39473 15.9376 9.65396 15.7196 9.8669C15.4979 10.0834 15.274 10.2764 15.0477 10.4461C14.8249 10.612 14.6362 10.7464 14.4815 10.8495C14.4031 10.9018 14.3425 10.9454 14.3011 10.9799C14.2806 10.997 14.263 11.0133 14.2501 11.0283C14.2437 11.0359 14.2372 11.0445 14.232 11.0539C14.2273 11.0626 14.2211 11.0768 14.2211 11.0942C14.2211 11.1154 14.2308 11.1311 14.2366 11.1388C14.243 11.1475 14.2507 11.1548 14.2576 11.1606C14.2716 11.1723 14.2901 11.1844 14.3113 11.1967C14.3543 11.2216 14.4169 11.2525 14.4979 11.2891C14.6562 11.3606 14.849 11.4633 15.0765 11.5978L15.0765 11.5978L15.0779 11.5985C15.3084 11.7266 15.5393 11.8831 15.7708 12.0682C15.9969 12.2492 16.1893 12.4915 16.3471 12.7969L16.3473 12.7973C16.5036 13.0947 16.582 13.4201 16.582 13.7745C16.582 14.4869 16.3434 15.109 15.8648 15.6435C15.3878 16.1764 14.7988 16.4417 14.0941 16.4417C14.0134 16.4417 13.9246 16.4366 13.8276 16.4264L13.8274 16.4264C13.5467 16.398 13.3431 16.349 13.2114 16.2825C13.109 16.2309 13.0568 16.1728 13.0391 16.11C13.0619 16.1056 13.0867 16.0994 13.1132 16.0918C13.1702 16.0756 13.2395 16.0515 13.321 16.02L13.3211 16.0199C13.4186 15.982 13.5108 15.9332 13.5975 15.8737C13.6936 15.8114 13.7746 15.727 13.8409 15.6221L13.8416 15.6209C13.9116 15.5043 13.9437 15.3521 13.9437 15.1693C13.9437 14.9676 13.8563 14.7934 13.6892 14.6486C13.5195 14.5015 13.291 14.4314 13.011 14.4314C12.7249 14.4314 12.4785 14.5339 12.2751 14.7372L12.2745 14.7378C12.0749 14.943 11.977 15.2109 11.977 15.5355C11.977 15.8632 12.0951 16.1506 12.3287 16.395C12.7534 16.8412 13.3607 17.0603 14.1408 17.0603C14.8473 17.0603 15.5145 16.8836 16.1414 16.5307C16.7731 16.178 17.2792 15.7037 17.6587 15.1082C18.0433 14.5127 18.237 13.8965 18.237 13.2603C18.237 12.6183 18.0375 12.0811 17.6365 11.6532C17.2558 11.2422 16.7126 10.8874 16.0102 10.5871C16.1837 10.4481 16.3316 10.3287 16.4539 10.2291L16.4539 10.2291L16.4553 10.2279C16.5344 10.1593 16.6418 10.0598 16.7771 9.9297L16.7771 9.92967C16.918 9.79397 17.036 9.67344 17.1307 9.56817L17.1317 9.56708C17.2267 9.45615 17.3292 9.32209 17.439 9.16519ZM17.439 9.16519C17.4391 9.16514 17.4391 9.1651 17.4391 9.16506L17.39 9.13065L17.4389 9.16538C17.439 9.16531 17.439 9.16525 17.439 9.16519ZM8.04881 14.2919L8.11054 14.274L8.08841 14.2136L8.0031 13.981C8.00303 13.9808 8.00297 13.9806 8.0029 13.9804C7.85286 13.5447 7.74628 13.1463 7.68274 12.7851C7.77405 12.7906 7.91011 12.8049 8.0924 12.8286C8.1451 12.8393 8.30165 12.8752 8.56376 12.9369C8.81751 12.9966 9.20977 13.1964 9.74472 13.5443L9.78646 13.5715L9.82084 13.5355L10.1481 13.1926L10.185 13.154L10.1508 13.1129C9.63714 12.4943 8.81264 12.0697 7.68719 11.8324C7.69362 11.2701 7.81128 10.7097 8.04083 10.1508L8.0409 10.1506C8.27737 9.56972 8.60118 9.04029 9.0125 8.56211C9.43002 8.08276 9.90168 7.6575 10.4276 7.28627L10.4279 7.28604C10.953 6.91025 11.5191 6.61948 12.1264 6.41361L12.1267 6.41351C12.7406 6.20199 13.2845 6.09732 13.759 6.09732C14.1674 6.09732 14.512 6.12347 14.7938 6.17507C14.1995 6.56123 13.6651 7.04562 13.1905 7.6278C12.6835 8.24463 12.2984 8.87303 12.0361 9.51307L12.0359 9.51346C11.7802 10.1501 11.525 10.9394 11.2701 11.881L11.27 11.8814C11.1769 12.2329 11.0605 12.6107 10.9207 13.0147C10.7809 13.4183 10.6388 13.7774 10.4944 14.0922C10.351 14.3993 10.1639 14.7019 9.93262 15C9.70226 15.2969 9.44692 15.5419 9.16674 15.7354L9.16632 15.7357C8.89236 15.9285 8.55328 16.0844 8.14777 16.2025C7.74433 16.32 7.2594 16.3793 6.6919 16.3793C6.13464 16.3793 5.60052 16.2592 5.08894 16.0188L5.08856 16.0186C4.82838 15.8985 4.61877 15.7214 4.45875 15.4865C4.30489 15.253 4.22737 14.9844 4.22737 14.6784C4.22737 14.3673 4.30743 14.0991 4.46585 13.8713C4.6326 13.6338 4.82853 13.4534 5.05337 13.3284C5.28706 13.2015 5.59931 13.0809 5.99161 12.9673C6.36714 12.86 6.73747 12.8039 7.10275 12.7986C7.10752 12.8496 7.11729 12.9164 7.13146 12.9979C7.15243 13.1185 7.18379 13.2752 7.22542 13.4678L7.2256 13.4685C7.31421 13.8542 7.40326 14.1638 7.49302 14.3961L7.51286 14.4475L7.56572 14.4321L8.04881 14.2919ZM16.6809 5.85811C16.7046 5.86993 16.7279 5.88202 16.7509 5.89438L16.6809 5.85811Z" fill="black" stroke="black" stroke-width="0.12"/>
</svg>
