<svg width="22" height="23" viewBox="0 0 22 23" fill="none" xmlns="http://www.w3.org/2000/svg">
<path d="M6.14184 17H3.80435C2.49352 17 1.8335 16.34 1.8335 15.0291V4.30417C1.8335 2.99334 2.49352 2.33331 3.80435 2.33331H7.74601C9.05684 2.33331 9.71681 2.99334 9.71681 4.30417V5.99998" stroke="#292D32" stroke-width="1.5" stroke-miterlimit="10" stroke-linecap="round" stroke-linejoin="round"/>
<path d="M15.9224 8.21832V18.4484C15.9224 19.9242 15.1891 20.6667 13.7133 20.6667H8.35992C6.88409 20.6667 6.1416 19.9242 6.1416 18.4484V8.21832C6.1416 6.74248 6.88409 6 8.35992 6H13.7133C15.1891 6 15.9224 6.74248 15.9224 8.21832Z" stroke="#292D32" stroke-width="1.5" stroke-miterlimit="10" stroke-linecap="round" stroke-linejoin="round"/>
<path d="M12.2832 5.99998V4.30417C12.2832 2.99334 12.9432 2.33331 14.254 2.33331H18.1957C19.5065 2.33331 20.1665 2.99334 20.1665 4.30417V15.0291C20.1665 16.34 19.5065 17 18.1957 17H15.9223" stroke="#292D32" stroke-width="1.5" stroke-miterlimit="10" stroke-linecap="round" stroke-linejoin="round"/>
<path d="M9.1665 10.5833H12.8332" stroke="#292D32" stroke-width="1.5" stroke-miterlimit="10" stroke-linecap="round" stroke-linejoin="round"/>
<path d="M9.1665 13.3333H12.8332" stroke="#292D32" stroke-width="1.5" stroke-miterlimit="10" stroke-linecap="round" stroke-linejoin="round"/>
<path d="M11 20.6667V17.9167" stroke="#292D32" stroke-width="1.5" stroke-miterlimit="10" stroke-linecap="round" stroke-linejoin="round"/>
</svg>
