<svg width="24" height="24" viewBox="0 0 24 24" fill="none" xmlns="http://www.w3.org/2000/svg">
<path fill-rule="evenodd" clip-rule="evenodd" d="M7.54376 19.9518C8.25776 19.9518 8.83876 20.5318 8.83876 21.2458C8.83876 21.9598 8.25776 22.5408 7.54376 22.5408C6.82976 22.5408 6.24976 21.9598 6.24976 21.2458C6.24976 20.5318 6.82976 19.9518 7.54376 19.9518ZM18.8241 19.9518C19.5391 19.9518 20.1201 20.5318 20.1201 21.2458C20.1201 21.9598 19.5391 22.5408 18.8241 22.5408C18.1101 22.5408 17.5301 21.9598 17.5301 21.2458C17.5301 20.5318 18.1101 19.9518 18.8241 19.9518ZM3.26796 3.00936L5.34796 3.36937C5.68296 3.42837 5.93796 3.70636 5.96696 4.04637L6.20196 6.84737L7.07581 6.84774C7.21841 6.8478 7.35949 6.84787 7.49908 6.84793L9.10338 6.84869C9.23126 6.84876 9.35771 6.84882 9.48275 6.84889L11.2541 6.84986C11.3654 6.84992 11.4754 6.84999 11.584 6.85005L12.8253 6.85085C12.9237 6.85091 13.0208 6.85098 13.1166 6.85105L14.2084 6.85185C14.2946 6.85192 14.3797 6.85199 14.4635 6.85205L15.4155 6.85287C15.4904 6.85294 15.5641 6.85301 15.6368 6.85308L16.2625 6.8537C16.3289 6.85377 16.3943 6.85384 16.4586 6.85391L17.1832 6.85475C17.2397 6.85482 17.2952 6.85489 17.3498 6.85496L17.9616 6.85581C18.009 6.85589 18.0556 6.85596 18.1013 6.85603L18.4901 6.85668C18.5309 6.85675 18.5708 6.85682 18.61 6.8569L19.0431 6.85777C19.0762 6.85785 19.1086 6.85792 19.1403 6.858L19.4068 6.85866C19.4344 6.85874 19.4614 6.85881 19.4877 6.85889L19.7734 6.85979C19.7948 6.85986 19.8157 6.85994 19.8359 6.86001L20.0037 6.8607C20.0208 6.86077 20.0373 6.86085 20.0534 6.86093L20.2231 6.86185C20.2354 6.86193 20.2473 6.86201 20.2588 6.86209L20.3513 6.86279C20.3604 6.86287 20.3692 6.86294 20.3776 6.86302L20.4442 6.86373C20.4506 6.86381 20.4568 6.86389 20.4626 6.86397L20.5079 6.86469C20.5122 6.86477 20.5162 6.86485 20.52 6.86493L20.5487 6.86565C20.5513 6.86574 20.5538 6.86582 20.556 6.8659L20.5768 6.86688C20.5781 6.86696 20.5793 6.86704 20.5803 6.86712C20.5901 6.86803 20.5915 6.8682 20.593 6.86837C21.15 6.94937 21.64 7.24037 21.974 7.68837C22.308 8.13537 22.448 8.68637 22.368 9.23837L21.419 15.7964C21.24 17.0444 20.156 17.9854 18.896 17.9854H7.97496C6.65796 17.9854 5.54296 16.9574 5.43596 15.6424L4.51996 4.74837L3.01296 4.48837C2.60396 4.41637 2.33096 4.02937 2.40096 3.62037C2.47296 3.21136 2.86796 2.94536 3.26796 3.00936ZM6.87519 8.34771L6.32796 8.34737L6.93096 15.5194C6.97496 16.0714 7.42596 16.4854 7.97696 16.4854H18.894C19.415 16.4854 19.86 16.0974 19.934 15.5824L20.884 9.02337C20.906 8.86737 20.867 8.71137 20.772 8.58537C20.678 8.45837 20.54 8.37637 20.384 8.35437C20.3767 8.35464 20.3595 8.35489 20.3326 8.35512L20.2239 8.35574C20.2011 8.35584 20.1761 8.35593 20.1489 8.35601L19.5824 8.35687C19.5346 8.3569 19.4849 8.35693 19.4333 8.35696L18.1013 8.3569C18.027 8.35687 17.9513 8.35684 17.8742 8.35681L16.3541 8.35589C16.263 8.35582 16.171 8.35575 16.078 8.35568L15.2178 8.35499C15.1199 8.35491 15.0212 8.35483 14.9218 8.35474L14.0107 8.35394C13.9078 8.35385 13.8044 8.35375 13.7006 8.35366L13.073 8.35308C12.9677 8.35298 12.8621 8.35289 12.7563 8.35279L11.7986 8.35189C11.6918 8.35179 11.5849 8.35169 11.4781 8.35159L10.8374 8.351C10.7308 8.3509 10.6243 8.3508 10.518 8.3507L9.88279 8.35013C9.77745 8.35003 9.67242 8.34994 9.56775 8.34985L8.63724 8.34904C8.53531 8.34896 8.43394 8.34888 8.33317 8.34879L7.15725 8.3479C7.06235 8.34783 6.96831 8.34777 6.87519 8.34771ZM17.2879 10.5437C17.7019 10.5437 18.0379 10.8797 18.0379 11.2937C18.0379 11.7077 17.7019 12.0437 17.2879 12.0437H14.5159C14.1009 12.0437 13.7659 11.7077 13.7659 11.2937C13.7659 10.8797 14.1009 10.5437 14.5159 10.5437H17.2879Z" fill="black"/>
</svg>
