<svg width="49" height="49" viewBox="0 0 49 49" fill="none" xmlns="http://www.w3.org/2000/svg">
<path fill-rule="evenodd" clip-rule="evenodd" d="M39.7477 17.5029C40.5737 17.5709 41.1897 18.2929 41.1237 19.1189C41.1117 19.2549 40.0277 32.6769 39.4037 38.3069C39.0157 41.8009 36.7077 43.9269 33.2237 43.9909C30.5577 44.0369 27.9857 44.0629 25.4717 44.0629C22.7617 44.0629 20.1197 44.0329 17.5057 43.9789C14.1617 43.9129 11.8477 41.7449 11.4697 38.3209C10.8397 32.6409 9.76172 19.2529 9.75172 19.1189C9.68372 18.2929 10.2997 17.5689 11.1257 17.5029C11.9397 17.4809 12.6757 18.0529 12.7417 18.8769C12.7481 18.9637 13.1888 24.4309 13.669 29.8403L13.7655 30.9198C14.0074 33.6085 14.2526 36.1922 14.4517 37.9909C14.6657 39.9369 15.7157 40.9409 17.5677 40.9789C22.5677 41.0849 27.6697 41.0909 33.1697 40.9909C35.1377 40.9529 36.2017 39.9689 36.4217 37.9769C37.0417 32.3889 38.1217 19.0129 38.1337 18.8769C38.1997 18.0529 38.9297 17.4769 39.7477 17.5029ZM29.6693 4.06348C31.5053 4.06348 33.1193 5.30148 33.5933 7.07548L34.1013 9.59748C34.2655 10.4242 34.991 11.028 35.8311 11.0413L42.3945 11.0415C43.2225 11.0415 43.8945 11.7135 43.8945 12.5415C43.8945 13.3695 43.2225 14.0415 42.3945 14.0415L35.8897 14.0412C35.8796 14.0414 35.8695 14.0415 35.8593 14.0415L35.8105 14.0395L15.0618 14.0412C15.0456 14.0414 15.0295 14.0415 15.0133 14.0415L14.9825 14.0395L8.47852 14.0415C7.65052 14.0415 6.97852 13.3695 6.97852 12.5415C6.97852 11.7135 7.65052 11.0415 8.47852 11.0415L15.0405 11.0395L15.2426 11.0267C15.9951 10.929 16.6206 10.3575 16.7733 9.59748L17.2593 7.16548C17.7533 5.30148 19.3673 4.06348 21.2033 4.06348H29.6693ZM29.6693 7.06348H21.2033C20.7233 7.06348 20.3013 7.38548 20.1793 7.84748L19.7133 10.1875C19.6541 10.4839 19.5678 10.7695 19.4575 11.042H31.4157C31.3052 10.7695 31.2188 10.4839 31.1593 10.1875L30.6733 7.75548C30.5713 7.38548 30.1493 7.06348 29.6693 7.06348Z" fill="black"/>
</svg>
