<svg width="20" height="22" viewBox="0 0 20 22" fill="none" xmlns="http://www.w3.org/2000/svg">
    <path d="M19 4.97998C15.67 4.64998 12.32 4.47998 8.98 4.47998C7 4.47998 5.02 4.57998 3.04 4.77998L1 4.97998" stroke="#ED1C24" stroke-width="1.5" stroke-linecap="round" stroke-linejoin="round"/>
    <path d="M6.5 3.97L6.72 2.66C6.88 1.71 7 1 8.69 1H11.31C13 1 13.13 1.75 13.28 2.67L13.5 3.97" stroke="#ED1C24" stroke-width="1.5" stroke-linecap="round" stroke-linejoin="round"/>
    <path d="M16.8499 8.14001L16.1999 18.21C16.0899 19.78 15.9999 21 13.2099 21H6.7899C3.9999 21 3.9099 19.78 3.7999 18.21L3.1499 8.14001" stroke="#ED1C24" stroke-width="1.5" stroke-linecap="round" stroke-linejoin="round"/>
    <path d="M8.33008 15.5H11.6601" stroke="#ED1C24" stroke-width="1.5" stroke-linecap="round" stroke-linejoin="round"/>
    <path d="M7.5 11.5H12.5" stroke="#ED1C24" stroke-width="1.5" stroke-linecap="round" stroke-linejoin="round"/>
</svg>
