<svg width="42" height="42" viewBox="0 0 42 42" fill="none" xmlns="http://www.w3.org/2000/svg">
<path fill-rule="evenodd" clip-rule="evenodd" d="M19.6481 0.857956C20.4761 0.857956 21.1481 1.52996 21.1481 2.35796C21.1481 3.18596 20.4761 3.85796 19.6481 3.85796H12.1701C7.00206 3.85796 3.66406 7.39796 3.66406 12.876V29.504C3.66406 34.982 7.00206 38.522 12.1701 38.522H29.8181C34.9861 38.522 38.3261 34.982 38.3261 29.504V21.448C38.3261 20.62 38.9981 19.948 39.8261 19.948C40.6541 19.948 41.3261 20.62 41.3261 21.448V29.504C41.3261 36.692 36.7001 41.522 29.8181 41.522H12.1701C5.28806 41.522 0.664062 36.692 0.664062 29.504V12.876C0.664062 5.68796 5.28806 0.857956 12.1701 0.857956H19.6481ZM37.0673 2.61516L39.5013 5.04916C40.6873 6.23316 41.3393 7.80716 41.3373 9.48316C41.3373 11.1592 40.6853 12.7312 39.5013 13.9132L24.4833 28.9312C23.3813 30.0332 21.9133 30.6412 20.3533 30.6412H12.8613C12.4573 30.6412 12.0693 30.4772 11.7873 30.1872C11.5053 29.8992 11.3513 29.5092 11.3613 29.1032L11.5493 21.5452C11.5873 20.0412 12.1933 18.6272 13.2573 17.5612H13.2593L28.2053 2.61516C30.6493 0.175156 34.6233 0.175156 37.0673 2.61516ZM26.9741 8.08716L15.3793 19.6832C14.8613 20.2012 14.5673 20.8892 14.5493 21.6192L14.3993 27.6412H20.3533C21.1133 27.6412 21.8253 27.3472 22.3633 26.8092L34.0281 15.1412L26.9741 8.08716ZM30.3253 4.73716L29.0941 5.96516L36.1481 13.0212L37.3813 11.7912C37.9973 11.1752 38.3373 10.3552 38.3373 9.48316C38.3373 8.60916 37.9973 7.78716 37.3813 7.17116L34.9473 4.73716C33.6733 3.46716 31.6013 3.46716 30.3253 4.73716Z" fill="black"/>
</svg>
