<svg width="127" height="77" viewBox="0 0 127 77" fill="none" xmlns="http://www.w3.org/2000/svg">
    <path d="M123.194 29.5948V25.1073C123.194 24.2516 122.898 23.4309 122.371 22.8258C121.844 22.2208 121.129 21.8808 120.384 21.8808H116.91C116.165 21.8808 115.45 21.5409 114.923 20.9358C114.396 20.3307 114.1 19.5101 114.1 18.6543V14.1669C114.1 13.3112 114.396 12.4905 114.923 11.8854C115.45 11.2803 116.165 10.9404 116.91 10.9404H117.223C117.969 10.9404 118.684 10.6005 119.211 9.9954C119.738 9.39032 120.034 8.56965 120.034 7.71393V3.22648C120.034 2.37076 119.738 1.5501 119.211 0.945015C118.684 0.339933 117.969 0 117.223 0H11.5294C11.1604 -3.23948e-07 10.7949 0.0834553 10.454 0.245601C10.113 0.407747 9.80321 0.645407 9.54224 0.945013C9.28128 1.24462 9.07427 1.60031 8.93304 1.99176C8.79181 2.38322 8.71912 2.80277 8.71912 3.22648V7.71393C8.71912 8.56965 9.01521 9.39032 9.54224 9.9954C10.0693 10.6005 10.7841 10.9404 11.5294 10.9404V10.9404C11.8985 10.9404 12.2639 11.0239 12.6049 11.186C12.9459 11.3482 13.2557 11.5858 13.5166 11.8854C13.7776 12.185 13.9846 12.5407 14.1258 12.9322C14.2671 13.3236 14.3398 13.7432 14.3398 14.1669V18.6543C14.3398 19.0781 14.2671 19.4976 14.1258 19.8891C13.9846 20.2805 13.7776 20.6362 13.5166 20.9358C13.2557 21.2354 12.9459 21.4731 12.6049 21.6352C12.2639 21.7974 11.8985 21.8808 11.5294 21.8808H2.81033C2.44127 21.8808 2.07583 21.9643 1.73486 22.1264C1.3939 22.2886 1.08409 22.5262 0.823126 22.8258C0.562163 23.1254 0.355156 23.4811 0.213924 23.8726C0.0726913 24.264 0 24.6836 0 25.1073V29.5948C0 30.0185 0.0726913 30.438 0.213924 30.8295C0.355156 31.2209 0.562163 31.5766 0.823126 31.8762C1.08409 32.1758 1.3939 32.4135 1.73486 32.5756C2.07583 32.7378 2.44127 32.8212 2.81033 32.8212H4.92602C5.29508 32.8212 5.66052 32.9047 6.00149 33.0668C6.34245 33.229 6.65226 33.4666 6.91322 33.7663C7.17419 34.0659 7.38119 34.4215 7.52242 34.813C7.66366 35.2045 7.73635 35.624 7.73635 36.0477V40.5352C7.73635 40.9589 7.66366 41.3785 7.52242 41.7699C7.38119 42.1614 7.17419 42.5171 6.91322 42.8167C6.65226 43.1163 6.34245 43.3539 6.00149 43.5161C5.66052 43.6782 5.29508 43.7617 4.92602 43.7617H4.91571C4.17036 43.7617 3.45555 44.1016 2.92851 44.7067C2.40147 45.3118 2.10538 46.1324 2.10538 46.9882V51.4756C2.10538 51.8993 2.17807 52.3189 2.31931 52.7103C2.46054 53.1018 2.66755 53.4574 2.92851 53.7571C3.18947 54.0567 3.49928 54.2943 3.84025 54.4565C4.18121 54.6186 4.54666 54.7021 4.91572 54.7021H5.53268C6.27802 54.7021 6.99284 55.042 7.51988 55.6471C8.04691 56.2522 8.343 57.0728 8.343 57.9286V62.416C8.343 63.2717 8.04691 64.0924 7.51988 64.6975C6.99284 65.3026 6.27802 65.6425 5.53268 65.6425H5.29106C4.922 65.6425 4.55656 65.726 4.21559 65.8881C3.87463 66.0502 3.56482 66.2879 3.30386 66.5875C3.0429 66.8871 2.83589 67.2428 2.69466 67.6343C2.55342 68.0257 2.48073 68.4453 2.48073 68.869V73.3564C2.48073 73.7801 2.55342 74.1997 2.69466 74.5912C2.83589 74.9826 3.0429 75.3383 3.30386 75.6379C3.56482 75.9375 3.87463 76.1752 4.21559 76.3373C4.55656 76.4995 4.922 76.5829 5.29106 76.5829H118.732C119.478 76.5829 120.192 76.243 120.719 75.6379C121.246 75.0328 121.543 74.2121 121.543 73.3564V68.869C121.543 68.0133 121.246 67.1926 120.719 66.5875C120.192 65.9824 119.478 65.6425 118.732 65.6425H116.296C115.55 65.6425 114.835 65.3026 114.308 64.6975C113.781 64.0924 113.485 63.2717 113.485 62.416V57.9286C113.485 57.0728 113.781 56.2522 114.308 55.6471C114.835 55.042 115.55 54.7021 116.296 54.7021H124.19C124.935 54.7021 125.65 54.3621 126.177 53.7571C126.704 53.152 127 52.3313 127 51.4756V46.9882C127 46.5644 126.927 46.1449 126.786 45.7534C126.645 45.362 126.438 45.0063 126.177 44.7067C125.916 44.4071 125.606 44.1694 125.265 44.0073C124.924 43.8451 124.559 43.7617 124.19 43.7617H120.298C119.929 43.7617 119.564 43.6782 119.223 43.5161C118.882 43.3539 118.572 43.1163 118.311 42.8167C118.05 42.5171 117.843 42.1614 117.702 41.7699C117.56 41.3785 117.488 40.9589 117.488 40.5352V36.0477C117.488 35.624 117.56 35.2045 117.702 34.813C117.843 34.4215 118.05 34.0659 118.311 33.7663C118.572 33.4666 118.882 33.229 119.223 33.0668C119.564 32.9047 119.929 32.8212 120.298 32.8212H120.384C121.129 32.8212 121.844 32.4813 122.371 31.8762C122.898 31.2711 123.194 30.4505 123.194 29.5948V29.5948Z" fill="#F5F5F5"/>
    <path d="M50.7812 38.5C51.0879 38.5 51.382 38.3782 51.5988 38.1613C51.8157 37.9445 51.9375 37.6504 51.9375 37.3437C51.9375 37.0371 51.8157 36.743 51.5988 36.5262C51.382 36.3093 51.0879 36.1875 50.7812 36.1875C50.4746 36.1875 50.1805 36.3093 49.9637 36.5262C49.7468 36.743 49.625 37.0371 49.625 37.3437C49.625 37.6504 49.7468 37.9445 49.9637 38.1613C50.1805 38.3782 50.4746 38.5 50.7812 38.5Z" fill="#999999"/>
    <path d="M56.5625 22.3125C55.3359 22.3125 54.1595 22.7998 53.2921 23.6671C52.4248 24.5345 51.9375 25.7109 51.9375 26.9375V31.5625H49.625C48.3984 31.5625 47.222 32.0498 46.3546 32.9171C45.4873 33.7845 45 34.9609 45 36.1875V43.125C45 44.3515 45.4873 45.528 46.3546 46.3953C47.222 47.2627 48.3984 47.75 49.625 47.75H51.9375V50.0625C51.9375 51.289 52.4248 52.4655 53.2921 53.3328C54.1595 54.2002 55.3359 54.6875 56.5625 54.6875H70.4375C71.664 54.6875 72.8405 54.2002 73.7078 53.3328C74.5752 52.4655 75.0625 51.289 75.0625 50.0625V47.75H77.375C78.6015 47.75 79.778 47.2627 80.6453 46.3953C81.5127 45.528 82 44.3515 82 43.125V36.1875C82 34.9609 81.5127 33.7845 80.6453 32.9171C79.778 32.0498 78.6015 31.5625 77.375 31.5625H75.0625V26.9375C75.0625 25.7109 74.5752 24.5345 73.7078 23.6671C72.8405 22.7998 71.664 22.3125 70.4375 22.3125H56.5625ZM54.25 26.9375C54.25 26.3242 54.4936 25.736 54.9273 25.3023C55.361 24.8686 55.9492 24.625 56.5625 24.625H70.4375C71.0508 24.625 71.6391 24.8686 72.0727 25.3023C72.5064 25.736 72.75 26.3242 72.75 26.9375V31.5625H54.25V26.9375ZM56.5625 38.5C55.3359 38.5 54.1595 38.9873 53.2921 39.8547C52.4248 40.722 51.9375 41.8984 51.9375 43.125V45.4375H49.625C49.0117 45.4375 48.4235 45.1939 47.9898 44.7602C47.5561 44.3266 47.3125 43.7383 47.3125 43.125V36.1875C47.3125 35.5742 47.5561 34.986 47.9898 34.5523C48.4235 34.1186 49.0117 33.875 49.625 33.875H77.375C77.9883 33.875 78.5766 34.1186 79.0102 34.5523C79.4439 34.986 79.6875 35.5742 79.6875 36.1875V43.125C79.6875 43.7383 79.4439 44.3266 79.0102 44.7602C78.5766 45.1939 77.9883 45.4375 77.375 45.4375H75.0625V43.125C75.0625 41.8984 74.5752 40.722 73.7078 39.8547C72.8405 38.9873 71.664 38.5 70.4375 38.5H56.5625ZM72.75 43.125V50.0625C72.75 50.6758 72.5064 51.2641 72.0727 51.6977C71.6391 52.1314 71.0508 52.375 70.4375 52.375H56.5625C55.9492 52.375 55.361 52.1314 54.9273 51.6977C54.4936 51.2641 54.25 50.6758 54.25 50.0625V43.125C54.25 42.5117 54.4936 41.9234 54.9273 41.4898C55.361 41.0561 55.9492 40.8125 56.5625 40.8125H70.4375C71.0508 40.8125 71.6391 41.0561 72.0727 41.4898C72.5064 41.9234 72.75 42.5117 72.75 43.125Z" fill="#999999"/>
</svg>
