<svg width="22" height="22" viewBox="0 0 22 22" fill="none" xmlns="http://www.w3.org/2000/svg">
<path d="M2.75 20.1667H19.25" stroke="white" stroke-width="1.375" stroke-linecap="round" stroke-linejoin="round"/>
<path d="M5.13331 7.68164H3.66667C3.1625 7.68164 2.75 8.09414 2.75 8.59831V16.5C2.75 17.0041 3.1625 17.4166 3.66667 17.4166H5.13331C5.63748 17.4166 6.04998 17.0041 6.04998 16.5V8.59831C6.04998 8.09414 5.63748 7.68164 5.13331 7.68164Z" stroke="white" stroke-width="1.375" stroke-linecap="round" stroke-linejoin="round"/>
<path d="M11.7332 4.75739H10.2665C9.76235 4.75739 9.34985 5.16989 9.34985 5.67405V16.4999C9.34985 17.004 9.76235 17.4165 10.2665 17.4165H11.7332C12.2373 17.4165 12.6498 17.004 12.6498 16.4999V5.67405C12.6498 5.16989 12.2373 4.75739 11.7332 4.75739Z" stroke="white" stroke-width="1.375" stroke-linecap="round" stroke-linejoin="round"/>
<path d="M18.3333 1.83325H16.8666C16.3625 1.83325 15.95 2.24575 15.95 2.74992V16.4999C15.95 17.0041 16.3625 17.4166 16.8666 17.4166H18.3333C18.8374 17.4166 19.2499 17.0041 19.2499 16.4999V2.74992C19.2499 2.24575 18.8374 1.83325 18.3333 1.83325Z" stroke="white" stroke-width="1.375" stroke-linecap="round" stroke-linejoin="round"/>
</svg>
