<svg width="22" height="22" viewBox="0 0 22 22" fill="none" xmlns="http://www.w3.org/2000/svg">
<path d="M11.0002 20.1663C16.0418 20.1663 20.1668 16.0413 20.1668 10.9997C20.1668 5.95801 16.0418 1.83301 11.0002 1.83301C5.9585 1.83301 1.8335 5.95801 1.8335 10.9997C1.8335 16.0413 5.9585 20.1663 11.0002 20.1663Z" stroke="black" stroke-width="1.5" stroke-linecap="round" stroke-linejoin="round"/>
<path d="M8.58301 8.60286C8.77101 8.06844 9.14208 7.61779 9.6305 7.33074C10.1189 7.04369 10.6932 6.93876 11.2516 7.03453C11.8099 7.13031 12.3164 7.42061 12.6812 7.85402C13.0461 8.28743 13.2458 8.83598 13.2449 9.40251C13.2449 11.0018 10.846 11.8014 10.846 11.8014" stroke="black" stroke-width="1.5" stroke-linecap="round" stroke-linejoin="round"/>
<path d="M10.9102 15H10.9192" stroke="black" stroke-width="1.5" stroke-linecap="round" stroke-linejoin="round"/>
</svg>
