<svg xmlns="http://www.w3.org/2000/svg" viewBox="0 0 1440 320"><path fill="#519D51" fill-opacity="1" d="M0,224L24,208C48,192,96,160,144,149.3C192,139,240,149,288,165.3C336,181,384,203,432,224C480,245,528,267,576,250.7C624,235,672,181,720,186.7C768,192,816,256,864,234.7C912,213,960,107,1008,90.7C1056,75,1104,149,1152,176C1200,203,1248,181,1296,181.3C1344,181,1392,203,1416,213.3L1440,224L1440,320L1416,320C1392,320,1344,320,1296,320C1248,320,1200,320,1152,320C1104,320,1056,320,1008,320C960,320,912,320,864,320C816,320,768,320,720,320C672,320,624,320,576,320C528,320,480,320,432,320C384,320,336,320,288,320C240,320,192,320,144,320C96,320,48,320,24,320L0,320Z"></path></svg>