<svg width="697" height="453" viewBox="0 0 697 453" fill="none" xmlns="http://www.w3.org/2000/svg">
<path d="M44.6495 401.767L44.0403 401.385H43.8186C29.9971 391.958 18.923 379.025 11.7346 363.908C4.43919 348.565 1.41588 331.539 2.9829 314.623C5.83802 286.143 22.0698 260.717 38.0599 235.668C38.7252 234.626 39.3901 233.585 40.0536 232.543C46.3536 222.842 52.6088 213.116 58.8613 203.395C85.4701 162.024 112.03 120.729 141.789 81.6761C152.593 67.6452 164.018 53.8307 179.523 46.643C190.938 41.8616 203.293 39.7442 215.649 40.4517L215.73 40.4563L215.811 40.4557C233.989 40.3163 251.847 45.2329 267.392 54.6558C283.874 65.6022 295.195 82.6701 306.377 99.824C306.377 99.8242 306.377 99.8243 306.377 99.8244L361.778 184.851L361.779 184.852L402.816 247.772L402.817 247.773C404.545 250.42 406.29 253.027 408.022 255.613C418.016 270.543 427.563 284.806 431.008 302.291C437.553 335.542 425.662 372.391 399.233 394.144C382.325 407.211 361.539 414.26 340.17 414.173C318.799 414.086 298.068 406.867 281.266 393.66C267.865 382.579 256.695 368.432 246.02 353.48C242.76 348.914 239.537 344.258 236.31 339.597C229.033 329.085 221.736 318.543 213.942 308.926L211.834 306.325L209.939 309.085C204.083 317.615 198.991 326.524 194.124 335.363C192.938 337.516 191.767 339.662 190.602 341.797C186.967 348.461 183.388 355.02 179.591 361.369C169.586 378.098 158.275 392.987 141.301 403.258C126.594 411.862 109.812 416.272 92.7759 416.011C75.7336 415.75 59.0888 410.824 44.6495 401.767Z" fill="white" stroke="#418A41" stroke-width="5"/>
<path d="M388.975 55.5608C431.713 27.2406 489.323 38.936 517.651 81.6849L641.627 268.776C669.954 311.525 658.271 369.137 615.533 397.458C572.796 425.778 515.186 414.082 486.858 371.334L362.882 184.242C334.554 141.493 346.238 83.8809 388.975 55.5608Z" fill="white" stroke="#418A41" stroke-width="5"/>
<path d="M388.188 54.8066C431.176 26.4506 489.012 38.3121 517.368 81.2999C545.724 124.288 533.863 182.123 490.875 210.479C447.887 238.835 390.051 226.974 361.695 183.986C333.339 140.998 345.201 83.1627 388.188 54.8066Z" fill="white" stroke="#418A41" stroke-width="5"/>
<mask id="path-4-inside-1_3196_8407" fill="white">
<path d="M217.675 309.281L217.272 309.997C219.644 313.174 221.748 316.307 224.03 319.305L217.675 309.281Z"/>
</mask>
<path d="M217.675 309.281L217.272 309.997C219.644 313.174 221.748 316.307 224.03 319.305L217.675 309.281Z" fill="white"/>
<path d="M217.675 309.281L221.898 306.604L217.419 299.538L213.318 306.829L217.675 309.281ZM217.272 309.997L212.915 307.545L211.32 310.381L213.266 312.988L217.272 309.997ZM224.03 319.305L220.051 322.333L228.253 316.628L224.03 319.305ZM213.318 306.829L212.915 307.545L221.63 312.448L222.033 311.732L213.318 306.829ZM213.266 312.988C214.411 314.522 215.494 316.049 216.612 317.619C217.718 319.171 218.856 320.763 220.051 322.333L228.008 316.277C226.921 314.848 225.867 313.375 224.757 311.817C223.66 310.277 222.506 308.649 221.279 307.006L213.266 312.988ZM228.253 316.628L221.898 306.604L213.452 311.958L219.807 321.982L228.253 316.628Z" fill="#418A41" mask="url(#path-4-inside-1_3196_8407)"/>
<mask id="path-6-inside-2_3196_8407" fill="white">
<path d="M224.026 319.303L246.402 354.12C239.537 342.143 232.069 330.523 224.026 319.303Z"/>
</mask>
<path d="M224.026 319.303L246.402 354.12C239.537 342.143 232.069 330.523 224.026 319.303Z" fill="white"/>
<path d="M246.402 354.12L242.196 356.823L250.74 351.633L246.402 354.12ZM219.82 322.006L242.196 356.823L250.608 351.416L228.233 316.6L219.82 322.006ZM250.74 351.633C243.791 339.51 236.231 327.747 228.09 316.39L219.963 322.216C227.907 333.298 235.283 344.776 242.064 356.606L250.74 351.633Z" fill="#418A41" mask="url(#path-6-inside-2_3196_8407)"/>
<path d="M140.124 240.472L140.243 240.541L140.368 240.596L140.985 240.866C169.729 256.544 195.619 285.195 214.312 310.127L213.807 311.069L183.912 358.928L183.907 358.936C161.516 395.089 134.765 416.331 95.9928 416.331C68.9187 416.331 45.819 406.799 29.371 390.432C12.9244 374.067 2.98686 350.727 2.50164 322.856C2.43186 311.323 4.59013 299.886 8.85793 289.173L8.88912 289.094L8.91496 289.014C12.6386 277.457 18.8935 266.877 27.2239 258.043C35.5542 249.209 45.7503 242.345 57.0692 237.951L57.1398 237.923L57.2086 237.892C69.3741 232.299 82.6044 229.4 95.994 229.394L96.03 229.394L96.0659 229.393C111.494 228.941 126.745 232.777 140.124 240.472Z" fill="white" stroke="#418A41" stroke-width="5"/>
</svg>
