<svg width="712" height="462" viewBox="0 0 712 462" fill="none" xmlns="http://www.w3.org/2000/svg">
<path d="M43.9858 412.637H44.2601C59.4077 422.137 76.869 427.305 94.7473 427.579C112.626 427.853 130.237 423.223 145.669 414.191C181.422 392.565 198.568 350.914 222.205 316.486C245.066 344.696 257.822 381.09 285.757 404.178C303.375 418.035 325.117 425.61 347.531 425.701C369.945 425.792 391.747 418.394 409.477 404.681C437.276 381.821 449.712 343.187 442.854 308.348C438.601 286.768 425.48 269.805 413.684 251.746L371.758 187.462L315.155 100.593C303.771 83.1274 291.929 65.2048 274.555 53.6832C258.258 43.7928 239.531 38.6321 220.468 38.7782C207.441 38.0323 194.415 40.2683 182.382 45.3163C165.877 52.9517 153.853 67.5823 142.834 81.8929C105.206 131.271 72.5612 184.17 38.7736 236.2C21.9027 262.673 3.61435 290.151 0.505344 321.195C-1.14004 338.939 2.0303 356.797 9.68239 372.89C17.3345 388.983 29.185 402.714 43.9858 412.637Z" fill="#418A41"/>
<path d="M530.997 82.0439C501.276 37.1934 440.833 24.9222 395.993 54.6355C351.153 84.3489 338.896 144.795 368.616 189.645L495.278 380.791C524.999 425.641 585.442 437.912 630.282 408.199C675.122 378.486 687.379 318.04 657.659 273.189L530.997 82.0439Z" fill="#ED7F23"/>
<path d="M530.711 81.6551C500.964 36.5583 440.291 24.1149 395.194 53.8621C350.097 83.6093 337.654 144.282 367.401 189.379C397.148 234.476 457.821 246.919 502.918 217.172C548.015 187.425 560.458 126.752 530.711 81.6551Z" fill="#FDCD0F"/>
<path d="M222.392 315.982L221.98 316.714C224.404 319.96 226.553 323.161 228.884 326.224L222.392 315.982Z" fill="#3E519D"/>
<path d="M228.881 326.222L251.741 361.793C244.728 349.557 237.098 337.684 228.881 326.222V326.222Z" fill="#3E519D"/>
<path d="M221.976 316.622C202.728 290.744 175.569 260.34 145.165 243.789L144.434 243.469C130.355 235.371 114.307 231.335 98.0728 231.81C84.0252 231.817 70.1447 234.858 57.3814 240.726C45.4631 245.353 34.727 252.581 25.9555 261.882C17.184 271.183 10.5979 282.324 6.67703 294.493C2.19324 305.749 -0.0733744 317.765 0.00181092 329.881C1.00767 388.038 41.5163 427.907 98.0728 427.907C138.901 427.907 166.928 405.412 190.063 368.058L220.65 319.091L221.976 316.622Z" fill="#3E519D"/>
</svg>
