<svg width="586" height="468" viewBox="0 0 586 468" fill="none" xmlns="http://www.w3.org/2000/svg">
<circle cx="180.5" cy="180.5" r="180.5" fill="#FF5D5D"/>
<circle cx="235.5" cy="361.5" r="106.5" fill="#4ADB61"/>
<circle cx="401.5" cy="283.5" r="184.5" fill="#4C40F7"/>
<path d="M253.444 161.578V327.776C253.446 334.239 251.96 340.64 249.072 346.612C246.184 352.584 241.95 358.011 236.611 362.582C231.273 367.153 224.935 370.779 217.959 373.253C210.984 375.727 203.507 377 195.957 377H191.429C190.063 377.005 188.709 376.779 187.445 376.336C186.181 375.892 185.031 375.239 184.063 374.415C183.094 373.59 182.325 372.61 181.799 371.531C181.274 370.451 181.002 369.293 181 368.124V190.04C180.985 182.257 183.331 174.605 187.807 167.831C188.29 167.094 188.788 166.371 189.316 165.673C189.347 165.621 189.388 165.573 189.437 165.531C189.894 165.039 190.399 164.581 190.946 164.161L204.137 153.671C206.523 151.755 209.198 150.121 212.09 148.813V148.813C216.417 147.151 220.986 145.995 225.674 145.376H225.855C233.137 144.805 240.453 146.096 246.878 149.084C248.937 150.655 250.585 152.579 251.717 154.732C252.848 156.884 253.436 159.217 253.444 161.578V161.578Z" fill="white"/>
<path d="M334.542 166.641V328.932C334.54 335.244 336.071 341.494 339.049 347.325C342.027 353.157 346.392 358.456 351.896 362.919C357.399 367.383 363.934 370.924 371.125 373.339C378.317 375.755 386.025 376.999 393.81 376.999H398.478C399.886 377.003 401.282 376.783 402.585 376.35C403.888 375.917 405.073 375.279 406.072 374.474C407.071 373.669 407.864 372.712 408.406 371.658C408.947 370.604 409.227 369.473 409.229 368.331V194.434C409.245 186.835 406.827 179.362 402.212 172.748C401.714 172.028 401.201 171.322 400.656 170.641C400.624 170.589 400.582 170.543 400.531 170.502C400.06 170.022 399.539 169.574 398.975 169.165L385.376 158.921C382.916 157.05 380.158 155.455 377.176 154.177V154.177C372.715 152.554 368.005 151.425 363.172 150.821H362.985C355.478 150.264 347.935 151.524 341.311 154.442C339.188 155.976 337.489 157.855 336.323 159.957C335.156 162.059 334.55 164.337 334.542 166.641V166.641Z" fill="white"/>
<mask id="mask0_3961_14407" style="mask-type:alpha" maskUnits="userSpaceOnUse" x="341" y="145" width="61" height="225">
<path d="M401.757 188.717V361.388C401.757 363.668 400.852 365.855 399.24 367.469C397.629 369.082 395.443 369.99 393.163 369.994H389.405C376.747 369.994 364.607 364.965 355.657 356.015C346.706 347.064 341.678 334.924 341.678 322.266V161.121C341.678 158.836 342.158 156.577 343.088 154.49C344.018 152.403 345.377 150.535 347.077 149.007C352.414 146.094 358.496 144.83 364.552 145.375H364.702C368.571 145.98 372.342 147.1 375.914 148.707V148.707C378.332 149.972 380.569 151.556 382.565 153.417L393.501 163.589C393.932 163.973 394.33 164.392 394.691 164.841C394.691 164.841 394.691 164.841 394.691 164.841C395.18 165.605 395.656 166.395 396.107 167.209C399.817 173.77 401.763 181.18 401.757 188.717Z" fill="#BCBEC0"/>
</mask>
<g mask="url(#mask0_3961_14407)">
<path d="M371.705 115.177L340.275 115.127L340.626 177.648L371.705 115.177Z" fill="#3F8540"/>
<path d="M371.595 115.342V177.814H340.516L371.595 115.342Z" fill="#FAFBF9"/>
<path d="M340.86 177.812H371.588V240.334L340.86 177.812Z" fill="#1B5E99"/>
<path d="M341.524 177.925L340.823 240.447H372.265L341.524 177.925Z" fill="#EBCA52"/>
<path d="M371.705 240.446L340.275 240.396L340.626 302.917L371.705 240.446Z" fill="#3F8540"/>
<path d="M371.595 240.608V303.079H340.516L371.595 240.608Z" fill="#FAFBF9"/>
<path d="M340.86 303.081H371.588V365.602L340.86 303.081Z" fill="#1B5E99"/>
<path d="M341.524 303.194L340.823 365.716H372.265L341.524 303.194Z" fill="#EBCA52"/>
<path d="M371.705 365.714L340.275 365.664L340.626 428.185L371.705 365.714Z" fill="#3F8540"/>
<path d="M371.595 365.877V428.349H340.516L371.595 365.877Z" fill="#FAFBF9"/>
<path d="M402.331 428.35H371.59V365.828L402.331 428.35Z" fill="#1B5E99"/>
<path d="M402.912 428.237L403.613 365.715H372.184L402.912 428.237Z" fill="#EBCA52"/>
<path d="M371.478 365.715L402.908 365.765L402.557 303.243L371.478 365.715Z" fill="#3F8540"/>
<path d="M371.59 365.552V303.081H402.682L371.59 365.552Z" fill="#FAFBF9"/>
<path d="M402.331 303.08H371.59V240.558L402.331 303.08Z" fill="#1B5E99"/>
<path d="M402.912 302.968L403.613 240.447H372.184L402.912 302.968Z" fill="#EBCA52"/>
<path d="M371.478 240.446L402.908 240.496L402.557 177.975L371.478 240.446Z" fill="#3F8540"/>
<path d="M371.59 240.284V177.812H402.682L371.59 240.284Z" fill="#FAFBF9"/>
<path d="M402.331 177.813H371.59V115.291L402.331 177.813Z" fill="#1B5E99"/>
<path d="M402.912 177.701L403.613 115.18H372.184L402.912 177.701Z" fill="#EBCA52"/>
</g>
<mask id="mask1_3961_14407" style="mask-type:alpha" maskUnits="userSpaceOnUse" x="187" y="145" width="61" height="225">
<path d="M247.574 161.12V322.265C247.575 328.532 246.342 334.738 243.945 340.529C241.548 346.319 238.034 351.581 233.603 356.013C229.172 360.445 223.911 363.961 218.122 366.359C212.332 368.758 206.126 369.993 199.859 369.993H196.101C194.967 369.998 193.843 369.779 192.794 369.349C191.745 368.919 190.791 368.286 189.987 367.486C189.183 366.687 188.544 365.736 188.108 364.69C187.672 363.643 187.447 362.521 187.445 361.387V188.717C187.433 181.171 189.379 173.751 193.094 167.183C193.495 166.469 193.909 165.767 194.347 165.091C194.373 165.04 194.407 164.994 194.447 164.953C194.827 164.476 195.246 164.032 195.7 163.625L206.649 153.454C208.629 151.596 210.85 150.012 213.25 148.743V148.743C216.842 147.132 220.634 146.011 224.524 145.411H224.675C230.719 144.858 236.791 146.109 242.125 149.007C243.833 150.529 245.201 152.395 246.14 154.482C247.079 156.57 247.568 158.831 247.574 161.12V161.12Z" fill="#58595B"/>
</mask>
<g mask="url(#mask1_3961_14407)">
<path d="M218.762 38.7676H187.445V489.734H218.762V38.7676Z" fill="#00A651"/>
<path d="M247.569 38.7646H216.251V489.731H247.569V38.7646Z" fill="#ED1C24"/>
<path d="M226.803 123.521C220.205 128.982 214.396 135.331 209.541 142.387C207.363 145.572 205.65 149.052 204.455 152.721C203.338 156.122 202.941 159.719 203.29 163.281C203.628 166.651 205.019 169.858 207.148 171.386C207.697 171.778 208.295 172.094 208.927 172.326C209.29 172.414 209.616 172.551 210.004 172.614L210.593 172.727C210.781 172.727 210.957 172.727 211.144 172.727C212.849 172.844 214.56 172.587 216.155 171.975C219.681 170.728 222.639 168.251 224.486 164.998C225.328 163.431 225.628 161.629 225.337 159.874C224.886 157.862 223.72 156.081 222.055 154.863C224.449 155.44 226.524 156.927 227.839 159.009C229.153 161.091 229.604 163.603 229.095 166.012C228.609 168.434 227.523 170.695 225.939 172.589C224.253 174.653 222.17 176.357 219.813 177.6C217.118 179.068 214.112 179.871 211.044 179.942C209.407 179.988 207.771 179.807 206.184 179.404C204.585 178.984 203.054 178.338 201.637 177.487C199.144 175.919 197.126 173.702 195.799 171.073C194.702 168.873 193.994 166.5 193.707 164.058C193.471 161.734 193.529 159.39 193.882 157.081C194.256 154.797 194.882 152.562 195.749 150.416C197.538 146.123 200.084 142.185 203.265 138.791C209.716 131.82 217.807 126.571 226.803 123.521V123.521Z" fill="#FFF200"/>
<path d="M210.342 176.759C209.285 176.742 208.234 176.603 207.21 176.346C206.022 176.04 204.886 175.559 203.84 174.918C201.897 173.688 200.322 171.957 199.28 169.907C198.306 167.962 197.691 165.857 197.464 163.694C197.272 161.627 197.331 159.545 197.639 157.493C197.977 155.436 198.544 153.423 199.33 151.493C200.863 147.813 203.016 144.423 205.694 141.471C203.561 144.712 201.876 148.226 200.683 151.919C199.45 155.692 199.023 159.682 199.431 163.631C199.882 168.028 201.811 171.886 204.617 173.903C205.439 174.505 206.341 174.99 207.298 175.344C207.496 175.425 207.701 175.488 207.911 175.532H208.037C208.411 175.662 208.797 175.759 209.189 175.82L209.69 175.933C210.03 175.994 210.373 176.031 210.717 176.045C211.106 176.045 211.494 176.045 211.907 176.045C213.632 176.032 215.344 175.748 216.981 175.206C215.08 176.138 212.997 176.643 210.88 176.684H210.317L210.342 176.759Z" fill="#ED1C24"/>
<path d="M211.307 203.254C217.908 197.798 223.722 191.453 228.581 184.401C230.75 181.21 232.461 177.731 233.667 174.066C234.786 170.661 235.182 167.061 234.832 163.494C234.481 160.124 233.104 156.917 230.961 155.389C230.418 154.99 229.818 154.674 229.183 154.449C228.832 154.362 228.506 154.224 228.105 154.161L227.529 154.061C227.341 154.061 227.153 154.061 226.965 154.061C225.281 153.952 223.593 154.208 222.017 154.813C218.525 156.059 215.594 158.511 213.75 161.727C212.907 163.299 212.607 165.104 212.898 166.863C213.347 168.877 214.513 170.658 216.18 171.874C213.785 171.304 211.709 169.819 210.393 167.739C209.078 165.658 208.628 163.146 209.14 160.738C209.629 158.313 210.713 156.049 212.296 154.149C213.983 152.091 216.061 150.387 218.41 149.138C221.104 147.67 224.111 146.867 227.178 146.795C228.816 146.75 230.451 146.931 232.039 147.334C233.638 147.754 235.169 148.399 236.586 149.251C239.076 150.822 241.093 153.038 242.423 155.664C243.529 157.9 244.233 160.313 244.503 162.792C244.724 165.113 244.657 167.453 244.303 169.757C243.93 172.042 243.3 174.278 242.423 176.421C240.64 180.714 238.093 184.648 234.907 188.034C228.441 195.006 220.325 200.239 211.307 203.254V203.254Z" fill="#FFF200"/>
<path d="M232.405 185.34C234.543 182.102 236.229 178.587 237.416 174.893C238.649 171.119 239.075 167.129 238.668 163.18C238.217 158.783 236.276 154.925 233.482 152.908C232.653 152.306 231.747 151.818 230.789 151.455C230.599 151.378 230.402 151.319 230.2 151.279H230.062C229.687 151.15 229.301 151.049 228.91 150.979L228.409 150.879C228.069 150.818 227.726 150.78 227.382 150.766V150.766C226.993 150.766 226.592 150.766 226.192 150.766C224.467 150.78 222.755 151.063 221.118 151.605C223.02 150.674 225.101 150.165 227.219 150.115H227.77C228.83 150.138 229.884 150.277 230.914 150.528C232.098 150.845 233.233 151.326 234.284 151.956C236.201 153.188 237.761 154.903 238.806 156.929C239.761 158.857 240.364 160.94 240.585 163.08C240.788 165.145 240.733 167.228 240.422 169.281C240.106 171.334 239.564 173.347 238.806 175.281C237.262 178.975 235.097 182.377 232.405 185.34V185.34Z" fill="#00A651"/>
<path d="M225.006 165.46C227.202 160.851 226.467 155.915 223.363 154.436C220.259 152.957 215.962 155.494 213.765 160.103C211.569 164.713 212.304 169.648 215.408 171.127C218.512 172.607 222.809 170.069 225.006 165.46Z" fill="#FFF200"/>
<path d="M214.023 165.31C215.351 165.999 216.252 166.675 217.104 167.026C217.501 167.197 217.925 167.299 218.357 167.326C219.009 167.357 219.663 167.332 220.311 167.251C220.173 167.59 219.963 167.895 219.694 168.144C219.426 168.393 219.106 168.58 218.758 168.692C217.924 169.017 216.999 169.017 216.165 168.692C215.471 168.39 214.882 167.888 214.474 167.251C214.089 166.682 213.928 165.99 214.023 165.31Z" fill="#00A651"/>
<path d="M223.519 161.064C222.191 160.375 221.264 159.736 220.437 159.347C220.041 159.17 219.617 159.064 219.185 159.034C218.539 159.029 217.894 159.07 217.255 159.16C217.382 158.816 217.582 158.505 217.842 158.248C218.101 157.99 218.414 157.793 218.759 157.669C219.607 157.374 220.534 157.401 221.364 157.744C222.056 158.045 222.64 158.547 223.043 159.185C223.423 159.733 223.592 160.4 223.519 161.064Z" fill="#ED1C24"/>
<path d="M227.533 194.16C220.915 199.615 215.088 205.964 210.22 213.025C208.073 216.213 206.386 219.688 205.21 223.347C204.086 226.751 203.689 230.353 204.045 233.92C204.383 237.29 205.773 240.497 207.903 242.012C208.45 242.408 209.049 242.728 209.682 242.964C210.045 243.039 210.371 243.177 210.759 243.24L211.335 243.365C211.523 243.377 211.711 243.377 211.899 243.365C213.604 243.482 215.314 243.225 216.91 242.614C220.431 241.364 223.386 238.892 225.24 235.649C226.079 234.081 226.374 232.279 226.079 230.525C225.633 228.514 224.471 226.733 222.81 225.514C225.21 226.125 227.288 227.625 228.622 229.711C229.883 231.794 230.329 234.271 229.875 236.663C229.379 239.081 228.295 241.34 226.718 243.24C225.03 245.301 222.947 247.004 220.593 248.251C217.898 249.719 214.892 250.522 211.824 250.593C210.187 250.638 208.552 250.461 206.963 250.067C205.361 249.641 203.826 248.991 202.404 248.138C199.92 246.569 197.907 244.357 196.579 241.737C195.464 239.499 194.755 237.082 194.487 234.596C194.261 232.272 194.324 229.928 194.675 227.619C195.043 225.334 195.669 223.098 196.541 220.955C198.333 216.666 200.878 212.733 204.057 209.342C210.495 202.404 218.565 197.186 227.533 194.16V194.16Z" fill="#FFF200"/>
<path d="M211.03 247.425C209.974 247.408 208.923 247.269 207.899 247.012C206.711 246.692 205.573 246.212 204.516 245.583C202.585 244.34 201.013 242.612 199.957 240.573C199.009 238.638 198.407 236.552 198.178 234.41C197.974 232.323 198.033 230.218 198.353 228.146C198.689 226.09 199.252 224.078 200.032 222.146C201.568 218.465 203.725 215.075 206.408 212.124C204.268 215.357 202.582 218.868 201.397 222.559C200.164 226.332 199.737 230.323 200.145 234.272C200.583 238.681 202.525 242.527 205.331 244.556C206.154 245.156 207.056 245.641 208.011 245.997C208.212 246.073 208.417 246.135 208.625 246.185H208.75C209.129 246.303 209.513 246.4 209.903 246.473L210.404 246.573C210.738 246.64 211.078 246.678 211.419 246.686C211.807 246.686 212.208 246.686 212.609 246.686C214.333 246.672 216.045 246.389 217.682 245.847C215.788 246.81 213.706 247.349 211.582 247.425H211.03Z" fill="#ED1C24"/>
<path d="M211.999 273.893C218.601 268.433 224.414 262.084 229.274 255.028C231.421 251.835 233.108 248.356 234.285 244.693C235.408 241.293 235.805 237.696 235.45 234.133C235.111 230.763 233.721 227.556 231.591 226.041C231.044 225.645 230.446 225.325 229.813 225.089C229.449 225.001 229.124 224.863 228.735 224.8L228.159 224.688C227.959 224.688 227.783 224.688 227.595 224.688C225.889 224.57 224.178 224.831 222.585 225.452C219.107 226.715 216.194 229.175 214.367 232.392C213.528 233.96 213.232 235.762 213.528 237.515C213.974 239.527 215.136 241.308 216.797 242.526C214.406 241.947 212.334 240.459 211.022 238.377C209.71 236.295 209.261 233.784 209.77 231.377C210.254 228.957 211.335 226.697 212.914 224.8C214.602 222.74 216.685 221.036 219.039 219.79C221.734 218.322 224.74 217.519 227.808 217.447C229.445 217.407 231.08 217.588 232.669 217.986C234.279 218.389 235.823 219.022 237.254 219.865C239.737 221.434 241.75 223.646 243.079 226.266C244.193 228.503 244.902 230.921 245.17 233.406C245.397 235.731 245.334 238.075 244.983 240.384C244.614 242.665 243.988 244.896 243.116 247.036C241.327 251.329 238.781 255.267 235.6 258.661C229.132 265.633 221.017 270.87 211.999 273.893Z" fill="#FFF200"/>
<path d="M233.084 255.968C235.221 252.734 236.907 249.223 238.094 245.533C239.32 241.758 239.746 237.769 239.347 233.82C238.896 229.411 236.954 225.565 234.148 223.536C233.325 222.936 232.423 222.451 231.468 222.095C231.272 222.019 231.071 221.956 230.866 221.907H230.741C230.364 221.784 229.979 221.688 229.589 221.619L229.088 221.519C228.749 221.45 228.405 221.408 228.06 221.394C227.672 221.394 227.271 221.394 226.87 221.394C225.146 221.407 223.434 221.69 221.797 222.233C223.698 221.3 225.78 220.795 227.897 220.755H228.449C229.505 220.772 230.556 220.911 231.58 221.168C232.77 221.48 233.909 221.961 234.963 222.596C236.897 223.836 238.469 225.565 239.522 227.607C240.471 229.525 241.077 231.593 241.314 233.72C241.517 235.807 241.458 237.911 241.138 239.983C240.805 242.04 240.242 244.053 239.46 245.984C237.916 249.649 235.76 253.025 233.084 255.968V255.968Z" fill="#00A651"/>
<path d="M225.006 236.852C227.202 232.243 226.467 227.307 223.363 225.828C220.259 224.349 215.962 226.886 213.765 231.495C211.569 236.105 212.304 241.04 215.408 242.519C218.512 243.999 222.809 241.461 225.006 236.852Z" fill="#FFF200"/>
<path d="M214.719 235.937C216.047 236.626 216.936 237.302 217.788 237.653C218.184 237.829 218.608 237.935 219.041 237.966C219.686 237.972 220.331 237.93 220.97 237.841C220.833 238.187 220.624 238.499 220.356 238.756C220.088 239.013 219.767 239.21 219.416 239.332C218.568 239.626 217.641 239.6 216.811 239.257C216.12 238.956 215.535 238.454 215.132 237.816C214.772 237.26 214.625 236.593 214.719 235.937Z" fill="#00A651"/>
<path d="M224.214 231.691C222.886 231.002 221.984 230.325 221.133 229.987C220.738 229.806 220.313 229.699 219.88 229.674C219.235 229.663 218.59 229.701 217.951 229.787C218.084 229.441 218.293 229.129 218.561 228.873C218.83 228.617 219.152 228.425 219.504 228.309C220.346 228.004 221.271 228.026 222.097 228.371C222.784 228.679 223.367 229.179 223.776 229.812C224.141 230.366 224.297 231.032 224.214 231.691V231.691Z" fill="#ED1C24"/>
<path d="M225.661 266.59C219.06 272.047 213.25 278.396 208.399 285.455C206.221 288.636 204.508 292.112 203.313 295.777C202.19 299.181 201.793 302.783 202.148 306.35C202.486 309.72 203.877 312.926 206.006 314.442C206.554 314.838 207.152 315.158 207.785 315.394C208.148 315.469 208.474 315.62 208.862 315.67L209.438 315.795C209.639 315.795 209.814 315.795 210.002 315.795C211.708 315.908 213.418 315.647 215.013 315.031C218.536 313.785 221.493 311.313 223.343 308.066C224.186 306.499 224.486 304.698 224.195 302.943C223.738 300.932 222.573 299.154 220.913 297.932C223.307 298.508 225.382 299.995 226.696 302.077C228.011 304.159 228.462 306.672 227.953 309.081C227.457 311.499 226.373 313.758 224.796 315.657C223.108 317.718 221.025 319.421 218.671 320.668C215.975 322.132 212.969 322.93 209.902 322.998C208.25 323.091 206.593 322.952 204.979 322.585C203.379 322.161 201.848 321.511 200.432 320.656C197.944 319.088 195.926 316.876 194.594 314.254C193.462 312.02 192.737 309.602 192.452 307.114C192.226 304.789 192.289 302.446 192.64 300.137C193.01 297.852 193.636 295.617 194.506 293.472C196.298 289.184 198.844 285.251 202.023 281.86C208.498 274.87 216.627 269.619 225.661 266.59V266.59Z" fill="#FFF200"/>
<path d="M209.2 319.829C208.144 319.812 207.093 319.673 206.069 319.416C204.881 319.096 203.743 318.616 202.686 317.988C200.752 316.748 199.179 315.019 198.127 312.977C197.179 311.042 196.577 308.956 196.348 306.814C196.144 304.727 196.203 302.623 196.523 300.55C196.859 298.493 197.426 296.48 198.214 294.55C199.741 290.867 201.894 287.477 204.578 284.529C202.443 287.764 200.757 291.274 199.567 294.963C198.334 298.737 197.907 302.727 198.314 306.676C198.753 311.085 200.695 314.931 203.501 316.961C204.324 317.561 205.226 318.045 206.181 318.401C206.382 318.477 206.587 318.54 206.795 318.589H206.92C207.297 318.714 207.682 318.81 208.073 318.877L208.574 318.977C208.913 319.041 209.256 319.083 209.601 319.103V319.103C209.989 319.103 210.39 319.103 210.854 319.103C212.557 319.083 214.248 318.8 215.865 318.263C213.962 319.192 211.881 319.697 209.764 319.742H209.213L209.2 319.829Z" fill="#ED1C24"/>
<path d="M210.168 346.387C216.77 340.926 222.583 334.577 227.443 327.521C229.59 324.333 231.277 320.858 232.454 317.199C233.582 313.796 233.979 310.194 233.619 306.627C233.28 303.257 231.89 300.05 229.76 298.534C229.213 298.138 228.614 297.818 227.981 297.582C227.631 297.507 227.305 297.357 226.904 297.307L226.328 297.181C226.14 297.181 225.952 297.181 225.764 297.181C224.079 297.077 222.391 297.337 220.816 297.945C217.315 299.164 214.364 301.594 212.498 304.798C211.659 306.365 211.364 308.167 211.659 309.921C212.105 311.933 213.267 313.714 214.928 314.932C212.529 314.321 210.451 312.821 209.116 310.735C207.855 308.652 207.409 306.176 207.863 303.783C208.348 301.363 209.429 299.103 211.008 297.206C212.696 295.146 214.779 293.442 217.133 292.196C219.828 290.728 222.834 289.924 225.902 289.853C229.22 289.744 232.497 290.615 235.322 292.358C237.852 293.877 239.922 296.055 241.31 298.659C242.425 300.897 243.133 303.315 243.402 305.8C243.626 308.124 243.568 310.467 243.227 312.777C242.846 315.061 242.216 317.296 241.348 319.442C239.561 323.733 237.015 327.666 233.831 331.054C227.36 338.076 219.221 343.35 210.168 346.387V346.387Z" fill="#FFF200"/>
<path d="M231.288 328.398C233.428 325.166 235.114 321.654 236.299 317.963C237.524 314.205 237.951 310.233 237.552 306.301C237.101 301.891 235.159 298.046 232.353 296.016C231.529 295.416 230.627 294.931 229.672 294.576C229.476 294.5 229.275 294.437 229.071 294.388H228.946C228.567 294.271 228.182 294.174 227.793 294.1L227.292 293.999C226.961 293.895 226.622 293.82 226.278 293.774C225.889 293.774 225.488 293.774 225.088 293.774C223.363 293.788 221.651 294.071 220.014 294.613C221.917 293.686 223.998 293.181 226.115 293.135H226.666C227.726 293.153 228.781 293.292 229.81 293.548C230.994 293.868 232.127 294.348 233.18 294.976C235.114 296.217 236.687 297.945 237.74 299.987C238.688 301.922 239.29 304.008 239.518 306.15C239.722 308.237 239.663 310.342 239.343 312.414C239.01 314.47 238.447 316.483 237.664 318.414C236.129 322.084 233.972 325.462 231.288 328.398V328.398Z" fill="#00A651"/>
<path d="M223.752 309.5C225.949 304.891 225.213 299.955 222.109 298.476C219.005 296.997 214.708 299.534 212.512 304.143C210.315 308.753 211.051 313.688 214.155 315.167C217.259 316.647 221.556 314.109 223.752 309.5Z" fill="#FFF200"/>
<path d="M212.884 308.38C214.212 309.056 215.101 309.733 215.966 310.083C216.362 310.261 216.786 310.367 217.218 310.396C217.863 310.407 218.508 310.369 219.148 310.284C219.014 310.63 218.806 310.942 218.537 311.197C218.268 311.453 217.946 311.646 217.594 311.762C216.752 312.067 215.825 312.04 215.001 311.687C214.31 311.386 213.725 310.884 213.323 310.246C212.956 309.697 212.8 309.034 212.884 308.38V308.38Z" fill="#00A651"/>
<path d="M222.386 304.121C221.058 303.445 220.156 302.768 219.304 302.417C218.908 302.242 218.484 302.136 218.052 302.104C217.407 302.093 216.762 302.131 216.123 302.217C216.256 301.871 216.464 301.559 216.733 301.303C217.002 301.048 217.324 300.855 217.676 300.739C218.518 300.432 219.446 300.458 220.269 300.814C220.965 301.113 221.554 301.615 221.96 302.255C222.323 302.805 222.474 303.468 222.386 304.121Z" fill="#ED1C24"/>
<path d="M226.35 337.217C219.748 342.678 213.935 349.027 209.075 356.082C206.928 359.275 205.241 362.754 204.065 366.417C202.937 369.816 202.536 373.414 202.887 376.977C203.238 380.347 204.616 383.554 206.758 385.082C207.306 385.474 207.904 385.79 208.537 386.022C208.888 386.109 209.213 386.247 209.614 386.31L210.19 386.423C210.378 386.423 210.566 386.423 210.754 386.423C212.459 386.541 214.17 386.284 215.765 385.671C219.291 384.424 222.249 381.946 224.095 378.693C224.939 377.127 225.238 375.325 224.947 373.57C224.501 371.558 223.339 369.778 221.677 368.559C224.07 369.133 226.143 370.618 227.456 372.698C228.769 374.779 229.217 377.29 228.705 379.696C228.218 382.117 227.133 384.378 225.548 386.272C223.868 388.336 221.789 390.04 219.435 391.283C216.74 392.751 213.734 393.554 210.666 393.625C207.354 393.72 204.085 392.85 201.259 391.12C198.774 389.547 196.761 387.331 195.434 384.706C194.277 382.523 193.513 380.152 193.179 377.704C192.954 375.38 193.013 373.036 193.354 370.726C193.732 368.442 194.363 366.207 195.233 364.062C197.017 359.766 199.563 355.827 202.749 352.437C209.223 345.474 217.336 340.241 226.35 337.217V337.217Z" fill="#FFF200"/>
<path d="M209.876 390.457C208.82 390.439 207.769 390.3 206.744 390.043C205.557 389.735 204.422 389.254 203.374 388.615C201.434 387.382 199.86 385.652 198.815 383.605C197.859 381.673 197.257 379.585 197.036 377.441C196.834 375.376 196.888 373.293 197.199 371.241C197.538 369.164 198.105 367.13 198.89 365.178C200.426 361.5 202.578 358.111 205.253 355.156C203.115 358.394 201.429 361.909 200.243 365.604C199.01 369.377 198.583 373.367 198.99 377.316C199.441 381.713 201.383 385.571 204.176 387.588C204.998 388.171 205.896 388.639 206.844 388.979C207.036 389.066 207.238 389.129 207.446 389.167H207.571C207.946 389.295 208.332 389.392 208.723 389.455L209.224 389.567C209.564 389.627 209.907 389.665 210.252 389.68V389.68C210.64 389.68 211.041 389.68 211.442 389.68C213.166 389.666 214.878 389.383 216.515 388.841C214.614 389.774 212.532 390.279 210.414 390.319H209.851L209.876 390.457Z" fill="#ED1C24"/>
<path d="M210.857 416.95C217.454 411.493 223.264 405.148 228.119 398.097C230.301 394.9 232.013 391.407 233.205 387.725C234.322 384.324 234.719 380.728 234.37 377.165C234.032 373.795 232.642 370.588 230.512 369.06C229.967 368.664 229.368 368.347 228.733 368.12C228.37 368.033 228.044 367.895 227.656 367.832L227.08 367.72C226.879 367.72 226.704 367.72 226.516 367.72C224.811 367.602 223.101 367.859 221.505 368.471C217.979 369.718 215.021 372.196 213.175 375.449C212.331 377.015 212.031 378.817 212.323 380.572C212.769 382.587 213.936 384.369 215.605 385.583C213.21 385.012 211.134 383.528 209.819 381.447C208.503 379.367 208.053 376.854 208.565 374.446C209.054 372.022 210.139 369.758 211.722 367.857C213.41 365.797 215.493 364.093 217.847 362.847C220.542 361.379 223.548 360.575 226.616 360.504C228.253 360.458 229.889 360.639 231.477 361.043C233.076 361.463 234.607 362.108 236.024 362.959C238.516 364.527 240.534 366.745 241.861 369.373C242.991 371.588 243.725 373.983 244.028 376.451C244.255 378.775 244.192 381.119 243.841 383.428C243.472 385.713 242.846 387.949 241.974 390.093C240.178 394.383 237.633 398.319 234.458 401.717C227.986 408.685 219.872 413.922 210.857 416.95Z" fill="#FFF200"/>
<path d="M231.94 399C234.073 395.759 235.758 392.245 236.951 388.553C238.184 384.779 238.611 380.789 238.203 376.84C237.765 372.443 235.823 368.585 233.017 366.568C232.2 365.985 231.306 365.518 230.362 365.178C230.167 365.098 229.966 365.035 229.76 364.99H229.635C229.254 364.862 228.865 364.761 228.47 364.689L227.982 364.589C227.642 364.529 227.299 364.492 226.954 364.476C226.579 364.476 226.178 364.476 225.702 364.476C223.998 364.496 222.308 364.779 220.691 365.315C222.591 364.381 224.674 363.876 226.791 363.837H227.343C228.398 363.862 229.448 364 230.474 364.251C231.635 364.533 232.752 364.971 233.794 365.553C235.734 366.791 237.311 368.52 238.366 370.564C239.316 372.494 239.918 374.576 240.145 376.715C240.341 378.802 240.282 380.905 239.97 382.978C239.64 385.034 239.081 387.047 238.304 388.979C236.771 392.658 234.619 396.048 231.94 399Z" fill="#00A651"/>
<path d="M223.752 379.652C225.949 375.042 225.213 370.107 222.109 368.628C219.005 367.149 214.708 369.686 212.512 374.295C210.315 378.904 211.051 383.84 214.155 385.319C217.259 386.798 221.556 384.261 223.752 379.652Z" fill="#FFF200"/>
</g>
<g filter="url(#filter0_f_3961_14407)">
<rect x="184.946" y="190.94" width="28.2002" height="103.578" transform="rotate(-43.9741 184.946 190.94)" fill="black" fill-opacity="0.7"/>
</g>
<g filter="url(#filter1_f_3961_14407)">
<rect x="376.262" y="165.286" width="28.2002" height="101.049" transform="rotate(36.2125 376.262 165.286)" fill="black" fill-opacity="0.8"/>
</g>
<g filter="url(#filter2_f_3961_14407)">
<rect x="282.235" y="217.281" width="28.2002" height="52.3624" transform="rotate(-43.9741 282.235 217.281)" fill="black" fill-opacity="0.9"/>
</g>
<path d="M250.992 154.492L250.992 154.492C247.815 150.866 243.846 148.015 239.39 146.158C234.939 144.304 230.121 143.491 225.306 143.781L225.171 143.777L225.153 143.776L225.134 143.777C221.088 144.035 217.13 145.072 213.48 146.83C205.487 150.143 198.62 155.677 193.696 162.77C193.648 162.82 193.606 162.875 193.569 162.934C193.028 163.588 192.567 164.305 192.197 165.069C191.163 167.15 190.77 169.489 191.069 171.793C191.368 174.097 192.345 176.261 193.877 178.012L245.447 236.979L245.447 236.979L263.582 257.678L263.845 257.447L263.582 257.678C270.387 265.442 280.009 270.197 290.33 270.895C300.651 271.593 310.827 268.178 318.62 261.4L318.62 261.4L329.526 251.876L329.526 251.876C330.54 250.988 331.16 249.737 331.252 248.395C331.343 247.052 330.898 245.729 330.014 244.712L329.718 244.97L330.013 244.711L250.992 154.492Z" fill="white" stroke="white" stroke-width="0.786517"/>
<path d="M340.332 154.238L340.332 154.238C343.512 150.72 347.447 147.989 351.834 146.255C356.216 144.523 360.931 143.833 365.617 144.237L365.749 144.237L365.767 144.236L365.785 144.238C369.723 144.591 373.555 145.715 377.071 147.547C384.784 151.026 391.347 156.68 395.978 163.833C396.024 163.884 396.064 163.939 396.097 163.998C396.61 164.659 397.041 165.38 397.383 166.146C398.341 168.231 398.668 170.556 398.324 172.829C397.979 175.103 396.977 177.222 395.444 178.92C395.444 178.92 395.444 178.92 395.444 178.92L343.786 236.164L343.786 236.165L325.62 256.258L325.383 256.043L325.62 256.258C318.807 263.792 309.318 268.275 299.241 268.718C289.164 269.161 279.326 265.528 271.891 258.619L271.891 258.619L261.484 248.909L261.483 248.908C260.519 248.006 259.946 246.754 259.889 245.427C259.831 244.101 260.294 242.804 261.177 241.82L261.454 242.068L261.178 241.819L340.332 154.238Z" fill="white" stroke="white" stroke-width="0.74491"/>
<mask id="mask2_3961_14407" style="mask-type:alpha" maskUnits="userSpaceOnUse" x="257" y="145" width="141" height="123">
<path d="M396.184 167.321C395.812 166.476 395.336 165.681 394.768 164.953C394.768 164.953 394.768 164.953 394.768 164.953C390.193 157.862 383.669 152.242 375.978 148.768V148.768C372.476 146.918 368.646 145.769 364.704 145.386H364.554C359.886 144.954 355.181 145.6 350.802 147.275C346.423 148.949 342.488 151.608 339.299 155.044L258.965 241.48C258.146 242.377 257.713 243.559 257.758 244.773C257.802 245.986 258.321 247.134 259.203 247.968L269.613 257.652C276.976 264.501 286.76 268.144 296.81 267.78C306.86 267.416 316.353 263.074 323.202 255.71L341.629 235.893L394.142 179.459C395.631 177.856 396.617 175.853 396.98 173.696C397.343 171.538 397.066 169.322 396.184 167.321V167.321Z" fill="#939598"/>
</mask>
<g mask="url(#mask2_3961_14407)">
<path d="M476.278 92.2154L433.73 53.1772L217.863 284.698L260.411 323.736L476.278 92.2154Z" fill="#ED1C24"/>
<path d="M418.766 120.598C412.631 120.113 406.459 120.485 400.43 121.703C397.729 122.247 395.124 123.184 392.7 124.483C390.477 125.67 388.54 127.32 387.021 129.319C386.314 130.168 385.792 131.154 385.489 132.214C385.186 133.273 385.108 134.384 385.26 135.475C385.37 135.949 385.539 136.408 385.762 136.842C385.914 137.059 386.028 137.289 386.206 137.52L386.46 137.866C386.549 137.981 386.651 138.059 386.74 138.161C387.595 139.054 388.63 139.757 389.779 140.225C392.241 141.323 395.017 141.515 397.608 140.768C398.806 140.384 399.834 139.602 400.517 138.554C401.242 137.276 401.46 135.777 401.131 134.347C402.129 135.819 402.535 137.607 402.27 139.359C401.955 141.036 400.999 142.528 399.601 143.522C398.171 144.532 396.503 145.161 394.757 145.349C392.842 145.569 390.902 145.417 389.045 144.902C386.871 144.338 384.858 143.283 383.164 141.82C382.262 141.03 381.467 140.129 380.798 139.138C380.143 138.134 379.629 137.046 379.271 135.904C378.68 133.872 378.667 131.718 379.235 129.68C379.7 127.992 380.476 126.402 381.522 124.992C382.499 123.681 383.64 122.499 384.917 121.472C386.217 120.485 387.624 119.644 389.113 118.965C392.157 117.647 395.419 116.892 398.738 116.737C405.632 116.368 412.512 117.694 418.766 120.598V120.598Z" fill="white"/>
<path d="M372.242 153.834C378.377 154.311 384.548 153.939 390.578 152.728C393.278 152.173 395.882 151.232 398.308 149.935C400.538 148.753 402.48 147.103 404 145.1C404.701 144.264 405.222 143.294 405.529 142.25C405.836 141.207 405.923 140.112 405.786 139.033C405.682 138.557 405.513 138.097 405.284 137.666C405.132 137.449 405.018 137.219 404.84 136.988L404.586 136.642C404.497 136.527 404.395 136.449 404.306 136.347C403.451 135.454 402.416 134.751 401.267 134.283C398.805 133.184 396.029 132.992 393.438 133.74C392.24 134.124 391.212 134.906 390.529 135.954C389.814 137.221 389.596 138.705 389.915 140.123C388.917 138.647 388.515 136.853 388.79 135.098C389.09 133.421 390.027 131.923 391.407 130.909C392.839 129.904 394.506 129.28 396.251 129.095C398.169 128.865 400.115 129.012 401.976 129.529C404.147 130.114 406.151 131.191 407.831 132.675C408.736 133.462 409.531 134.363 410.197 135.357C410.862 136.355 411.376 137.445 411.723 138.591C412.323 140.598 412.349 142.731 411.799 144.751C411.333 146.44 410.558 148.029 409.511 149.439C408.521 150.743 407.367 151.918 406.078 152.933C404.78 153.924 403.373 154.765 401.883 155.44C398.838 156.758 395.576 157.514 392.257 157.669C385.369 158.048 378.493 156.73 372.242 153.834V153.834Z" fill="white"/>
<path d="M392.169 155.075C394.872 154.482 397.476 153.511 399.903 152.192C402.375 150.876 404.526 149.041 406.206 146.814C407.094 145.728 407.741 144.47 408.107 143.12C408.472 141.771 408.548 140.36 408.329 138.979C408.158 138.274 407.892 137.595 407.537 136.961C407.473 136.826 407.397 136.697 407.309 136.577L407.31 136.488C407.17 136.235 407.008 135.995 406.827 135.77L406.599 135.475C406.452 135.271 406.291 135.078 406.115 134.898V134.898L405.504 134.282C404.56 133.412 403.487 132.689 402.323 132.139C403.789 132.611 405.139 133.383 406.287 134.403L406.364 134.404L406.593 134.61C407.156 135.136 407.656 135.726 408.081 136.367C408.577 137.109 408.959 137.919 409.217 138.771C409.672 140.355 409.685 142.031 409.253 143.621C408.872 145.096 408.22 146.488 407.329 147.728C406.444 148.881 405.416 149.919 404.27 150.819C403.102 151.711 401.832 152.464 400.487 153.063C397.855 154.212 395.04 154.893 392.169 155.075Z" fill="#ED1C24"/>
<path d="M385.317 157.147C379.182 156.675 373.012 157.047 366.981 158.252C364.281 158.8 361.677 159.737 359.251 161.033C357.021 162.22 355.078 163.874 353.559 165.881C352.857 166.714 352.335 167.681 352.025 168.722C351.716 169.764 351.626 170.857 351.76 171.935C351.871 172.411 352.044 172.87 352.275 173.301C352.41 173.536 352.558 173.763 352.719 173.98L352.973 174.326C353.062 174.441 353.164 174.531 353.253 174.634C354.112 175.515 355.141 176.217 356.279 176.698C358.741 177.795 361.517 177.988 364.109 177.24C365.306 176.855 366.333 176.074 367.017 175.027C367.736 173.761 367.959 172.277 367.644 170.858C368.631 172.338 369.032 174.128 368.769 175.883C368.466 177.548 367.535 179.037 366.165 180.046C364.73 181.053 363.057 181.678 361.308 181.86C359.24 182.099 357.144 181.903 355.157 181.284C353.171 180.665 351.338 179.637 349.78 178.268C348.872 177.489 348.076 176.591 347.414 175.599C346.75 174.598 346.232 173.509 345.875 172.365C345.287 170.351 345.261 168.218 345.799 166.192C346.267 164.504 347.042 162.915 348.086 161.504C349.065 160.232 350.205 159.091 351.48 158.111C352.772 157.111 354.181 156.27 355.676 155.604C358.719 154.282 361.981 153.522 365.302 153.363C372.185 152.974 379.06 154.274 385.317 157.147V157.147Z" fill="white"/>
<path d="M350.969 176.362C350.406 175.845 349.903 175.268 349.467 174.642C348.982 173.895 348.6 173.086 348.331 172.239C347.907 170.647 347.922 168.973 348.373 167.389C348.778 165.931 349.452 164.561 350.36 163.346C351.239 162.188 352.267 161.148 353.419 160.255C354.574 159.353 355.831 158.587 357.165 157.973C359.772 156.833 362.561 156.152 365.405 155.96C362.705 156.556 360.102 157.522 357.671 158.83C355.204 160.153 353.054 161.987 351.368 164.208C350.479 165.296 349.831 166.556 349.465 167.908C349.099 169.26 349.024 170.673 349.245 172.056C349.404 172.771 349.658 173.463 349.999 174.113C350.071 174.253 350.151 174.39 350.239 174.522L350.238 174.598C350.384 174.847 350.545 175.086 350.721 175.316L350.949 175.611C351.094 175.816 351.261 176.005 351.446 176.175V176.175C351.649 176.394 351.853 176.599 352.07 176.792C352.999 177.64 354.055 178.341 355.2 178.87C353.726 178.405 352.367 177.638 351.211 176.619L351.133 176.618L350.969 176.362Z" fill="#ED1C24"/>
<path d="M338.799 190.431C344.934 190.903 351.104 190.531 357.135 189.326C359.835 188.776 362.438 187.839 364.865 186.546C367.089 185.355 369.027 183.701 370.544 181.697C371.247 180.864 371.769 179.897 372.078 178.856C372.387 177.814 372.477 176.721 372.343 175.643C372.238 175.166 372.065 174.705 371.828 174.277C371.694 174.042 371.545 173.815 371.384 173.598L371.13 173.252C371.041 173.137 370.939 173.047 370.85 172.944C369.998 172.057 368.967 171.358 367.824 170.893C365.363 169.791 362.587 169.595 359.995 170.338C358.784 170.702 357.738 171.471 357.035 172.513C356.32 173.784 356.098 175.271 356.408 176.694C355.406 175.191 355.005 173.372 355.283 171.593C355.586 169.928 356.517 168.439 357.887 167.43C359.327 166.43 360.997 165.806 362.745 165.616C364.659 165.383 366.602 165.535 368.456 166.062C370.631 166.647 372.64 167.724 374.324 169.209C375.225 169.991 376.016 170.888 376.677 171.877C377.339 172.88 377.857 173.968 378.217 175.111C378.804 177.125 378.83 179.258 378.292 181.284C377.824 182.972 377.049 184.561 376.005 185.973C375.013 187.28 373.855 188.455 372.559 189.467C371.264 190.462 369.856 191.304 368.363 191.974C365.324 193.296 362.066 194.055 358.75 194.215C351.889 194.59 345.038 193.291 338.799 190.431V190.431Z" fill="white"/>
<path d="M358.738 191.661C361.437 191.061 364.039 190.095 366.471 188.79C368.932 187.464 371.077 185.63 372.761 183.412C373.65 182.325 374.299 181.064 374.664 179.712C375.03 178.36 375.105 176.947 374.884 175.564C374.725 174.849 374.472 174.158 374.131 173.508C374.062 173.372 373.986 173.239 373.903 173.111L373.904 173.035C373.751 172.783 373.586 172.54 373.409 172.305L373.193 172.01C373.04 171.811 372.875 171.622 372.697 171.445V171.445C372.505 171.224 372.296 171.018 372.072 170.829C371.14 169.985 370.085 169.284 368.942 168.751C370.39 169.241 371.721 170.02 372.854 171.04C372.875 171.044 372.897 171.044 372.918 171.04L373.148 171.246C374.384 172.377 375.294 173.813 375.785 175.407C376.234 176.992 376.246 178.667 375.82 180.258C375.41 181.713 374.736 183.083 373.833 184.3C372.947 185.46 371.914 186.503 370.761 187.404C369.591 188.29 368.322 189.038 366.978 189.635C364.371 190.78 361.583 191.465 358.738 191.661V191.661Z" fill="#ED1C24"/>
<path d="M363.252 177.503C366.748 176.59 369.092 174.003 368.486 171.724C367.88 169.446 364.555 168.338 361.059 169.251C357.562 170.163 355.219 172.75 355.824 175.029C356.43 177.308 359.755 178.415 363.252 177.503Z" fill="white"/>
<path d="M358.424 172.31C358.813 173.32 358.973 174.111 359.264 174.712C359.402 175.004 359.586 175.272 359.809 175.507C360.155 175.825 360.522 176.122 360.905 176.395C360.663 176.504 360.4 176.559 360.134 176.556C359.868 176.554 359.605 176.494 359.365 176.381C358.769 176.125 358.282 175.67 357.989 175.095C357.767 174.604 357.691 174.059 357.772 173.527C357.826 173.054 358.059 172.619 358.424 172.31V172.31Z" fill="#ED1C24"/>
<path d="M365.575 174.792C365.186 173.796 365.026 173.005 364.736 172.391C364.597 172.099 364.413 171.831 364.19 171.596C363.849 171.271 363.483 170.974 363.094 170.707C363.338 170.596 363.603 170.54 363.872 170.542C364.14 170.544 364.405 170.606 364.647 170.721C365.242 170.974 365.726 171.431 366.01 172.007C366.248 172.494 366.325 173.043 366.228 173.576C366.175 174.049 365.942 174.485 365.575 174.792V174.792Z" fill="#ED1C24"/>
<path d="M349.662 193.457C343.527 192.984 337.357 193.356 331.326 194.562C328.626 195.117 326.022 196.057 323.596 197.355C321.373 198.542 319.435 200.191 317.917 202.191C317.214 203.026 316.692 203.995 316.383 205.039C316.073 206.083 315.983 207.178 316.118 208.258C316.226 208.728 316.395 209.183 316.62 209.611C316.761 209.845 316.913 210.072 317.077 210.29L317.331 210.636C317.414 210.748 317.507 210.851 317.611 210.944C318.488 211.855 319.55 212.572 320.727 213.047C323.189 214.144 325.965 214.337 328.556 213.589C329.727 213.2 330.733 212.434 331.413 211.414C332.127 210.146 332.349 208.664 332.039 207.245C333.027 208.725 333.428 210.515 333.165 212.269C332.84 213.942 331.886 215.43 330.497 216.432C329.061 217.439 327.389 218.064 325.64 218.246C323.726 218.477 321.785 218.329 319.928 217.812C317.757 217.217 315.751 216.141 314.06 214.666C313.17 213.865 312.392 212.951 311.746 211.947C311.065 210.936 310.534 209.834 310.168 208.674C309.581 206.661 309.555 204.527 310.093 202.501C310.561 200.813 311.336 199.224 312.38 197.813C313.367 196.51 314.521 195.34 315.813 194.332C317.112 193.335 318.524 192.493 320.022 191.825C323.061 190.503 326.319 189.743 329.635 189.583C336.529 189.224 343.408 190.554 349.662 193.457Z" fill="white"/>
<path d="M315.297 212.638C314.741 212.105 314.242 211.515 313.809 210.88C313.324 210.132 312.942 209.324 312.673 208.476C312.222 206.887 312.21 205.208 312.637 203.613C313.048 202.158 313.721 200.788 314.625 199.571C315.508 198.412 316.541 197.373 317.696 196.48C318.865 195.588 320.135 194.835 321.48 194.236C324.087 193.093 326.876 192.412 329.72 192.223C327.018 192.818 324.414 193.789 321.987 195.106C319.518 196.427 317.371 198.267 315.696 200.497C314.807 201.581 314.158 202.84 313.792 204.19C313.427 205.54 313.352 206.951 313.574 208.332C313.734 209.051 313.988 209.746 314.327 210.401C314.398 210.539 314.478 210.671 314.567 210.798L314.567 210.874C314.713 211.123 314.874 211.362 315.049 211.591L315.265 211.886C315.418 212.089 315.584 212.281 315.761 212.464V212.464C315.952 212.669 316.156 212.875 316.385 213.08C317.343 213.928 318.43 214.621 319.606 215.134C318.124 214.68 316.756 213.921 315.59 212.908L315.513 212.907L315.297 212.638Z" fill="#ED1C24"/>
<path d="M303.148 226.707C309.283 227.179 315.454 226.807 321.485 225.602C324.185 225.054 326.789 224.117 329.214 222.821C331.445 221.634 333.387 219.98 334.907 217.973C335.61 217.141 336.132 216.174 336.441 215.132C336.751 214.09 336.841 212.997 336.705 211.919C336.593 211.444 336.42 210.985 336.19 210.552C336.038 210.335 335.937 210.105 335.747 209.874L335.493 209.528C335.404 209.413 335.302 209.335 335.213 209.22C334.353 208.336 333.318 207.638 332.174 207.169C329.717 206.064 326.943 205.872 324.357 206.626C323.143 206.984 322.093 207.748 321.385 208.788C320.663 210.057 320.431 211.543 320.732 212.97C319.725 211.469 319.323 209.648 319.607 207.869C319.914 206.204 320.844 204.717 322.211 203.705C323.65 202.704 325.321 202.08 327.069 201.891C329.136 201.661 331.23 201.861 333.215 202.48C335.2 203.098 337.034 204.122 338.597 205.484C339.505 206.262 340.301 207.16 340.963 208.152C341.622 209.156 342.14 210.244 342.502 211.386C343.089 213.4 343.115 215.533 342.578 217.56C342.104 219.246 341.329 220.833 340.29 222.248C339.295 223.552 338.137 224.726 336.844 225.742C335.549 226.737 334.141 227.579 332.649 228.249C329.65 229.576 326.431 230.349 323.151 230.53C316.269 230.904 309.399 229.591 303.148 226.707V226.707Z" fill="white"/>
<path d="M323.087 227.895C325.788 227.299 328.391 226.333 330.821 225.025C333.291 223.706 335.442 221.871 337.124 219.646C338.013 218.562 338.662 217.303 339.028 215.954C339.394 214.604 339.468 213.192 339.247 211.811C339.09 211.092 338.837 210.396 338.494 209.742C338.421 209.606 338.341 209.473 338.253 209.346L338.253 209.269C338.111 209.014 337.95 208.77 337.771 208.539L337.556 208.244C337.34 207.962 337.148 207.782 337.059 207.68C336.864 207.474 336.66 207.269 336.448 207.063C335.474 206.24 334.379 205.569 333.201 205.073C334.676 205.538 336.035 206.305 337.191 207.325L337.267 207.389L337.497 207.595C338.058 208.132 338.561 208.725 338.998 209.365C339.48 210.11 339.861 210.914 340.134 211.756C340.579 213.342 340.587 215.017 340.157 216.606C339.754 218.065 339.08 219.436 338.169 220.649C337.287 221.808 336.259 222.852 335.11 223.753C333.939 224.64 332.669 225.392 331.327 225.997C328.712 227.097 325.924 227.739 323.087 227.895V227.895Z" fill="#ED1C24"/>
<path d="M326.996 214.125C330.492 213.213 332.836 210.626 332.23 208.347C331.625 206.068 328.299 204.961 324.803 205.873C321.307 206.786 318.963 209.373 319.569 211.652C320.174 213.93 323.499 215.038 326.996 214.125Z" fill="white"/>
<path d="M322.767 208.583C323.156 209.593 323.316 210.384 323.606 210.985C323.741 211.279 323.926 211.547 324.152 211.78C324.495 212.102 324.861 212.399 325.248 212.669C325.004 212.781 324.739 212.838 324.47 212.835C324.201 212.833 323.936 212.771 323.695 212.654C323.102 212.398 322.62 211.943 322.332 211.368C322.103 210.879 322.027 210.332 322.114 209.8C322.169 209.327 322.402 208.892 322.767 208.583V208.583Z" fill="#ED1C24"/>
<path d="M329.922 211.093C329.533 210.096 329.373 209.305 329.083 208.704C328.951 208.409 328.766 208.14 328.537 207.909C328.192 207.586 327.825 207.285 327.441 207.008C327.683 206.897 327.946 206.841 328.213 206.843C328.479 206.845 328.742 206.907 328.981 207.022C329.582 207.271 330.071 207.728 330.357 208.308C330.586 208.798 330.662 209.344 330.575 209.877C330.526 210.351 330.292 210.788 329.922 211.093V211.093Z" fill="#ED1C24"/>
<path d="M316.216 230.056C310.081 229.578 303.909 229.95 297.879 231.161C295.179 231.71 292.575 232.646 290.15 233.942C287.948 235.151 286.036 236.818 284.547 238.829C283.846 239.662 283.325 240.63 283.018 241.671C282.711 242.713 282.623 243.806 282.761 244.883C282.866 245.359 283.035 245.819 283.263 246.25C283.416 246.467 283.529 246.697 283.707 246.928L283.961 247.274C284.05 247.389 284.152 247.467 284.241 247.569C285.096 248.462 286.132 249.165 287.28 249.633C289.736 250.738 292.511 250.93 295.097 250.176C296.299 249.8 297.332 249.022 298.018 247.975C298.732 246.703 298.95 245.215 298.632 243.793C299.624 245.277 300.025 247.072 299.757 248.831C299.451 250.495 298.52 251.982 297.153 252.994C295.719 253.994 294.052 254.618 292.309 254.808C290.353 255.031 288.371 254.861 286.482 254.31C284.302 253.745 282.284 252.685 280.588 251.214C279.684 250.432 278.888 249.535 278.222 248.545C277.594 247.539 277.111 246.451 276.786 245.312C276.186 243.301 276.156 241.166 276.697 239.139C277.175 237.452 277.954 235.865 278.998 234.451C279.984 233.144 281.138 231.969 282.431 230.957C283.729 229.966 285.136 229.125 286.626 228.45C289.659 227.141 292.908 226.39 296.213 226.234C303.095 225.859 309.965 227.172 316.216 230.056V230.056Z" fill="white"/>
<path d="M281.894 249.183C281.331 248.656 280.832 248.067 280.406 247.426C279.913 246.687 279.531 245.882 279.27 245.035C278.818 243.473 278.797 241.82 279.208 240.248C279.611 238.789 280.285 237.418 281.196 236.205C282.077 235.045 283.105 234.002 284.254 233.101C285.426 232.214 286.695 231.462 288.038 230.857C290.644 229.716 293.434 229.039 296.278 228.857C293.578 229.453 290.975 230.419 288.545 231.728C286.073 233.044 283.922 234.879 282.241 237.106C281.352 238.19 280.703 239.449 280.338 240.799C279.972 242.149 279.897 243.56 280.119 244.941C280.278 245.66 280.531 246.356 280.872 247.01C280.945 247.147 281.025 247.279 281.113 247.407L281.112 247.483C281.252 247.735 281.413 247.975 281.594 248.2L281.823 248.508C281.971 248.71 282.137 248.899 282.319 249.073V249.073C282.514 249.278 282.718 249.484 282.93 249.689C283.899 250.542 284.994 251.243 286.176 251.768C284.694 251.307 283.329 250.534 282.174 249.504L282.097 249.503L281.894 249.183Z" fill="#ED1C24"/>
<path d="M269.699 263.293C275.834 263.772 282.005 263.4 288.035 262.188C290.735 261.633 293.339 260.693 295.765 259.395C297.991 258.212 299.929 256.562 301.444 254.559C302.147 253.724 302.669 252.755 302.978 251.711C303.288 250.667 303.378 249.572 303.243 248.492C303.133 248.018 302.964 247.559 302.741 247.126C302.588 246.908 302.475 246.678 302.297 246.46L302.03 246.114C301.947 246.002 301.854 245.899 301.75 245.806C300.875 244.895 299.813 244.182 298.634 243.716C296.172 242.618 293.396 242.426 290.805 243.174C289.62 243.577 288.611 244.373 287.947 245.426C287.232 246.693 287.014 248.177 287.334 249.594C286.334 248.119 285.932 246.325 286.208 244.57C286.506 242.902 287.438 241.412 288.812 240.406C290.244 239.401 291.912 238.777 293.657 238.592C295.723 238.358 297.817 238.555 299.803 239.172C301.788 239.788 303.622 240.81 305.185 242.172C306.106 242.946 306.923 243.835 307.615 244.816C308.27 245.82 308.784 246.908 309.142 248.05C309.728 250.059 309.754 252.188 309.217 254.21C308.749 255.902 307.974 257.495 306.93 258.911C305.975 260.205 304.86 261.375 303.612 262.393C302.316 263.393 300.903 264.235 299.404 264.9C296.341 266.21 293.061 266.948 289.727 267.078C282.84 267.464 275.961 266.165 269.699 263.293V263.293Z" fill="white"/>
<path d="M289.635 264.533C292.336 263.936 294.94 262.966 297.368 261.651C299.84 260.339 301.988 258.503 303.659 256.272C304.547 255.187 305.197 253.929 305.565 252.58C305.932 251.23 306.011 249.819 305.794 248.437C305.63 247.718 305.373 247.022 305.028 246.368C304.962 246.235 304.886 246.106 304.8 245.984L304.801 245.895C304.7 245.729 304.535 245.473 304.319 245.178L304.09 244.883C303.941 244.681 303.775 244.492 303.594 244.318C303.407 244.113 303.203 243.907 302.982 243.702C302.046 242.86 300.986 242.164 299.839 241.636C301.289 242.101 302.625 242.859 303.765 243.862L303.842 243.862L304.071 244.068C304.628 244.601 305.127 245.19 305.56 245.826C306.05 246.57 306.432 247.379 306.695 248.229C307.144 249.814 307.156 251.489 306.731 253.08C306.32 254.535 305.647 255.905 304.743 257.122C303.858 258.275 302.83 259.313 301.685 260.213C300.516 261.105 299.246 261.858 297.901 262.457C295.289 263.621 292.491 264.323 289.635 264.533V264.533Z" fill="#ED1C24"/>
<path d="M294.566 250.768C298.062 249.856 300.405 247.269 299.8 244.99C299.194 242.711 295.869 241.604 292.373 242.516C288.876 243.429 286.533 246.016 287.138 248.294C287.744 250.573 291.069 251.681 294.566 250.768Z" fill="white"/>
<path d="M289.335 245.182C289.712 246.179 289.872 246.97 290.175 247.571C290.302 247.866 290.483 248.136 290.707 248.366C291.05 248.693 291.416 248.994 291.804 249.267C291.562 249.378 291.299 249.435 291.032 249.432C290.766 249.43 290.503 249.369 290.263 249.253C289.665 249.001 289.177 248.545 288.888 247.967C288.665 247.476 288.59 246.931 288.67 246.399C288.727 245.924 288.965 245.488 289.335 245.182V245.182Z" fill="#ED1C24"/>
<path d="M296.477 247.692C296.088 246.682 295.928 245.891 295.638 245.29C295.508 244.997 295.327 244.728 295.105 244.495C294.759 244.177 294.393 243.88 294.009 243.606C294.25 243.495 294.514 243.438 294.781 243.44C295.047 243.443 295.31 243.504 295.549 243.621C296.142 243.877 296.624 244.332 296.912 244.907C297.151 245.393 297.227 245.943 297.13 246.475C297.075 246.948 296.842 247.382 296.477 247.692V247.692Z" fill="#ED1C24"/>
<path d="M280.565 266.33C274.43 265.858 268.259 266.23 262.229 267.435C259.528 267.982 256.924 268.919 254.499 270.216C252.268 271.403 250.326 273.057 248.807 275.064C248.104 275.897 247.581 276.864 247.272 277.905C246.963 278.947 246.873 280.041 247.008 281.118C247.115 281.595 247.288 282.055 247.523 282.485C247.675 282.703 247.776 282.933 247.967 283.163L248.221 283.509C248.31 283.625 248.412 283.702 248.501 283.817C249.355 284.701 250.386 285.4 251.527 285.869C253.988 286.973 256.766 287.165 259.357 286.411C260.573 286.059 261.625 285.293 262.329 284.249C263.048 282.979 263.271 281.491 262.955 280.067C263.957 281.57 264.358 283.389 264.081 285.168C263.777 286.834 262.846 288.322 261.476 289.332C260.038 290.333 258.367 290.957 256.619 291.146C254.552 291.376 252.458 291.176 250.473 290.557C248.487 289.939 246.654 288.915 245.091 287.553C244.183 286.775 243.387 285.877 242.725 284.885C242.066 283.881 241.548 282.793 241.186 281.651C240.599 279.637 240.572 277.504 241.11 275.477C241.578 273.789 242.353 272.201 243.398 270.789C244.389 269.482 245.547 268.307 246.844 267.295C248.138 266.3 249.546 265.458 251.039 264.788C254.08 263.459 257.344 262.699 260.665 262.547C267.509 262.177 274.342 263.476 280.565 266.33V266.33Z" fill="white"/>
<path d="M246.208 285.508C245.652 284.97 245.153 284.377 244.72 283.737C244.235 282.994 243.853 282.19 243.584 281.347C243.142 279.761 243.129 278.088 243.548 276.496C243.956 275.04 244.63 273.67 245.536 272.453C246.422 271.294 247.454 270.251 248.607 269.35C249.779 268.463 251.048 267.71 252.391 267.106C254.999 265.97 257.788 265.293 260.631 265.106C257.932 265.705 255.329 266.671 252.897 267.976C250.43 269.294 248.284 271.129 246.607 273.354C245.718 274.439 245.069 275.697 244.703 277.047C244.338 278.397 244.263 279.809 244.484 281.189C244.641 281.909 244.894 282.605 245.238 283.258C245.31 283.395 245.391 283.528 245.478 283.655L245.478 283.744C245.624 283.993 245.785 284.232 245.96 284.462L246.176 284.756C246.328 284.956 246.494 285.144 246.672 285.321V285.321C246.863 285.526 247.08 285.732 247.296 285.938C248.229 286.782 249.284 287.482 250.426 288.016C248.987 287.551 247.66 286.798 246.526 285.803L246.45 285.726L246.208 285.508Z" fill="#ED1C24"/>
</g>
<mask id="mask3_3961_14407" style="mask-type:alpha" maskUnits="userSpaceOnUse" x="192" y="145" width="140" height="126">
<path d="M330.275 243.539L249.914 155.222C246.724 151.717 242.789 149.007 238.412 147.301C234.035 145.594 229.333 144.937 224.668 145.38H224.518C220.6 145.763 216.791 146.919 213.304 148.784V148.784C205.612 152.346 199.088 158.096 194.511 165.347C194.471 165.388 194.437 165.436 194.411 165.488C193.909 166.145 193.489 166.863 193.158 167.625C192.238 169.682 191.935 171.971 192.287 174.203C192.639 176.436 193.631 178.512 195.137 180.169L247.584 237.895L266.026 258.156C272.877 265.681 282.372 270.117 292.424 270.489C302.475 270.861 312.26 267.138 319.625 260.14L330.037 250.208C330.93 249.353 331.456 248.173 331.501 246.924C331.546 245.674 331.105 244.458 330.275 243.539V243.539Z" fill="#6D6E71"/>
</mask>
<g mask="url(#mask3_3961_14407)">
<path d="M165.956 109.062L206.715 152.471L185.554 173.135L165.956 109.062Z" fill="#FAFBF9"/>
<path d="M185.793 172.923L206.696 152.52L247.449 195.948L185.793 172.923Z" fill="#C7263B"/>
<path d="M185.782 172.944L226.052 216.836L247.439 195.969L185.782 172.944Z" fill="#215F98"/>
<path d="M247.433 195.992L226.005 216.842L267.03 260.064L247.433 195.992Z" fill="#F1CC27"/>
<path d="M247.41 195.979L288.168 239.401L267.007 260.051L247.41 195.979Z" fill="#FAFBF9"/>
<path d="M267.236 259.853L288.139 239.437L328.893 282.865L267.236 259.853Z" fill="#C7263B"/>
<path d="M267.218 259.874L307.5 303.766L328.875 282.886L267.218 259.874Z" fill="#215F98"/>
<path d="M390.512 305.861L350.23 261.968L328.855 282.848L390.512 305.861Z" fill="#215F98"/>
<path d="M328.866 282.807L350.281 261.957L309.269 218.748L328.866 282.807Z" fill="#F1CC27"/>
<path d="M328.885 282.822L288.127 239.413L309.288 218.762L328.885 282.822Z" fill="#FAFBF9"/>
<path d="M309.049 218.966L288.145 239.381L247.392 195.953L309.049 218.966Z" fill="#C7263B"/>
<path d="M309.068 218.945L268.787 175.052L247.411 195.932L309.068 218.945Z" fill="#215F98"/>
<path d="M247.402 195.892L268.83 175.042L227.805 131.832L247.402 195.892Z" fill="#F1CC27"/>
<path d="M247.43 195.905L206.684 152.496L227.832 131.845L247.43 195.905Z" fill="#FAFBF9"/>
<path d="M227.595 132.036L206.692 152.452L165.938 109.024L227.595 132.036Z" fill="#C7263B"/>
</g>
<defs>
<filter id="filter0_f_3961_14407" x="180.796" y="167.21" width="100.511" height="102.42" filterUnits="userSpaceOnUse" color-interpolation-filters="sRGB">
<feFlood flood-opacity="0" result="BackgroundImageFix"/>
<feBlend mode="normal" in="SourceGraphic" in2="BackgroundImageFix" result="shape"/>
<feGaussianBlur stdDeviation="2.07493" result="effect1_foregroundBlur_3961_14407"/>
</filter>
<filter id="filter1_f_3961_14407" x="312.414" y="161.137" width="90.7509" height="106.49" filterUnits="userSpaceOnUse" color-interpolation-filters="sRGB">
<feFlood flood-opacity="0" result="BackgroundImageFix"/>
<feBlend mode="normal" in="SourceGraphic" in2="BackgroundImageFix" result="shape"/>
<feGaussianBlur stdDeviation="2.07493" result="effect1_foregroundBlur_3961_14407"/>
</filter>
<filter id="filter2_f_3961_14407" x="282.018" y="197.484" width="57.0859" height="57.6977" filterUnits="userSpaceOnUse" color-interpolation-filters="sRGB">
<feFlood flood-opacity="0" result="BackgroundImageFix"/>
<feBlend mode="normal" in="SourceGraphic" in2="BackgroundImageFix" result="shape"/>
<feGaussianBlur stdDeviation="0.108641" result="effect1_foregroundBlur_3961_14407"/>
</filter>
</defs>
</svg>
