<svg width="716" height="419" viewBox="0 0 716 419" fill="none"
  xmlns="http://www.w3.org/2000/svg">
  <path d="M39.8917 374.231H40.1405C53.8782 382.848 69.7143 387.534 85.9286 387.783C102.143 388.032 118.115 383.832 132.111 375.641C164.536 356.028 180.086 318.253 201.524 287.03C222.256 312.614 233.825 345.62 259.16 366.56C275.139 379.127 294.857 385.997 315.185 386.08C335.512 386.163 355.286 379.453 371.366 367.016C396.576 346.284 407.855 311.246 401.635 279.649C397.779 260.077 385.878 244.694 375.18 228.315L337.157 170.015L285.823 91.2304C275.498 75.3906 264.758 59.1362 249.001 48.6869C234.221 39.7171 217.236 35.0367 199.948 35.1692C188.133 34.4927 176.32 36.5207 165.407 41.0988C150.438 48.0235 139.533 61.2924 129.54 74.2711C95.4137 119.054 65.8075 167.029 35.1646 214.217C19.8639 238.225 3.27777 263.146 0.458132 291.301C-1.03411 307.393 1.84116 323.589 8.78103 338.184C15.7209 352.779 26.4685 365.232 39.8917 374.231Z" fill="#418A41"/>
  <path d="M481.575 74.4081C454.621 33.7319 399.803 22.6029 359.136 49.5507C318.47 76.4985 307.354 131.319 334.308 171.995L449.181 345.349C476.135 386.025 530.953 397.154 571.619 370.207C612.286 343.259 623.402 288.439 596.448 247.763L481.575 74.4081Z" fill="#ED7F23"/>
  <path d="M481.316 74.0553C454.338 33.1558 399.312 21.8706 358.413 48.8491C317.513 75.8276 306.228 130.854 333.206 171.753C360.185 212.653 415.211 223.938 456.11 196.959C497.01 169.981 508.295 114.955 481.316 74.0553Z" fill="#FDCD0F"/>
  <path d="M678.788 388.08C698.963 388.08 715.319 371.724 715.319 351.549C715.319 331.373 698.963 315.018 678.788 315.018C658.612 315.018 642.257 331.373 642.257 351.549C642.257 371.724 658.612 388.08 678.788 388.08Z" fill="#E32329"/>
  <path d="M201.693 286.573L201.319 287.236C203.517 290.18 205.466 293.083 207.581 295.861L201.693 286.573Z" fill="#3E519D"/>
  <path d="M207.578 295.859L228.311 328.119C221.95 317.022 215.03 306.255 207.578 295.859Z" fill="#3E519D"/>
  <path d="M201.316 287.153C183.859 263.684 159.229 236.109 131.654 221.099L130.991 220.809C118.223 213.464 103.668 209.804 88.9448 210.235C76.2046 210.241 63.6161 212.999 52.0406 218.321C41.2316 222.517 31.4949 229.072 23.5398 237.508C15.5846 245.944 9.61152 256.048 6.05558 267.084C1.98911 277.292 -0.0665451 288.19 0.00164238 299.178C0.91388 351.922 37.6522 388.08 88.9448 388.08C125.973 388.08 151.392 367.679 172.373 333.802L200.113 289.392L201.316 287.153Z" fill="#3E519D"/>
</svg>
