<svg width="127" height="96" viewBox="0 0 127 96" fill="none" xmlns="http://www.w3.org/2000/svg">
<path d="M118.592 57.081V61.9209C118.592 62.8438 118.319 63.7289 117.832 64.3815C117.346 65.0341 116.686 65.4008 115.998 65.4008H112.793C112.105 65.4008 111.445 65.7674 110.959 66.42C110.472 67.0726 110.199 67.9577 110.199 68.8806V73.7205C110.199 74.6434 110.472 75.5286 110.959 76.1812C111.445 76.8338 112.105 77.2004 112.793 77.2004H113.082C113.77 77.2004 114.429 77.567 114.916 78.2196C115.402 78.8722 115.675 79.7573 115.675 80.6803V85.5201C115.675 86.443 115.402 87.3282 114.916 87.9808C114.429 88.6334 113.77 89 113.082 89H15.5357C15.195 89 14.8578 88.91 14.5431 88.7351C14.2284 88.5602 13.9425 88.3039 13.7016 87.9808C13.4608 87.6576 13.2698 87.274 13.1394 86.8518C13.0091 86.4296 12.942 85.9771 12.942 85.5201V80.6803C12.942 79.7573 13.2152 78.8722 13.7016 78.2196C14.1881 77.567 14.8478 77.2004 15.5357 77.2004C15.8763 77.2004 16.2135 77.1104 16.5282 76.9355C16.8429 76.7606 17.1288 76.5043 17.3697 76.1812C17.6105 75.858 17.8016 75.4744 17.9319 75.0522C18.0622 74.63 18.1293 74.1775 18.1293 73.7205V68.8806C18.1293 68.4237 18.0622 67.9712 17.9319 67.549C17.8016 67.1268 17.6105 66.7431 17.3697 66.42C17.1288 66.0969 16.8429 65.8405 16.5282 65.6657C16.2135 65.4908 15.8763 65.4008 15.5357 65.4008H7.4887C7.14809 65.4008 6.81082 65.3108 6.49614 65.1359C6.18146 64.961 5.89554 64.7047 5.65469 64.3815C5.41385 64.0584 5.2228 63.6748 5.09245 63.2526C4.96211 62.8304 4.89502 62.3779 4.89502 61.9209V57.081C4.89502 56.6241 4.96211 56.1715 5.09245 55.7493C5.2228 55.3271 5.41385 54.9435 5.65469 54.6204C5.89554 54.2973 6.18146 54.0409 6.49614 53.8661C6.81082 53.6912 7.14809 53.6012 7.4887 53.6012H9.44129C9.7819 53.6012 10.1192 53.5112 10.4338 53.3363C10.7485 53.1614 11.0345 52.9051 11.2753 52.5819C11.5161 52.2588 11.7072 51.8752 11.8375 51.453C11.9679 51.0308 12.035 50.5783 12.035 50.1213V45.2814C12.035 44.8244 11.9679 44.3719 11.8375 43.9497C11.7072 43.5275 11.5161 43.1439 11.2753 42.8208C11.0345 42.4976 10.7485 42.2413 10.4338 42.0664C10.1192 41.8915 9.7819 41.8015 9.44129 41.8015H9.43177C8.74389 41.8015 8.08418 41.4349 7.59777 40.7823C7.11136 40.1297 6.8381 39.2446 6.8381 38.3217V33.4818C6.8381 33.0248 6.90518 32.5723 7.03553 32.1501C7.16587 31.7279 7.35692 31.3443 7.59777 31.0212C7.83861 30.698 8.12454 30.4417 8.43922 30.2668C8.7539 30.0919 9.09117 30.0019 9.43178 30.0019H10.0012C10.6891 30.0019 11.3488 29.6353 11.8352 28.9827C12.3216 28.3301 12.5949 27.445 12.5949 26.5221V21.6822C12.5949 20.7593 12.3216 19.8741 11.8352 19.2215C11.3488 18.5689 10.6891 18.2023 10.0012 18.2023H9.77819C9.43758 18.2023 9.10031 18.1123 8.78563 17.9374C8.47095 17.7625 8.18503 17.5062 7.94418 17.1831C7.70334 16.8599 7.51229 16.4763 7.38194 16.0541C7.2516 15.6319 7.18451 15.1794 7.18451 14.7224V9.88257C7.18451 9.42558 7.2516 8.97307 7.38194 8.55087C7.51229 8.12868 7.70334 7.74506 7.94418 7.42193C8.18503 7.09879 8.47095 6.84247 8.78563 6.66759C9.10031 6.49271 9.43758 6.40269 9.77819 6.40269H114.474C115.162 6.40269 115.822 6.76933 116.308 7.42193C116.795 8.07453 117.068 8.95965 117.068 9.88257V14.7224C117.068 15.6454 116.795 16.5305 116.308 17.1831C115.822 17.8357 115.162 18.2023 114.474 18.2023H112.225C111.537 18.2023 110.878 18.5689 110.391 19.2215C109.905 19.8741 109.632 20.7593 109.632 21.6822V26.5221C109.632 27.445 109.905 28.3301 110.391 28.9827C110.878 29.6353 111.537 30.0019 112.225 30.0019H119.511C120.199 30.0019 120.858 30.3686 121.345 31.0212C121.831 31.6738 122.105 32.5589 122.105 33.4818V38.3217C122.105 38.7786 122.037 39.2312 121.907 39.6533C121.777 40.0755 121.586 40.4592 121.345 40.7823C121.104 41.1054 120.818 41.3618 120.503 41.5366C120.189 41.7115 119.851 41.8015 119.511 41.8015H115.919C115.579 41.8015 115.241 41.8915 114.927 42.0664C114.612 42.2413 114.326 42.4976 114.085 42.8208C113.844 43.1439 113.653 43.5275 113.523 43.9497C113.393 44.3719 113.326 44.8244 113.326 45.2814V50.1213C113.326 50.5783 113.393 51.0308 113.523 51.453C113.653 51.8752 113.844 52.2588 114.085 52.5819C114.326 52.9051 114.612 53.1614 114.927 53.3363C115.241 53.5112 115.579 53.6012 115.919 53.6012H115.998C116.686 53.6012 117.346 53.9678 117.832 54.6204C118.319 55.273 118.592 56.1581 118.592 57.081Z" fill="#F5F5F5"/>
<path d="M63.0857 40.5655C63.6614 40.1005 64.3108 39.7979 64.3108 39.7979C64.5028 39.8273 64.6947 39.8716 64.8939 39.9528C65.6172 40.2406 65.8904 41.7907 65.5065 43.3629C65.2852 42.7723 64.9603 42.2115 64.5249 41.717C64.1044 41.2371 63.6172 40.8535 63.0857 40.5655ZM59.3804 73.1899C59.0703 73.035 57.3949 72.4371 55.6456 71.6253C53.889 70.8134 51.3794 70.7543 49.8663 70.7543C48.3459 70.7543 33.1113 65.7498 28.3282 66.5617C23.5378 67.3736 21.8477 73.4409 21.8477 73.4409H59.6095C59.6093 73.4409 59.779 73.3894 59.3804 73.1899ZM56.5091 48.7438C54.5603 46.5295 54.7819 43.1637 56.9963 41.2225C57.9779 40.3591 59.1812 39.931 60.3915 39.9013C58.7086 38.735 55.2985 38.0853 53.4016 39.2149C51.1357 40.5583 51.0175 41.4957 48.2792 41.6136C45.541 41.7243 44.5296 43.3629 44.5296 43.3629C44.5296 43.3629 44.8249 41.4954 43.9318 41.0822C43.0386 40.6762 41.5549 40.8535 41.3706 41.9607C41.3706 41.9607 41.3633 41.9534 41.3557 41.9459C41.3557 43.1637 41.7765 44.6622 42.7582 45.703C43.7471 46.7511 44.2419 47.2161 44.2419 47.2161C44.2419 47.2161 45.0244 51.6521 48.5966 52.9882L48.7885 57.7194C48.7885 57.7194 49.977 60.0814 53.4164 60.3546C53.4164 60.3546 53.4828 60.3619 53.5198 60.3619C53.5492 60.3619 53.6159 60.3546 53.6159 60.3546C57.0554 60.0814 58.2438 57.7194 58.2438 57.7194L58.4357 52.9882C59.8233 52.4716 60.7828 51.4899 61.4471 50.4785C59.6681 50.7884 57.7787 50.1979 56.5091 48.7438ZM71.2492 51.2608C70.7547 50.6923 70.7547 50.4489 69.2119 50.6923C67.6693 50.9361 67.1822 51.423 66.695 51.6667C66.2078 51.9104 65.5584 52.4786 65.1524 52.7223C64.7465 52.9658 64.4218 54.1836 64.4218 54.1836C64.4218 54.1836 64.0158 54.4273 64.0158 55.4015C64.0158 56.3756 64.9902 57.1877 64.9902 57.1877C64.9902 57.1877 64.503 57.0252 65.4774 58.0882C66.4518 59.1435 67.7508 59.6307 68.4815 59.6307C69.2121 59.6307 71.3307 58.4129 71.3307 58.4129L80.1881 73.4555L91.6803 73.3594C91.6801 73.3597 71.7364 51.8289 71.2492 51.2608Z" fill="#D0D0D0"/>
<path d="M60.4507 50.5667C63.3957 50.5667 65.7873 48.1826 65.7873 45.23C65.7873 42.285 63.3959 39.8936 60.4507 39.8936C57.4981 39.8936 55.1143 42.285 55.1143 45.23C55.1143 48.1828 57.4984 50.5667 60.4507 50.5667Z" fill="#D0D0D0"/>
<path d="M71.8397 59.2836L80.173 73.4407H54.6712H52.9589H21.8477H59.6095C59.6095 73.4407 59.7793 73.3892 59.3806 73.1897C59.0705 73.0348 57.3952 72.4369 55.6459 71.625C53.8893 70.8131 51.3797 70.754 49.8665 70.754C48.3461 70.754 33.1116 65.7496 28.3285 66.5615C25.8631 66.9823 24.2245 68.7907 23.2061 70.4439C30.8899 56.1319 48.575 56.7003 48.575 56.7003C48.5899 56.7003 48.6487 56.7076 48.7448 56.7076L48.7891 57.7187C48.7891 57.7187 49.9775 60.0807 53.417 60.3538C53.417 60.3538 53.4834 60.3611 53.5203 60.3611C53.5497 60.3611 53.6164 60.3538 53.6164 60.3538C57.0559 60.0807 58.2443 57.7187 58.2443 57.7187L58.2886 56.7149C58.7315 56.7076 59.0192 56.7001 59.0562 56.7001C59.0562 56.7001 61.4552 56.6261 64.8652 57.2388C64.8652 57.3349 64.9907 57.5562 65.4779 58.0877C66.4523 59.143 67.7514 59.6302 68.482 59.6302C68.9398 59.6302 69.9287 59.1579 70.6151 58.7962C71.0203 58.9516 71.4262 59.1141 71.8397 59.2836ZM103.711 54.7076C101.608 55.3645 101.475 55.4973 102.486 53.2608C103.49 51.0316 103.445 48.0939 100.906 47.3115C98.3674 46.5217 97.8432 50.0646 98.7215 52.4268C99.5925 54.7961 99.2014 55.6228 97.6659 54.7518C96.1379 53.8735 94.8243 55.4088 95.9166 56.6342C97.0089 57.8596 99.5922 58.9076 98.9355 59.6974C98.2786 60.4871 97.3633 59.1732 96.271 59.3875C95.1711 59.6091 95.6953 61.3581 97.5774 62.281C98.308 62.6354 98.6994 63.0486 98.9059 63.4324H101.415C101.947 62.7682 102.906 62.9231 104.412 62.281C105.94 61.624 105.46 60.3546 104.014 60.4431C102.574 60.5317 102.132 60.79 102.132 59.4763C102.132 58.1624 103.925 58.2067 105.505 57.3799C107.084 56.5454 105.815 54.0506 103.711 54.7076Z" fill="#5B5B5B"/>
<path d="M122.032 73.3597V74.4965H59.1375V73.3597H98.5525L96.2866 63.5946H105.653L103.136 73.3597H122.032ZM44.3898 74.4965H57.2403V73.3597H44.3898V74.4965ZM9.56592 74.4965H43.3712V73.3597H9.56592V74.4965ZM43.9323 41.0821C43.0392 40.6762 41.5555 40.8535 41.3711 41.9607C41.3711 41.9607 40.7806 41.4956 36.6104 39.7388C32.44 37.9895 30.7129 32.2102 32.3809 28.1801C34.049 24.1498 40.6626 21.2861 46.2573 23.3306C51.8523 25.3752 52.0294 28.0619 54.7676 28.121C57.5134 28.1801 62.7688 28.0695 64.8944 33.4355C65.485 34.9265 65.2118 38.9271 64.3114 39.7982C64.3114 39.7982 64.2671 39.8203 64.2007 39.8573C64.6436 40.1525 65.0569 40.5069 65.4186 40.9275C67.6329 43.4444 67.5517 47.1867 65.3522 49.6075L66.4224 50.8254L66.7398 50.5376L67.3819 51.2683C67.1015 51.4232 66.902 51.5636 66.6955 51.6669C66.2896 51.8661 65.773 52.2945 65.3743 52.5749L64.9611 52.1026L65.2933 51.8148L64.2231 50.597C61.5364 52.4572 57.8162 52.051 55.6095 49.5341C53.2326 46.8253 53.5058 42.6991 56.2146 40.3226C56.9231 39.7026 57.735 39.267 58.5766 39.0014C58.5545 39.0087 58.525 39.0162 58.5029 39.0235C56.8052 38.5069 54.7312 38.4256 53.4027 39.2154C51.1368 40.5587 51.0185 41.4961 48.2803 41.6141C45.542 41.7248 44.5307 43.3634 44.5307 43.3634C44.5307 43.3634 44.8254 41.4954 43.9323 41.0821ZM56.9968 41.2225C54.7825 43.1637 54.5611 46.5295 56.5096 48.7438C58.4508 50.9582 61.8166 51.1795 64.031 49.2383C66.2453 47.2971 66.4666 43.9313 64.5254 41.717C62.5842 39.5026 59.2184 39.2813 56.9968 41.2225Z" fill="#787878"/>
</svg>
