<svg width="127" height="96" viewBox="0 0 127 96" fill="none" xmlns="http://www.w3.org/2000/svg">
<path d="M123 35.8771V31.6134C123 30.8004 122.677 30.0206 122.101 29.4457C121.525 28.8708 120.745 28.5478 119.931 28.5478H106.74C106.336 28.5478 105.937 28.4685 105.565 28.3144C105.193 28.1604 104.854 27.9346 104.569 27.6499C104.284 27.3652 104.058 27.0273 103.904 26.6554C103.75 26.2834 103.67 25.8848 103.67 25.4822V21.2185C103.67 20.4055 103.994 19.6257 104.569 19.0508C105.145 18.4759 105.925 18.1529 106.74 18.1529H111.796C112.61 18.1529 113.391 17.8299 113.967 17.255C114.542 16.6801 114.866 15.9003 114.866 15.0873V10.8236C114.866 10.0106 114.542 9.2308 113.967 8.65589C113.391 8.08098 112.61 7.758 111.796 7.758H21.2961C20.4821 7.758 19.7014 8.08098 19.1258 8.65589C18.5502 9.2308 18.2268 10.0106 18.2268 10.8236V15.0873C18.2268 15.9003 18.5502 16.6801 19.1258 17.255C19.7014 17.8299 20.4821 18.1529 21.2961 18.1529C22.1102 18.1529 22.8909 18.4759 23.4665 19.0508C24.0421 19.6257 24.3655 20.4055 24.3655 21.2185V25.4822C24.3655 26.2952 24.0421 27.075 23.4665 27.6499C22.8909 28.2248 22.1102 28.5478 21.2961 28.5478H7.06937C6.25532 28.5478 5.47462 28.8708 4.899 29.4457C4.32338 30.0206 4 30.8004 4 31.6134V35.8771C4 36.6901 4.32338 37.4699 4.899 38.0448C5.47462 38.6197 6.25532 38.9427 7.06937 38.9427H21.1558C21.5589 38.9427 21.9581 39.022 22.3305 39.1761C22.7028 39.3301 23.0412 39.5559 23.3262 39.8406C23.6112 40.1253 23.8373 40.4632 23.9916 40.8351C24.1458 41.2071 24.2252 41.6057 24.2252 42.0083V46.272C24.3004 50.1735 15.7792 49.3376 14.0841 49.3376H14.0728C13.2588 49.3376 12.4781 49.6606 11.9024 50.2355C11.3268 50.8104 11.0034 51.5902 11.0034 52.4032V56.6669C11.0034 57.48 11.3268 58.2597 11.9024 58.8346C12.4781 59.4095 13.2588 59.7325 14.0728 59.7325H21.8184C22.6325 59.7325 23.4132 60.0555 23.9888 60.6304C24.5644 61.2053 24.8878 61.9851 24.8878 62.7981V67.0618C24.8878 67.8749 24.5644 68.6546 23.9888 69.2295C23.4132 69.8045 22.6325 70.1274 21.8184 70.1274H13.1169C12.3029 70.1274 11.5222 70.4504 10.9466 71.0253C10.371 71.6002 10.0476 72.38 10.0476 73.193V77.4567C10.0476 78.2698 10.371 79.0495 10.9466 79.6244C11.5222 80.1993 12.3029 80.5223 13.1169 80.5223H111.087C111.901 80.5223 112.681 80.1993 113.257 79.6244C113.833 79.0495 114.156 78.2698 114.156 77.4567V73.193C114.156 72.38 113.833 71.6002 113.257 71.0253C112.681 70.4504 111.901 70.1274 111.087 70.1274H106.068C105.254 70.1274 104.473 69.8045 103.898 69.2295C103.322 68.6546 102.999 67.8749 102.999 67.0618V62.7981C102.999 61.9851 103.322 61.2053 103.898 60.6304C104.473 60.0555 105.254 59.7325 106.068 59.7325H114.701C115.515 59.7325 116.295 59.4095 116.871 58.8346C117.446 58.2597 117.77 57.48 117.77 56.6669V52.4032C117.77 51.5902 117.446 50.8104 116.871 50.2355C116.295 49.6606 115.515 49.3376 114.701 49.3376H110.44C109.626 49.3376 108.845 49.0146 108.269 48.4397C107.694 47.8648 107.37 47.0851 107.37 46.272V42.0083C107.37 41.6057 107.45 41.2071 107.604 40.8351C107.758 40.4632 107.984 40.1253 108.269 39.8406C108.554 39.5559 108.893 39.3301 109.265 39.1761C109.637 39.022 110.037 38.9427 110.44 38.9427H119.931C120.745 38.9427 121.525 38.6197 122.101 38.0448C122.677 37.4699 123 36.6901 123 35.8771Z" fill="#EEEEEE"/>
<path d="M68.0478 28.9809C74.1176 28.9809 79.0382 24.0603 79.0382 17.9904C79.0382 11.9206 74.1176 7 68.0478 7C61.9779 7 57.0573 11.9206 57.0573 17.9904C57.0573 24.0603 61.9779 28.9809 68.0478 28.9809Z" fill="#BEBEBE"/>
<path d="M63.8792 15.4985C63.8791 15.4849 63.879 15.4712 63.879 15.4575C63.879 14.6867 64.0999 13.933 64.5139 13.2913C64.9279 12.6495 65.5165 12.1484 66.2058 11.8508C66.8951 11.5532 67.6543 11.4725 68.3879 11.6188C69.1216 11.765 69.7969 12.1318 70.3291 12.6729C70.8613 13.214 71.2265 13.9054 71.3789 14.66C71.5314 15.4147 71.4641 16.199 71.1857 16.9144C70.9073 17.6297 70.4301 18.2442 69.8141 18.6806C69.1982 19.1169 68.4709 19.3557 67.7238 19.3669V22.9172" stroke="#6D6D6D" stroke-width="4" stroke-linecap="round" stroke-linejoin="round"/>
<path d="M101.137 38.0764H35.6944L33.5605 32.7706H101.137C101.221 32.7706 101.304 32.7869 101.382 32.8184C101.46 32.85 101.53 32.8962 101.59 32.9545C101.649 33.0128 101.696 33.082 101.728 33.1582C101.761 33.2344 101.777 33.316 101.777 33.3985V37.4485C101.777 37.531 101.76 37.6126 101.728 37.6888C101.696 37.765 101.649 37.8342 101.59 37.8925C101.53 37.9508 101.46 37.997 101.382 38.0286C101.304 38.0601 101.221 38.0764 101.137 38.0764Z" fill="#6D6D6D"/>
<path d="M91.4321 66.1211H46.5763C46.3575 66.1211 46.1438 66.0557 45.9639 65.9337C45.784 65.8117 45.6464 65.6389 45.5695 65.4383L35.0764 38.0765H98.7452L92.4813 65.2996C92.4277 65.5328 92.2945 65.7412 92.1039 65.8905C91.9132 66.0397 91.6763 66.1211 91.4321 66.1211Z" fill="#D0D0D0"/>
<path d="M95.7134 52.0985C91.1024 52.5692 86.4915 52.8154 81.8806 52.9827C79.5751 53.0875 77.2696 53.1107 74.9642 53.1724L68.0478 53.2352C63.4368 53.2419 58.8259 53.1588 54.215 52.9861C49.604 52.8194 44.9931 52.572 40.3822 52.0985C44.9931 51.625 49.604 51.3775 54.215 51.2109C58.8259 51.0461 63.4368 50.9631 68.0478 50.9617L74.9642 51.0245C77.2696 51.0862 79.5751 51.1095 81.8806 51.2143C86.4915 51.3816 91.1024 51.6278 95.7134 52.0985Z" fill="#6D6D6D"/>
<path d="M86.6178 38.0765C86.3564 40.5232 85.9568 42.9395 85.5157 45.3467C85.0688 47.7526 84.5701 50.1471 84.0197 52.5301C83.4721 54.9138 82.8741 57.2864 82.2256 59.6479C81.8983 60.8279 81.5594 62.0054 81.1977 63.1779C81.0105 63.7627 80.8323 64.3496 80.6378 64.9328L80.4879 65.3759C80.429 65.5385 80.3332 65.686 80.2077 65.8072C80.0899 65.9212 79.9476 66.008 79.7911 66.0611C79.6346 66.1143 79.4679 66.1324 79.3033 66.1142C79.452 66.097 79.5951 66.0486 79.7228 65.9721C79.8505 65.8957 79.9598 65.7931 80.0431 65.6714C80.121 65.5594 80.1723 65.4317 80.1932 65.2978L80.253 64.848C80.3329 64.2395 80.429 63.6346 80.5161 63.0277C80.703 61.8167 80.9128 60.6108 81.1342 59.4074C81.5812 57.0015 82.0805 54.6072 82.6321 52.2244C83.1815 49.8411 83.7802 47.4686 84.428 45.107C85.0842 42.7473 85.782 40.3967 86.6178 38.0765ZM60.9798 66.1142C60.8085 66.1324 60.6352 66.1112 60.4737 66.0525C60.3122 65.9938 60.1669 65.8991 60.0493 65.7759C59.9338 65.6462 59.8412 65.4987 59.7751 65.3393L59.5626 64.9084C59.2793 64.3339 59.0123 63.7534 58.7363 63.1761C58.1961 62.0174 57.678 60.8505 57.1705 59.6797C56.1601 57.3366 55.1994 54.9751 54.2884 52.5954C53.3746 50.2167 52.5092 47.8203 51.6923 45.406C50.8823 42.9892 50.1131 40.5574 49.4777 38.0765C50.6678 40.3537 51.7241 42.68 52.7396 45.0213C53.75 47.3646 54.7101 49.7262 55.62 52.1063C56.532 54.4857 57.3968 56.8824 58.2143 59.2964C58.6197 60.5047 59.0142 61.7169 59.3868 62.9372C59.5672 63.5495 59.7566 64.1586 59.9297 64.7735L60.0594 65.2349C60.089 65.3796 60.1424 65.5187 60.2175 65.6468C60.3005 65.7757 60.4121 65.8847 60.5441 65.9656C60.6761 66.0466 60.825 66.0974 60.9798 66.1142Z" fill="#6D6D6D"/>
<path d="M57.8153 88.1019C60.327 88.1019 62.3631 86.0658 62.3631 83.5541C62.3631 81.0425 60.327 79.0063 57.8153 79.0063C55.3036 79.0063 53.2675 81.0425 53.2675 83.5541C53.2675 86.0658 55.3036 88.1019 57.8153 88.1019Z" fill="#BEBEBE"/>
<path d="M57.8153 85.828C59.0711 85.828 60.0892 84.81 60.0892 83.5542C60.0892 82.2983 59.0711 81.2803 57.8153 81.2803C56.5595 81.2803 55.5414 82.2983 55.5414 83.5542C55.5414 84.81 56.5595 85.828 57.8153 85.828Z" fill="#DBE8EC"/>
<path d="M83.586 88.1019C86.0976 88.1019 88.1337 86.0658 88.1337 83.5541C88.1337 81.0425 86.0976 79.0063 83.586 79.0063C81.0743 79.0063 79.0382 81.0425 79.0382 83.5541C79.0382 86.0658 81.0743 88.1019 83.586 88.1019Z" fill="#BEBEBE"/>
<path d="M83.207 85.828C84.2535 85.828 85.1019 84.81 85.1019 83.5542C85.1019 82.2983 84.2535 81.2803 83.207 81.2803C82.1605 81.2803 81.3121 82.2983 81.3121 83.5542C81.3121 84.81 82.1605 85.828 83.207 85.828Z" fill="#DBE8EC"/>
<path d="M68.5912 38.0765C69.0874 40.3964 69.4229 42.7245 69.71 45.0552C69.9904 47.3862 70.2105 49.7202 70.3702 52.0574C70.5334 54.3944 70.6378 56.7343 70.6835 59.0773C70.7207 61.4208 70.7084 63.7667 70.5338 66.1211C70.0354 63.8013 69.6994 61.4731 69.4128 59.1425C69.1326 56.8115 68.9132 54.4774 68.7548 52.1402C68.5938 49.8031 68.4901 47.463 68.4437 45.1201C68.407 42.7766 68.4187 40.4306 68.5912 38.0765Z" fill="#6D6D6D"/>
<path d="M90.4666 76.7325H50.9616C50.8202 76.7325 50.6821 76.6892 50.5656 76.6082C50.4491 76.5272 50.3596 76.4124 50.309 76.279L27.4293 15.9927H15.3104C15.1251 15.9927 14.9473 15.9183 14.8162 15.7858C14.6851 15.6533 14.6115 15.4736 14.6115 15.2862C14.6115 15.0988 14.6851 14.9191 14.8162 14.7866C14.9473 14.6541 15.1251 14.5797 15.3104 14.5797H27.9098C28.0512 14.5797 28.1893 14.623 28.3058 14.704C28.4223 14.785 28.5118 14.8998 28.5624 15.0332L51.4421 75.3194H90.4666C90.652 75.3194 90.8298 75.3939 90.9609 75.5264C91.0919 75.6589 91.1656 75.8386 91.1656 76.026C91.1656 76.2134 91.0919 76.3931 90.9609 76.5256C90.8298 76.6581 90.652 76.7325 90.4666 76.7325Z" fill="#6D6D6D"/>
<path d="M20.9355 13.8217H12.0773C11.8024 13.8217 11.5796 14.0065 11.5796 14.2345V17.1986C11.5796 17.4266 11.8024 17.6115 12.0773 17.6115H20.9355C21.2103 17.6115 21.4331 17.4266 21.4331 17.1986V14.2345C21.4331 14.0065 21.2103 13.8217 20.9355 13.8217Z" fill="#BEBEBE"/>
<path d="M68.0478 25.9491C68.2571 25.9491 68.4268 25.7794 68.4268 25.5701C68.4268 25.3608 68.2571 25.1911 68.0478 25.1911C67.8385 25.1911 67.6688 25.3608 67.6688 25.5701C67.6688 25.7794 67.8385 25.9491 68.0478 25.9491Z" fill="#F9AE2B"/>
</svg>
