<svg width="127" height="96" viewBox="0 0 127 96" fill="none" xmlns="http://www.w3.org/2000/svg">
<path d="M123.194 38.9259V34.1507C123.194 33.2401 122.898 32.3668 122.371 31.7229C121.844 31.079 121.129 30.7173 120.384 30.7173H116.91C116.165 30.7173 115.45 30.3555 114.923 29.7116C114.396 29.0678 114.1 28.1945 114.1 27.2839V22.5086C114.1 21.598 114.396 20.7247 114.923 20.0809C115.45 19.437 116.165 19.0752 116.91 19.0752H117.223C117.969 19.0752 118.684 18.7135 119.211 18.0696C119.738 17.4257 120.034 16.5524 120.034 15.6419V10.8666C120.034 9.95603 119.738 9.08273 119.211 8.43885C118.684 7.79496 117.969 7.43323 117.223 7.43323H11.5294C11.1604 7.43323 10.7949 7.52203 10.454 7.69458C10.113 7.86712 9.80321 8.12002 9.54224 8.43884C9.28128 8.75766 9.07428 9.13616 8.93304 9.55272C8.79181 9.96928 8.71912 10.4157 8.71912 10.8666V15.6419C8.71912 16.5524 9.01521 17.4257 9.54224 18.0696C10.0693 18.7135 10.7841 19.0752 11.5294 19.0752C11.8985 19.0752 12.2639 19.1641 12.6049 19.3366C12.9459 19.5091 13.2557 19.762 13.5166 20.0809C13.7776 20.3997 13.9846 20.7782 14.1258 21.1947C14.2671 21.6113 14.3398 22.0578 14.3398 22.5086V27.2839C14.3398 27.7348 14.2671 28.1812 14.1258 28.5978C13.9846 29.0143 13.7776 29.3928 13.5166 29.7116C13.2557 30.0305 12.9459 30.2834 12.6049 30.4559C12.2639 30.6285 11.8985 30.7173 11.5294 30.7173H2.81033C2.44127 30.7173 2.07583 30.8061 1.73486 30.9786C1.3939 31.1512 1.08409 31.4041 0.823126 31.7229C0.562163 32.0417 0.355156 32.4202 0.213924 32.8368C0.0726913 33.2533 0 33.6998 0 34.1507V38.9259C0 39.3768 0.0726913 39.8232 0.213924 40.2398C0.355156 40.6563 0.562163 41.0348 0.823126 41.3537C1.08409 41.6725 1.3939 41.9254 1.73486 42.0979C2.07583 42.2705 2.44127 42.3593 2.81033 42.3593H4.92602C5.29508 42.3593 5.66052 42.4481 6.00149 42.6206C6.34245 42.7932 6.65226 43.0461 6.91322 43.3649C7.17419 43.6837 7.38119 44.0622 7.52242 44.4788C7.66366 44.8953 7.73635 45.3418 7.73635 45.7927V50.5679C7.73635 51.0188 7.66366 51.4653 7.52242 51.8818C7.38119 52.2984 7.17419 52.6769 6.91322 52.9957C6.65226 53.3145 6.34245 53.5674 6.00149 53.74C5.66052 53.9125 5.29508 54.0013 4.92602 54.0013H4.91571C4.17036 54.0013 3.45555 54.3631 2.92851 55.0069C2.40147 55.6508 2.10538 56.5241 2.10538 57.4347V62.2099C2.10538 62.6608 2.17807 63.1073 2.31931 63.5238C2.46054 63.9404 2.66755 64.3189 2.92851 64.6377C3.18947 64.9565 3.49928 65.2094 3.84025 65.382C4.18121 65.5545 4.54666 65.6433 4.91572 65.6433H5.53268C6.27802 65.6433 6.99284 66.0051 7.51988 66.6489C8.04692 67.2928 8.343 68.1661 8.343 69.0767V73.852C8.343 74.7626 8.04692 75.6359 7.51988 76.2797C6.99284 76.9236 6.27802 77.2854 5.53268 77.2854H5.29106C4.922 77.2854 4.55656 77.3742 4.21559 77.5467C3.87463 77.7193 3.56482 77.9722 3.30386 78.291C3.0429 78.6098 2.83589 78.9883 2.69466 79.4048C2.55342 79.8214 2.48073 80.2679 2.48073 80.7188V85.494C2.48073 85.9449 2.55342 86.3913 2.69466 86.8079C2.83589 87.2244 3.0429 87.6029 3.30386 87.9218C3.56482 88.2406 3.87463 88.4935 4.21559 88.666C4.55656 88.8386 4.922 88.9274 5.29106 88.9274H118.732C119.478 88.9274 120.192 88.5656 120.719 87.9218C121.246 87.2779 121.543 86.4046 121.543 85.494V80.7188C121.543 79.8082 121.246 78.9349 120.719 78.291C120.192 77.6471 119.478 77.2854 118.732 77.2854H116.296C115.55 77.2854 114.835 76.9236 114.308 76.2797C113.781 75.6359 113.485 74.7626 113.485 73.852V69.0767C113.485 68.1661 113.781 67.2928 114.308 66.6489C114.835 66.0051 115.55 65.6433 116.296 65.6433H124.19C124.935 65.6433 125.65 65.2816 126.177 64.6377C126.704 63.9938 127 63.1205 127 62.2099V57.4347C127 56.9838 126.927 56.5374 126.786 56.1208C126.645 55.7043 126.438 55.3258 126.177 55.0069C125.916 54.6881 125.606 54.4352 125.265 54.2627C124.924 54.0901 124.559 54.0013 124.19 54.0013H120.298C119.929 54.0013 119.564 53.9125 119.223 53.74C118.882 53.5674 118.572 53.3145 118.311 52.9957C118.05 52.6769 117.843 52.2984 117.702 51.8818C117.56 51.4653 117.488 51.0188 117.488 50.5679V45.7927C117.488 45.3418 117.56 44.8953 117.702 44.4788C117.843 44.0622 118.05 43.6837 118.311 43.3649C118.572 43.0461 118.882 42.7932 119.223 42.6206C119.564 42.4481 119.929 42.3593 120.298 42.3593H120.384C121.129 42.3593 121.844 41.9975 122.371 41.3537C122.898 40.7098 123.194 39.8365 123.194 38.9259Z" fill="#F5F5F5"/>
<path d="M29.5186 21.8326H76.3623V81.2843H30.7083C30.3927 81.2843 30.0901 81.1589 29.867 80.9358C29.6439 80.7127 29.5186 80.4101 29.5186 80.0946V21.8326Z" fill="#B0B0B0"/>
<path d="M76.3599 21.8326H100.872V80.0946C100.872 80.4101 100.746 80.7127 100.523 80.9358C100.3 81.1589 99.9974 81.2843 99.6818 81.2843H76.3599V21.8326Z" fill="#949494"/>
<path d="M90.4846 37.3242H112.242C112.458 37.3242 112.67 37.2615 112.851 37.1438C113.032 37.026 113.175 36.8582 113.263 36.6607C113.351 36.4632 113.38 36.2445 113.346 36.031C113.312 35.8175 113.217 35.6184 113.072 35.4579L100.784 21.8326H76.0596L89.6534 36.9538C89.7582 37.0703 89.8863 37.1636 90.0296 37.2274C90.1728 37.2912 90.3278 37.3242 90.4846 37.3242Z" fill="#D0D0D0"/>
<path d="M76.3602 21.8326H29.5164L18.8083 35.5177C18.6791 35.6827 18.599 35.8807 18.577 36.0891C18.555 36.2974 18.592 36.5078 18.6837 36.6961C18.7755 36.8845 18.9184 37.0432 19.096 37.1543C19.2737 37.2653 19.479 37.3242 19.6885 37.3242H63.6939C63.8635 37.3242 64.0309 37.2856 64.1835 37.2113C64.336 37.137 64.4696 37.0289 64.5741 36.8953L76.3602 21.8326Z" fill="#D0D0D0"/>
</svg>
