<svg width="22" height="22" viewBox="0 0 22 22" fill="none" xmlns="http://www.w3.org/2000/svg">
<path d="M20.1391 16.8027C20.1391 17.1327 20.0658 17.4718 19.9099 17.8018C19.7541 18.1318 19.5524 18.4435 19.2866 18.7368C18.8374 19.2318 18.3424 19.5893 17.7833 19.8185C17.2333 20.0477 16.6374 20.1668 15.9958 20.1668C15.0608 20.1668 14.0616 19.9468 13.0074 19.4977C11.9533 19.0485 10.8991 18.4435 9.85408 17.6827C8.79992 16.9127 7.80075 16.0602 6.84742 15.116C5.90325 14.1627 5.05075 13.1635 4.28992 12.1185C3.53825 11.0735 2.93325 10.0285 2.49325 8.99266C2.05325 7.94766 1.83325 6.9485 1.83325 5.99516C1.83325 5.37183 1.94325 4.776 2.16325 4.226C2.38325 3.66683 2.73159 3.1535 3.21742 2.69516C3.80409 2.11766 4.44575 1.8335 5.12409 1.8335C5.38075 1.8335 5.63742 1.8885 5.86659 1.9985C6.10492 2.1085 6.31575 2.2735 6.48075 2.51183L8.60742 5.50933C8.77242 5.7385 8.89158 5.94933 8.97408 6.151C9.05658 6.3435 9.10242 6.536 9.10242 6.71016C9.10242 6.93016 9.03825 7.15016 8.90992 7.361C8.79075 7.57183 8.61658 7.79183 8.39658 8.01183L7.69992 8.736C7.59908 8.83683 7.55325 8.956 7.55325 9.10266C7.55325 9.176 7.56242 9.24016 7.58075 9.3135C7.60825 9.38683 7.63575 9.44183 7.65409 9.49683C7.81909 9.79933 8.10325 10.1935 8.50658 10.6702C8.91908 11.1468 9.35908 11.6327 9.83575 12.1185C10.3308 12.6043 10.8074 13.0535 11.2933 13.466C11.7699 13.8693 12.1641 14.1443 12.4758 14.3093C12.5216 14.3277 12.5766 14.3552 12.6408 14.3827C12.7141 14.4102 12.7874 14.4193 12.8699 14.4193C13.0258 14.4193 13.1449 14.3643 13.2458 14.2635L13.9424 13.576C14.1716 13.3468 14.3916 13.1727 14.6024 13.0627C14.8133 12.9343 15.0241 12.8702 15.2533 12.8702C15.4274 12.8702 15.6108 12.9068 15.8124 12.9893C16.0141 13.0718 16.2249 13.191 16.4541 13.3468L19.4883 15.501C19.7266 15.666 19.8916 15.8585 19.9924 16.0877C20.0841 16.3168 20.1391 16.546 20.1391 16.8027Z" stroke="black" stroke-width="1.5" stroke-miterlimit="10"/>
</svg>
