<svg version="1.0"
  xmlns="http://www.w3.org/2000/svg" width="512.000000pt" height="512.000000pt" viewBox="0 0 512.000000 512.000000" preserveAspectRatio="xMidYMid meet">

  <g transform="translate(0.000000,512.000000) scale(0.100000,-0.100000)" fill="#000000" stroke="none">
    <path d="M1885 5103 c-321 -68 -590 -305 -697 -613 -41 -120 -48 -181 -48
-452 0 -290 2 -299 70 -341 l35 -22 847 0 c843 0 847 0 875 21 15 11 38 35 49
52 21 30 22 46 26 299 5 249 7 275 31 366 91 343 347 592 702 683 l90 22 -955
0 c-810 0 -966 -2 -1025 -15z"/>
    <path d="M3855 4806 c-140 -33 -237 -87 -331 -183 -51 -53 -134 -179 -122
-187 1 -1 37 -15 79 -30 229 -82 421 -298 479 -537 19 -80 20 -118 20 -821 0
-406 2 -738 5 -738 3 0 42 18 87 41 l83 41 144 -71 c100 -50 155 -71 181 -71
42 0 92 29 124 73 21 28 21 33 24 955 3 1025 2 1029 -60 1164 -77 168 -219
294 -393 348 -90 28 -238 35 -320 16z"/>
    <path d="M3338 3927 l-3 -212 -37 -78 c-68 -142 -192 -235 -344 -257 -93 -13
-1636 -13 -1729 0 -150 22 -283 121 -348 257 l-32 68 -3 214 -3 213 -32 -6
c-83 -17 -213 -129 -263 -229 -55 -108 -54 -48 -54 -1817 0 -1796 -2 -1711 61
-1830 63 -118 188 -212 317 -239 37 -8 410 -11 1225 -11 1275 0 1224 -2 1338
56 107 54 203 172 233 286 16 58 17 204 14 1763 l-3 1700 -36 75 c-20 41 -53
94 -73 116 -40 47 -121 103 -183 127 l-41 16 -4 -212z m-379 -915 c19 -9 44
-30 55 -45 20 -28 21 -40 21 -407 0 -367 -1 -379 -21 -407 -11 -15 -36 -36
-55 -45 -32 -17 -94 -18 -874 -18 -821 0 -841 1 -873 20 -18 11 -41 34 -52 52
-19 31 -20 51 -20 398 0 347 1 367 20 398 11 18 34 41 52 52 32 19 52 20 873
20 780 0 842 -1 874 -18z m-1434 -1291 c65 -37 89 -136 47 -202 -53 -86 -168
-94 -241 -15 -35 37 -41 122 -13 168 46 73 129 93 207 49z m625 7 c55 -29 81
-64 87 -119 16 -159 -208 -222 -279 -79 -49 98 21 213 132 219 9 1 36 -9 60
-21z m660 -7 c66 -47 87 -123 52 -191 -71 -143 -295 -80 -279 79 6 55 32 90
88 119 50 26 97 23 139 -7z m-1294 -637 c71 -34 99 -134 58 -205 -26 -46 -97
-82 -144 -74 -88 16 -136 78 -128 164 10 104 116 161 214 115z m654 -6 c122
-84 67 -272 -80 -272 -147 0 -204 189 -81 271 46 31 116 31 161 1z m641 -1
c67 -44 88 -135 47 -197 -37 -54 -72 -74 -128 -74 -147 0 -202 188 -80 272 45
30 115 30 161 -1z"/>
    <path d="M1440 2560 l0 -170 650 0 650 0 0 170 0 170 -650 0 -650 0 0 -170z"/>
  </g>
</svg>
