<svg width="70" height="70" viewBox="0 0 70 70" fill="none" xmlns="http://www.w3.org/2000/svg">
<path d="M28.3206 40.7572L27.4157 41.0199C27.2503 40.5918 27.0849 40.0177 26.9195 39.2977C26.7638 38.5777 26.686 38.1302 26.686 37.955C25.9562 37.955 25.2168 38.062 24.4676 38.2761C23.7281 38.4902 23.1346 38.7188 22.687 38.9621C22.2492 39.2053 21.8697 39.5556 21.5486 40.0129C21.2373 40.4604 21.0816 40.9859 21.0816 41.5891C21.0816 42.1826 21.2324 42.708 21.534 43.1653C21.8454 43.6226 22.254 43.968 22.76 44.2016C23.733 44.6589 24.7497 44.8875 25.8103 44.8875C26.8806 44.8875 27.8 44.7756 28.5687 44.5518C29.3374 44.3281 29.9844 44.0313 30.5098 43.6616C31.0449 43.2918 31.5314 42.8248 31.9693 42.2605C32.4071 41.6961 32.7622 41.1221 33.0347 40.5383C33.3071 39.9448 33.5747 39.2685 33.8374 38.5096C34.1001 37.7507 34.319 37.0404 34.4942 36.3788C34.9709 34.6177 35.4477 33.1436 35.9244 31.9566C36.4109 30.7695 37.1261 29.602 38.0699 28.4539C39.0137 27.296 40.0839 26.3473 41.2807 25.6079C40.6969 25.4717 39.9526 25.4036 39.0477 25.4036C38.1428 25.4036 37.1115 25.603 35.9536 26.0019C34.8055 26.3911 33.7352 26.9409 32.7428 27.6511C31.7503 28.3517 30.8601 29.1544 30.072 30.0593C29.2936 30.9641 28.6806 31.9663 28.233 33.0658C27.7854 34.1555 27.5617 35.2501 27.5617 36.3496C29.7022 36.7874 31.2493 37.5804 32.2028 38.7285L31.5898 39.3707C30.5876 38.7188 29.8384 38.3345 29.3422 38.2177C28.846 38.101 28.5492 38.0329 28.4519 38.0134C28.0044 37.955 27.6979 37.9258 27.5325 37.9258C27.6492 38.6458 27.8584 39.4437 28.16 40.3194L28.3206 40.7572ZM47.1186 23.4916L47.4105 24.1776C46.5153 24.343 45.6834 24.5863 44.9148 24.9073L44.5207 25.0679C45.2213 25.4181 45.7759 25.8949 46.1845 26.4982C46.6029 27.1014 46.8121 27.656 46.8121 28.162C46.8121 28.6582 46.7683 29.0766 46.6808 29.4171C46.5932 29.7576 46.4862 30.0641 46.3597 30.3366C46.2332 30.609 46.0629 30.896 45.8489 31.1977C45.6445 31.4896 45.4548 31.7377 45.2797 31.942C45.1045 32.1366 44.8856 32.3604 44.6229 32.6133C44.3699 32.8566 44.1705 33.0415 44.0245 33.1679C43.7618 33.382 43.4359 33.6447 43.0467 33.9561C44.438 34.5301 45.4986 35.2112 46.2283 35.9993C46.9581 36.7777 47.3229 37.7556 47.3229 38.9329C47.3229 40.1004 46.9678 41.234 46.2575 42.3334C45.557 43.4329 44.6229 44.3086 43.4553 44.9605C42.2975 45.6124 41.0666 45.9383 39.7629 45.9383C38.3228 45.9383 37.2185 45.5345 36.4498 44.727C36.0315 44.2891 35.8223 43.7783 35.8223 43.1945C35.8223 42.6107 35.9974 42.1388 36.3477 41.7788C36.7077 41.4188 37.1407 41.2388 37.6466 41.2388C38.1526 41.2388 38.5515 41.3653 38.8434 41.6183C39.1353 41.8713 39.2812 42.168 39.2812 42.5086C39.2812 42.8394 39.2228 43.1021 39.1061 43.2967C38.9893 43.4816 38.8482 43.6275 38.6828 43.7345C38.5272 43.8416 38.3618 43.9291 38.1866 43.9972C37.885 44.114 37.6807 44.1724 37.5736 44.1724C37.5736 44.6005 38.1039 44.8681 39.1645 44.9751C39.3493 44.9945 39.5196 45.0043 39.6753 45.0043C41.0277 45.0043 42.1613 44.4935 43.0759 43.4718C43.9905 42.4502 44.4478 41.2583 44.4478 39.8961C44.4478 39.215 44.2969 38.5875 43.9953 38.0134C43.6937 37.4296 43.324 36.9626 42.8861 36.6123C42.4483 36.262 42.0104 35.9653 41.5726 35.722C41.1445 35.4691 40.7796 35.2745 40.478 35.1382C40.1764 35.002 40.0256 34.9145 40.0256 34.8755C40.0256 34.8269 40.1715 34.7053 40.4634 34.5107C40.7553 34.3161 41.1104 34.0631 41.5288 33.7517C41.9569 33.4307 42.3802 33.0658 42.7986 32.6571C43.2169 32.2485 43.5721 31.7523 43.864 31.1685C44.1559 30.575 44.3018 29.9814 44.3018 29.3879C44.3018 28.7944 44.1364 28.162 43.8056 27.4906C43.4748 26.8095 42.9932 26.3328 42.3607 26.0603C40.5315 27.189 39.2131 28.9355 38.4055 31.2998C38.0553 32.3117 37.7926 33.2215 37.6174 34.029C37.1893 36.0626 36.878 37.4734 36.6834 38.2615C36.4888 39.0399 36.0996 39.9058 35.5158 40.8594C34.9417 41.8129 34.2266 42.6691 33.3704 43.428C32.5141 44.187 31.473 44.7854 30.2471 45.2232C29.0211 45.661 27.6881 45.88 26.2481 45.88C24.273 45.88 22.6676 45.4275 21.4319 44.5226C20.4589 43.8026 19.9724 42.8005 19.9724 41.5161C19.9724 40.6502 20.1816 39.8718 20.6 39.181C21.0184 38.4902 21.5632 37.9453 22.2346 37.5464C23.5968 36.7291 25.0806 36.3204 26.686 36.3204C26.686 34.7442 27.0557 33.2166 27.7952 31.7377C28.5346 30.249 29.5125 28.9695 30.7287 27.8993C31.9547 26.8192 33.385 25.9533 35.0196 25.3014C36.6639 24.6495 38.352 24.3235 40.0839 24.3235C40.6872 24.3235 41.665 24.4062 43.0175 24.5717C44.8564 23.91 46.2235 23.55 47.1186 23.4916Z" fill="black"/>
<path d="M29.5755 60.7765C29.2809 60.7154 29.0325 60.6958 28.8303 60.7177C28.4684 60.7613 28.1461 60.9226 27.8631 61.2015C27.6373 61.4253 27.4444 61.7321 27.2845 62.1217C27.1905 62.3546 27.1221 62.5746 27.0792 62.7817C26.914 63.5778 26.9447 64.2289 27.1713 64.7352C27.3949 65.2408 27.8581 65.5665 28.5608 65.7123L30.1049 66.0326L31.1283 61.0985L29.5755 60.7765ZM30.8246 66.962L28.222 66.4222C27.3384 66.2389 26.7182 65.7833 26.3612 65.0553C26.0441 64.3995 25.9771 63.6298 26.1604 62.7462C26.3019 62.0639 26.5581 61.4737 26.929 60.9758C27.583 60.0956 28.4612 59.7698 29.5635 59.9984L32.1573 60.5364L30.8246 66.962Z" fill="black"/>
<path d="M20.2038 61.7195C19.9062 61.5561 19.6564 61.3273 19.4544 61.033C19.251 60.7413 19.1372 60.4443 19.1128 60.1422C19.0879 59.8533 19.1293 59.555 19.2371 59.2473C19.3014 59.0312 19.4496 58.7116 19.6818 58.2887L22.7558 59.9762C22.9764 59.5435 23.0636 59.1463 23.0175 58.7847C22.97 58.4257 22.7491 58.1379 22.3549 57.9215C21.9868 57.7195 21.6265 57.6797 21.2739 57.8021C21.0712 57.8742 20.8929 57.9887 20.7389 58.1454L20.0458 57.7649C20.1486 57.6209 20.3045 57.4823 20.5136 57.349C20.7186 57.2169 20.918 57.126 21.1118 57.0761C21.4406 56.9848 21.7829 56.9892 22.139 57.0896C22.3316 57.1409 22.5349 57.2254 22.749 57.3429C23.2711 57.6295 23.6097 58.0617 23.7648 58.6395C23.9185 59.2198 23.8076 59.852 23.4321 60.536C23.0623 61.2095 22.5794 61.6561 21.9831 61.8758C21.3869 62.0955 20.7938 62.0434 20.2038 61.7195ZM20.0988 59.2464C19.9599 59.5676 19.8925 59.8482 19.8966 60.0883C19.9035 60.5338 20.1327 60.8804 20.5844 61.1284C20.9081 61.3061 21.2441 61.3376 21.5924 61.223C21.9392 61.1111 22.218 60.8785 22.4288 60.5254L20.0988 59.2464Z" fill="black"/>
<path d="M14.7132 57.8029L16.476 54.1016L12.8216 55.9998L12.1845 55.3927L16.7919 53.1746L17.4127 53.7664L15.3891 58.447L14.7132 57.8029Z" fill="black"/>
<path d="M8.77299 50.9235C8.59554 50.6341 8.49208 50.3115 8.46262 49.9558C8.43062 49.6016 8.47894 49.2873 8.60757 49.0128C8.72917 48.7496 8.91306 48.5111 9.15924 48.2973C9.32222 48.1415 9.60936 47.9375 10.0207 47.6853L11.8536 50.6749C12.2597 50.4084 12.5324 50.1068 12.6716 49.7699C12.8084 49.4345 12.7592 49.0751 12.5242 48.6918C12.3047 48.3338 12.0115 48.1205 11.6446 48.052C11.4328 48.0142 11.2212 48.0252 11.0098 48.0849L10.5965 47.4108C10.7572 47.3368 10.9613 47.2937 11.2089 47.2816C11.4524 47.2686 11.6707 47.2884 11.8638 47.3412C12.1946 47.4249 12.4897 47.5985 12.7491 47.8622C12.8909 48.0023 13.0256 48.1764 13.1533 48.3846C13.4646 48.8924 13.5444 49.4356 13.3926 50.0143C13.2383 50.5944 12.8286 51.0884 12.1634 51.4963C11.5083 51.8979 10.8674 52.0463 10.2407 51.9415C9.61405 51.8366 9.1248 51.4973 8.77299 50.9235ZM9.90803 48.7237C9.6281 48.9338 9.43041 49.1441 9.31495 49.3546C9.10008 49.7449 9.1273 50.1596 9.3966 50.5988C9.58962 50.9137 9.86577 51.1077 10.225 51.1808C10.5818 51.2556 10.9392 51.1919 11.2973 50.9897L9.90803 48.7237Z" fill="black"/>
<path d="M4.46424 45.8637L4.19882 45.1047L10.3933 42.9385L10.6588 43.6976L4.46424 45.8637Z" fill="black"/>
<path d="M8.77967 38.2333C8.71437 37.7042 8.47017 37.3668 8.04708 37.2209C7.62066 37.0725 7.16212 37.0286 6.67147 37.0891C6.22812 37.1438 5.87627 37.2593 5.61595 37.4355C5.20622 37.7141 5.03529 38.1283 5.10314 38.678C5.16332 39.1657 5.39331 39.4974 5.79309 39.6731C6.19287 39.8489 6.65582 39.9043 7.18193 39.8393C7.68736 39.7769 8.09487 39.6141 8.40447 39.3509C8.71406 39.0876 8.83913 38.7151 8.77967 38.2333ZM4.40433 38.7418C4.32882 38.1299 4.46893 37.5875 4.82465 37.1145C5.18038 36.6415 5.75431 36.3561 6.54644 36.2584C7.31197 36.1639 7.96747 36.272 8.51295 36.5828C9.05843 36.8936 9.37951 37.4406 9.47617 38.2239C9.55679 38.8771 9.40061 39.423 9.00763 39.8616C8.61169 40.3005 8.0413 40.566 7.29646 40.6579C6.49842 40.7564 5.83795 40.6323 5.31506 40.2858C4.79217 39.9392 4.48859 39.4245 4.40433 38.7418Z" fill="black"/>
<path d="M8.81729 30.9168C8.87405 30.5459 8.76657 30.2146 8.49486 29.9229C8.22064 29.6279 7.77443 29.4331 7.15622 29.3385C6.7794 29.2808 6.44724 29.2857 6.15974 29.3532C5.60714 29.4796 5.28894 29.8165 5.20516 30.3641C5.12092 30.9146 5.33851 31.3335 5.85793 31.6209C6.13565 31.7748 6.50119 31.8865 6.95455 31.9559C7.31959 32.0117 7.6385 32.0048 7.91129 31.9351C8.4315 31.8038 8.73351 31.4644 8.81729 30.9168ZM4.32947 32.336L4.44772 31.5633L5.07476 31.6592C4.88418 31.4674 4.74443 31.2682 4.65551 31.0618C4.51987 30.7669 4.47975 30.4384 4.53516 30.0763C4.61715 29.5405 4.89282 29.1172 5.36217 28.8064C5.82858 28.4951 6.44301 28.3978 7.20548 28.5145C8.23583 28.6722 8.93059 29.0541 9.28973 29.6604C9.51715 30.0447 9.59617 30.4635 9.52679 30.9169C9.47229 31.2731 9.34855 31.56 9.15559 31.7775C9.04565 31.9053 8.86994 32.0396 8.62846 32.1804L11.0439 32.55L10.9223 33.3449L4.32947 32.336Z" fill="black"/>
<path d="M6.86808 22.2316C7.00853 21.9225 7.21786 21.6561 7.4961 21.4325C7.77162 21.2077 8.05911 21.0717 8.35857 21.0246C8.64472 20.978 8.94529 20.9968 9.2603 21.081C9.48065 21.1288 9.81045 21.2525 10.2497 21.4521L8.79907 24.6447C9.24718 24.832 9.6498 24.889 10.0069 24.8157C10.3613 24.7412 10.6316 24.4993 10.8176 24.0899C10.9913 23.7076 11.0038 23.3452 10.8551 23.0029C10.7679 22.8062 10.6403 22.6371 10.4724 22.4954L10.7995 21.7755C10.9509 21.8671 11.1009 22.0122 11.2495 22.2106C11.3967 22.405 11.5024 22.597 11.5668 22.7865C11.6827 23.1074 11.7041 23.4491 11.6309 23.8117C11.5942 24.0077 11.5254 24.2168 11.4243 24.4391C11.1779 24.9814 10.7726 25.3517 10.2082 25.5499C9.64106 25.7469 9.00231 25.6841 8.29193 25.3613C7.59239 25.0435 7.1106 24.5956 6.84654 24.0176C6.58248 23.4397 6.58966 22.8443 6.86808 22.2316ZM9.32624 21.9402C8.99545 21.8259 8.71052 21.7799 8.47145 21.8021C8.0278 21.8426 7.69942 22.0973 7.48629 22.5664C7.33352 22.9026 7.32741 23.24 7.46795 23.5787C7.60578 23.9161 7.8587 24.1766 8.22671 24.3601L9.32624 21.9402Z" fill="black"/>
<path d="M12.3169 17.8995C12.7083 18.2299 13.1061 18.4235 13.5103 18.4802C13.9145 18.5369 14.2713 18.3821 14.5806 18.0157C14.8207 17.7313 14.8959 17.3952 14.8061 17.0076C14.7159 16.6158 14.4421 16.2268 13.9847 15.8407C13.5228 15.4507 13.1017 15.257 12.7215 15.2595C12.339 15.2601 12.0306 15.3992 11.7962 15.6769C11.535 15.9864 11.441 16.3377 11.5144 16.7309C11.5897 17.1219 11.8572 17.5114 12.3169 17.8995ZM11.1623 15.3405C11.3986 15.0606 11.6557 14.8762 11.9335 14.7872C12.0939 14.7356 12.3181 14.7124 12.606 14.7177L10.7593 13.1587L11.2578 12.5682L16.2893 16.8157L15.8225 17.3687L15.3139 16.9393C15.4181 17.2729 15.4377 17.5798 15.3726 17.86C15.3075 18.1403 15.1684 18.4067 14.9551 18.6593C14.6112 19.0666 14.1428 19.2753 13.5498 19.2852C12.9545 19.2933 12.3724 19.0571 11.8035 18.5769C11.271 18.1273 10.9244 17.6029 10.7639 17.0036C10.603 16.4001 10.7358 15.8457 11.1623 15.3405Z" fill="black"/>
<path d="M19.8715 6.02344L20.5879 5.71042L21.5412 7.89225C21.6104 7.61176 21.7331 7.36804 21.9091 7.1611C22.084 6.95143 22.3025 6.78936 22.5645 6.67489C23.1103 6.4364 23.6346 6.43152 24.1376 6.66026C24.6421 6.88507 25.0541 7.36316 25.3737 8.09453C25.6766 8.7877 25.7603 9.43685 25.625 10.042C25.4897 10.6471 25.1245 11.0797 24.5296 11.3396C24.1967 11.4851 23.8804 11.5274 23.5808 11.4666C23.4026 11.4307 23.1899 11.3417 22.9425 11.1995L23.1875 11.7603L22.508 12.0572L19.8715 6.02344ZM24.2002 10.7084C24.5986 10.5344 24.8269 10.2461 24.8851 9.84367C24.946 9.44006 24.8631 8.979 24.6366 8.46049C24.4351 7.99929 24.1685 7.66076 23.8369 7.44489C23.5081 7.22783 23.1513 7.20336 22.7665 7.3715C22.4308 7.51817 22.1903 7.77113 22.045 8.13036C21.9025 8.48841 21.9558 8.95261 22.205 9.52297C22.3851 9.93504 22.583 10.2467 22.7988 10.4579C23.2036 10.8563 23.6708 10.9398 24.2002 10.7084Z" fill="black"/>
<path d="M31.4503 4.40063L32.329 4.26552C32.2637 4.58591 32.1214 5.31589 31.9019 6.45547C31.7384 7.31224 31.5988 8.01166 31.4833 8.55371C31.2097 9.83117 30.9991 10.6168 30.8514 10.9107C30.7038 11.2046 30.4003 11.3869 29.9411 11.4575C29.8293 11.4747 29.7418 11.4836 29.6786 11.4843C29.6184 11.4845 29.5423 11.4796 29.4504 11.4697L29.339 10.7456C29.4833 10.7626 29.587 10.7707 29.6501 10.77C29.7133 10.7694 29.7684 10.7654 29.8155 10.7582C29.9627 10.7355 30.0663 10.694 30.1263 10.6335C30.1897 10.5756 30.2395 10.5077 30.2758 10.4298C30.2869 10.404 30.3213 10.2751 30.379 10.0433C30.4368 9.81142 30.4781 9.63934 30.503 9.52703L28.0064 4.93021L28.9071 4.79171L30.7663 8.44701L31.4503 4.40063Z" fill="black"/>
<path d="M43.7306 6.60752C44.0885 6.72026 44.3826 6.75824 44.6127 6.72145C44.9744 6.66364 45.2192 6.43164 45.3472 6.02544C45.476 5.6164 45.3966 5.28852 45.109 5.04181C44.9466 4.90322 44.6807 4.77577 44.3115 4.65945L42.7989 4.183L42.1882 6.12168L43.7306 6.60752ZM43.1062 9.58629C43.626 9.75003 44.0441 9.71625 44.3605 9.48494C44.5596 9.33846 44.7017 9.1303 44.7867 8.86045C44.9299 8.40596 44.8243 8.03236 44.47 7.73966C44.2818 7.5836 44.0102 7.44965 43.6552 7.33781L41.9721 6.80767L41.2783 9.01052L43.1062 9.58629ZM42.1908 3.21398L44.8794 4.06086C45.6123 4.29171 46.0646 4.67462 46.2364 5.20959C46.3368 5.52534 46.3338 5.85223 46.2273 6.19026C46.1029 6.5851 45.8887 6.87358 45.5847 7.0557C45.4262 7.15252 45.2201 7.22188 44.9665 7.26376C45.249 7.48701 45.4456 7.70039 45.5564 7.90388C45.7517 8.26516 45.7737 8.68582 45.6225 9.16588C45.4955 9.56923 45.2541 9.89443 44.8984 10.1415C44.3667 10.511 43.689 10.5661 42.8652 10.3066L40.2192 9.47315L42.1908 3.21398Z" fill="black"/>
<path d="M49.973 8.27909L50.6767 8.6952L48.2529 12.7942L47.5492 12.3781L49.973 8.27909ZM50.8894 6.72946L51.5931 7.14556L51.1292 7.92999L50.4255 7.51389L50.8894 6.72946Z" fill="black"/>
<path d="M54.9842 9.51057L55.6061 10.0203L51.4462 15.0957L50.8243 14.586L54.9842 9.51057Z" fill="black"/>
<path d="M57.2371 14.0538L57.7833 14.6621L54.2399 17.8435L53.6938 17.2352L57.2371 14.0538ZM58.5767 12.851L59.1229 13.4593L58.4448 14.0681L57.8986 13.4599L58.5767 12.851Z" fill="black"/>
<path d="M57.5467 21.5704C57.8107 22.0336 58.166 22.251 58.6126 22.2227C59.0633 22.1955 59.5034 22.0595 59.9329 21.8147C60.321 21.5935 60.6013 21.3515 60.7737 21.0886C61.0446 20.6737 61.0428 20.2257 60.7686 19.7444C60.5252 19.3175 60.1853 19.0999 59.7487 19.0917C59.312 19.0834 58.8635 19.2105 58.4029 19.473C57.9605 19.7252 57.647 20.0324 57.4627 20.3945C57.2783 20.7567 57.3063 21.1487 57.5467 21.5704ZM61.389 19.4165C61.6942 19.9521 61.7737 20.5067 61.6276 21.0802C61.4814 21.6537 61.0616 22.138 60.3681 22.5333C59.698 22.9152 59.0514 23.0678 58.4283 22.991C57.8052 22.9142 57.2983 22.5329 56.9075 21.8473C56.5816 21.2755 56.5156 20.7115 56.7094 20.1554C56.9058 19.5979 57.33 19.1333 57.982 18.7617C58.6806 18.3635 59.3379 18.2237 59.954 18.3422C60.57 18.4607 61.0483 18.8188 61.389 19.4165Z" fill="black"/>
<path d="M63.9619 25.3553L64.146 26.0967L63.487 26.2603C63.8132 26.4125 64.0661 26.5968 64.2456 26.813C64.4251 27.0293 64.5522 27.2877 64.6268 27.5883C64.7905 28.2473 64.6712 28.7495 64.269 29.0948C64.0492 29.2844 63.7051 29.4374 63.2369 29.5536L60.2583 30.2932L60.0613 29.4998L62.9878 28.7732C63.2711 28.7028 63.489 28.6042 63.6416 28.4773C63.8962 28.2668 63.9783 27.9795 63.8879 27.6153C63.8419 27.4303 63.7854 27.2832 63.7184 27.1741C63.6018 26.976 63.4279 26.8197 63.197 26.7052C63.0115 26.6131 62.8313 26.5673 62.6565 26.5678C62.4853 26.5704 62.248 26.6094 61.9445 26.6848L59.5123 27.2887L59.3185 26.5083L63.9619 25.3553Z" fill="black"/>
<path d="M62.1084 33.9852C61.84 34.0047 61.6335 34.0685 61.4888 34.1764C61.2265 34.3747 61.0913 34.724 61.0833 35.2243C61.0786 35.522 61.1384 35.7851 61.2628 36.0135C61.3902 36.2419 61.5894 36.3582 61.8604 36.3626C62.0659 36.3659 62.2236 36.2775 62.3338 36.0976C62.4011 35.9825 62.4807 35.7545 62.5726 35.4134L62.7436 34.7772C62.8513 34.3709 62.9693 34.072 63.0975 33.8804C63.3204 33.5385 63.6239 33.3706 64.008 33.3767C64.4606 33.3839 64.8243 33.5521 65.099 33.8811C65.3737 34.2132 65.5066 34.6546 65.4978 35.2055C65.4863 35.9261 65.2666 36.4424 64.8386 36.7542C64.5674 36.9494 64.277 37.0416 63.9674 37.0307L63.9796 36.2714C64.1615 36.2594 64.3278 36.198 64.4785 36.0872C64.6928 35.906 64.8037 35.5876 64.8109 35.132C64.8158 34.8282 64.7614 34.5965 64.6478 34.4369C64.5342 34.2802 64.382 34.2003 64.1915 34.1972C63.983 34.1939 63.8146 34.294 63.6863 34.4974C63.6099 34.6154 63.5416 34.79 63.4813 35.0214L63.3433 35.5508C63.1941 36.1263 63.0524 36.5112 62.9182 36.7056C62.7078 37.015 62.3822 37.1662 61.9415 37.1591C61.5157 37.1523 61.1505 36.9842 60.846 36.6546C60.5415 36.3281 60.3945 35.8343 60.4051 35.1732C60.4164 34.4615 60.5853 33.9594 60.9117 33.6667C61.241 33.3771 61.644 33.2257 62.1208 33.2125L62.1084 33.9852Z" fill="black"/>
<path d="M62.5633 51.5798L61.8649 51.2284L62.8587 49.253L57.6947 46.6553L58.1002 45.8491L63.2642 48.4469L64.2579 46.4715L64.9563 46.8228L62.5633 51.5798Z" fill="black"/>
<path d="M57.3867 55.5383C57.1557 55.7871 56.8728 55.9735 56.5382 56.0976C56.2057 56.2237 55.8899 56.2618 55.591 56.2118C55.3047 56.1655 55.0256 56.0525 54.7534 55.873C54.5595 55.7579 54.2857 55.5363 53.9322 55.208L56.3183 52.6382C55.9524 52.3188 55.5885 52.1374 55.2266 52.0939C54.8668 52.0524 54.5339 52.1965 54.2279 52.526C53.9422 52.8337 53.8157 53.1735 53.8484 53.5453C53.869 53.7594 53.9365 53.9603 54.0509 54.1478L53.5129 54.7273C53.3983 54.5924 53.3019 54.4074 53.2237 54.1722C53.1456 53.9411 53.106 53.7256 53.1049 53.5254C53.0964 53.1843 53.1843 52.8534 53.3684 52.5326C53.4652 52.3583 53.5966 52.1817 53.7628 52.0027C54.1681 51.5662 54.6698 51.3432 55.2679 51.3337C55.8682 51.3262 56.4543 51.5879 57.0261 52.1189C57.5891 52.6417 57.9045 53.219 57.9722 53.8508C58.0398 54.4826 57.8447 55.0451 57.3867 55.5383ZM54.9626 55.037C55.2403 55.2501 55.496 55.3839 55.7298 55.4385C56.1635 55.5404 56.5556 55.4026 56.9062 55.0251C57.1575 54.7545 57.27 54.4363 57.2438 54.0706C57.2198 53.7069 57.0623 53.3798 56.7712 53.0892L54.9626 55.037Z" fill="black"/>
<path d="M50.2039 57.0723C50.0829 56.874 49.9151 56.7618 49.7004 56.7358C49.4857 56.7098 49.2791 56.7573 49.0808 56.8783C48.8393 57.0257 48.6395 57.2243 48.4815 57.4742C48.2134 57.8925 48.2081 58.3126 48.4656 58.7346L48.8029 59.2876C48.8542 59.183 48.9351 59.0726 49.0456 58.9564C49.1561 58.8401 49.2703 58.7356 49.3881 58.6428L49.7712 58.3358C50.0002 58.1507 50.1552 57.9846 50.2364 57.8374C50.3745 57.5892 50.3637 57.3342 50.2039 57.0723ZM49.3881 59.4748C49.2429 59.5913 49.1777 59.7218 49.1925 59.8662C49.1993 59.9458 49.2375 60.0429 49.3073 60.1573C49.45 60.3912 49.6371 60.509 49.8685 60.5109C50.0988 60.5169 50.3691 60.4252 50.6793 60.236C51.0378 60.0173 51.2331 59.7656 51.2652 59.4809C51.2839 59.3229 51.2417 59.1307 51.1383 58.9041L51.779 58.5133C52.0734 59.0244 52.124 59.4732 51.9307 59.8598C51.7364 60.2504 51.4321 60.5721 51.0177 60.825C50.5372 61.1181 50.0911 61.2647 49.6794 61.2647C49.2703 61.2631 48.9478 61.0691 48.7121 60.6826L47.2766 58.3297C47.2331 58.2585 47.1843 58.2098 47.1299 58.1837C47.0731 58.1591 46.9976 58.1755 46.9035 58.2329C46.873 58.2515 46.8395 58.2737 46.8029 58.2995C46.7678 58.3278 46.731 58.359 46.6925 58.393L46.383 57.8858C46.4712 57.7902 46.5409 57.7214 46.5922 57.6797C46.6435 57.6379 46.7174 57.5876 46.814 57.5287C47.0505 57.3844 47.2733 57.3636 47.4824 57.4663C47.5926 57.5211 47.7088 57.6229 47.831 57.7717C47.8591 57.5033 47.963 57.2219 48.1427 56.9274C48.3223 56.6329 48.5698 56.3895 48.885 56.1971C49.2639 55.966 49.6438 55.8912 50.0249 55.9727C50.4051 56.0582 50.7006 56.2739 50.9115 56.6196C51.1427 56.9984 51.2036 57.3642 51.0943 57.7169C50.9851 58.0697 50.7532 58.3873 50.3988 58.6698L49.3881 59.4748Z" fill="black"/>
<path d="M45.0166 63.7778L44.2419 63.9571L44.0889 63.2955C43.9562 63.5677 43.8265 63.7735 43.6998 63.9129C43.4825 64.1496 43.21 64.3059 42.8821 64.3818C42.5107 64.4677 42.1907 64.4455 41.9221 64.315C41.7703 64.2401 41.6186 64.1132 41.4672 63.9343C41.3508 64.2241 41.1889 64.4557 40.9814 64.629C40.7746 64.8053 40.5247 64.9273 40.2316 64.9951C39.6049 65.1401 39.126 65.0125 38.795 64.6122C38.6167 64.3967 38.4799 64.0829 38.3846 63.6709L37.6665 60.5678L38.4804 60.3795L39.2296 63.6175C39.3015 63.928 39.4292 64.1231 39.6127 64.2029C39.7933 64.2834 39.9954 64.2978 40.2188 64.2461C40.5263 64.1749 40.768 64.0105 40.9437 63.7528C41.1166 63.4957 41.1473 63.1264 41.0358 62.6448L40.4084 59.9333L41.2049 59.749L41.9088 62.7912C41.982 63.1075 42.0731 63.3294 42.1821 63.457C42.3514 63.6471 42.5986 63.7046 42.9235 63.6294C43.2195 63.5609 43.4628 63.3838 43.6535 63.0982C43.8412 62.8133 43.8657 62.3705 43.7267 61.7699L43.1546 59.2979L43.938 59.1166L45.0166 63.7778Z" fill="black"/>
</svg>
