<svg width="83" height="23" viewBox="0 0 83 23" fill="none" xmlns="http://www.w3.org/2000/svg">
<path d="M9.10156 17.3711L8.19336 17.6348C8.02734 17.2051 7.86133 16.6289 7.69531 15.9062C7.53906 15.1836 7.46094 14.7344 7.46094 14.5586C6.72852 14.5586 5.98633 14.666 5.23438 14.8809C4.49219 15.0957 3.89648 15.3252 3.44727 15.5693C3.00781 15.8135 2.62695 16.165 2.30469 16.624C1.99219 17.0732 1.83594 17.6006 1.83594 18.2061C1.83594 18.8018 1.9873 19.3291 2.29004 19.7881C2.60254 20.2471 3.0127 20.5938 3.52051 20.8281C4.49707 21.2871 5.51758 21.5166 6.58203 21.5166C7.65625 21.5166 8.5791 21.4043 9.35059 21.1797C10.1221 20.9551 10.7715 20.6572 11.2988 20.2861C11.8359 19.915 12.3242 19.4463 12.7637 18.8799C13.2031 18.3135 13.5596 17.7373 13.833 17.1514C14.1064 16.5557 14.375 15.877 14.6387 15.1152C14.9023 14.3535 15.1221 13.6406 15.2979 12.9766C15.7764 11.209 16.2549 9.72949 16.7334 8.53809C17.2217 7.34668 17.9395 6.1748 18.8867 5.02246C19.834 3.86035 20.9082 2.9082 22.1094 2.16602C21.5234 2.0293 20.7764 1.96094 19.8682 1.96094C18.96 1.96094 17.9248 2.16113 16.7627 2.56152C15.6104 2.95215 14.5361 3.50391 13.54 4.2168C12.5439 4.91992 11.6504 5.72559 10.8594 6.63379C10.0781 7.54199 9.46289 8.54785 9.01367 9.65137C8.56445 10.7451 8.33984 11.8438 8.33984 12.9473C10.4883 13.3867 12.041 14.1826 12.998 15.335L12.3828 15.9795C11.377 15.3252 10.625 14.9395 10.127 14.8223C9.62891 14.7051 9.33105 14.6367 9.2334 14.6172C8.78418 14.5586 8.47656 14.5293 8.31055 14.5293C8.42773 15.252 8.6377 16.0527 8.94043 16.9316L9.10156 17.3711ZM27.9688 0.0419922L28.2617 0.730469C27.3633 0.896484 26.5283 1.14062 25.7568 1.46289L25.3613 1.62402C26.0645 1.97559 26.6211 2.4541 27.0312 3.05957C27.4512 3.66504 27.6611 4.22168 27.6611 4.72949C27.6611 5.22754 27.6172 5.64746 27.5293 5.98926C27.4414 6.33105 27.334 6.63867 27.207 6.91211C27.0801 7.18555 26.9092 7.47363 26.6943 7.77637C26.4893 8.06934 26.2988 8.31836 26.123 8.52344C25.9473 8.71875 25.7275 8.94336 25.4639 9.19727C25.21 9.44141 25.0098 9.62695 24.8633 9.75391C24.5996 9.96875 24.2725 10.2324 23.8818 10.5449C25.2783 11.1211 26.3428 11.8047 27.0752 12.5957C27.8076 13.377 28.1738 14.3584 28.1738 15.54C28.1738 16.7119 27.8174 17.8496 27.1045 18.9531C26.4014 20.0566 25.4639 20.9355 24.292 21.5898C23.1299 22.2441 21.8945 22.5713 20.5859 22.5713C19.1406 22.5713 18.0322 22.166 17.2607 21.3555C16.8408 20.916 16.6309 20.4033 16.6309 19.8174C16.6309 19.2314 16.8066 18.7578 17.1582 18.3965C17.5195 18.0352 17.9541 17.8545 18.4619 17.8545C18.9697 17.8545 19.3701 17.9814 19.6631 18.2354C19.9561 18.4893 20.1025 18.7871 20.1025 19.1289C20.1025 19.4609 20.0439 19.7246 19.9268 19.9199C19.8096 20.1055 19.668 20.252 19.502 20.3594C19.3457 20.4668 19.1797 20.5547 19.0039 20.623C18.7012 20.7402 18.4961 20.7988 18.3887 20.7988C18.3887 21.2285 18.9209 21.4971 19.9854 21.6045C20.1709 21.624 20.3418 21.6338 20.498 21.6338C21.8555 21.6338 22.9932 21.1211 23.9111 20.0957C24.8291 19.0703 25.2881 17.874 25.2881 16.5068C25.2881 15.8232 25.1367 15.1934 24.834 14.6172C24.5312 14.0312 24.1602 13.5625 23.7207 13.2109C23.2812 12.8594 22.8418 12.5615 22.4023 12.3174C21.9727 12.0635 21.6064 11.8682 21.3037 11.7314C21.001 11.5947 20.8496 11.5068 20.8496 11.4678C20.8496 11.4189 20.9961 11.2969 21.2891 11.1016C21.582 10.9062 21.9385 10.6523 22.3584 10.3398C22.7881 10.0176 23.2129 9.65137 23.6328 9.24121C24.0527 8.83105 24.4092 8.33301 24.7021 7.74707C24.9951 7.15137 25.1416 6.55566 25.1416 5.95996C25.1416 5.36426 24.9756 4.72949 24.6436 4.05566C24.3115 3.37207 23.8281 2.89355 23.1934 2.62012C21.3574 3.75293 20.0342 5.50586 19.2236 7.87891C18.8721 8.89453 18.6084 9.80762 18.4326 10.6182C18.0029 12.6592 17.6904 14.0752 17.4951 14.8662C17.2998 15.6475 16.9092 16.5166 16.3232 17.4736C15.7471 18.4307 15.0293 19.29 14.1699 20.0518C13.3105 20.8135 12.2656 21.4141 11.0352 21.8535C9.80469 22.293 8.4668 22.5127 7.02148 22.5127C5.03906 22.5127 3.42773 22.0586 2.1875 21.1504C1.21094 20.4277 0.722656 19.4219 0.722656 18.1328C0.722656 17.2637 0.932617 16.4824 1.35254 15.7891C1.77246 15.0957 2.31934 14.5488 2.99316 14.1484C4.36035 13.3281 5.84961 12.918 7.46094 12.918C7.46094 11.3359 7.83203 9.80273 8.57422 8.31836C9.31641 6.82422 10.2979 5.54004 11.5186 4.46582C12.749 3.38184 14.1846 2.5127 15.8252 1.8584C17.4756 1.2041 19.1699 0.876953 20.9082 0.876953C21.5137 0.876953 22.4951 0.959961 23.8525 1.12598C25.6982 0.461914 27.0703 0.100586 27.9688 0.0419922ZM32.085 22.2344C31.6748 22.2344 31.3525 22.1074 31.1182 21.8535C30.8838 21.5996 30.7666 21.2529 30.7666 20.8135C30.7666 20.3643 30.8789 19.7588 31.1035 18.9971C31.3379 18.2256 31.5674 17.5273 31.792 16.9023C32.0264 16.2773 32.1436 15.8623 32.1436 15.6572C32.1436 15.4424 32.0752 15.335 31.9385 15.335C31.5967 15.335 31.0449 16.0088 30.2832 17.3564L29.3018 16.7852C30.7373 14.3633 32.0557 13.1523 33.2568 13.1523C34.0771 13.1523 34.4873 13.6699 34.4873 14.7051C34.4873 15.0078 34.3896 15.4912 34.1943 16.1553L33.1396 19.1729C33.0322 19.4561 32.9785 19.7148 32.9785 19.9492C32.9785 20.1738 33.0664 20.2861 33.2422 20.2861C33.5742 20.2861 34.1846 19.6709 35.0732 18.4404L35.6885 19.0117C35.1611 19.9883 34.5312 20.7695 33.7988 21.3555C33.0762 21.9414 32.5049 22.2344 32.085 22.2344ZM36.2598 8.83105C36.2598 9.22168 36.1279 9.57812 35.8643 9.90039C35.6006 10.2227 35.2441 10.3838 34.7949 10.3838C34.3457 10.3838 34.0088 10.252 33.7842 9.98828C33.5596 9.71484 33.4473 9.37305 33.4473 8.96289C33.4473 8.55273 33.584 8.19141 33.8574 7.87891C34.1406 7.55664 34.502 7.39551 34.9414 7.39551C35.3809 7.39551 35.708 7.53711 35.9229 7.82031C36.1475 8.09375 36.2598 8.43066 36.2598 8.83105ZM42.0166 2.51758H44.3896C43.9697 3.24023 43.3252 4.84668 42.4561 7.33691C41.5869 9.81738 40.791 12.3174 40.0684 14.8369C39.3555 17.3467 38.999 18.8848 38.999 19.4512C38.999 20.0078 39.0674 20.2861 39.2041 20.2861C39.6143 20.2861 40.2539 19.666 41.123 18.4258L41.7383 19.0117C41.3086 19.7539 40.8447 20.3789 40.3467 20.8867C39.4678 21.7852 38.7549 22.2344 38.208 22.2344C37.2119 22.2344 36.7139 21.6338 36.7139 20.4326C36.7139 18.6455 37.3047 15.8281 38.4863 11.9805C39.6777 8.13281 40.8545 4.97852 42.0166 2.51758ZM45.1221 22.2344C44.7119 22.2344 44.3896 22.1074 44.1553 21.8535C43.9209 21.5996 43.8037 21.2529 43.8037 20.8135C43.8037 20.3643 43.916 19.7588 44.1406 18.9971C44.375 18.2256 44.6045 17.5273 44.8291 16.9023C45.0635 16.2773 45.1807 15.8623 45.1807 15.6572C45.1807 15.4424 45.1123 15.335 44.9756 15.335C44.6338 15.335 44.082 16.0088 43.3203 17.3564L42.3389 16.7852C43.7744 14.3633 45.0928 13.1523 46.2939 13.1523C47.1143 13.1523 47.5244 13.6699 47.5244 14.7051C47.5244 15.0078 47.4268 15.4912 47.2314 16.1553L46.1768 19.1729C46.0693 19.4561 46.0156 19.7148 46.0156 19.9492C46.0156 20.1738 46.1035 20.2861 46.2793 20.2861C46.6113 20.2861 47.2217 19.6709 48.1104 18.4404L48.7256 19.0117C48.1982 19.9883 47.5684 20.7695 46.8359 21.3555C46.1133 21.9414 45.542 22.2344 45.1221 22.2344ZM49.2969 8.83105C49.2969 9.22168 49.165 9.57812 48.9014 9.90039C48.6377 10.2227 48.2812 10.3838 47.832 10.3838C47.3828 10.3838 47.0459 10.252 46.8213 9.98828C46.5967 9.71484 46.4844 9.37305 46.4844 8.96289C46.4844 8.55273 46.6211 8.19141 46.8945 7.87891C47.1777 7.55664 47.5391 7.39551 47.9785 7.39551C48.418 7.39551 48.7451 7.53711 48.96 7.82031C49.1846 8.09375 49.2969 8.43066 49.2969 8.83105ZM49.5898 18.5137C49.5898 17.7812 49.7656 17.0781 50.1172 16.4043C50.4785 15.7207 50.9424 15.1445 51.5088 14.6758C52.7588 13.6602 54.0332 13.1523 55.332 13.1523C56.6309 13.1523 57.6953 13.499 58.5254 14.1924C59.3555 14.8857 59.7705 15.7549 59.7705 16.7998C59.7705 17.835 59.4824 18.7676 58.9062 19.5977C58.3398 20.4277 57.5879 21.0771 56.6504 21.5459C55.7129 22.0049 54.6875 22.2344 53.5742 22.2344C52.4707 22.2344 51.5283 21.8877 50.7471 21.1943C49.9756 20.4912 49.5898 19.5977 49.5898 18.5137ZM54.3799 21.3262C54.8291 21.3262 55.249 21.1797 55.6396 20.8867C56.04 20.5938 56.3428 20.2129 56.5479 19.7441C56.9482 18.8457 57.1484 17.918 57.1484 16.9609C57.1484 16.0039 56.9727 15.2812 56.6211 14.793C56.2695 14.2949 55.7715 14.0459 55.127 14.0459C54.4824 14.0459 53.8428 14.4658 53.208 15.3057C52.583 16.1455 52.2705 17.2148 52.2705 18.5137C52.2705 20.3887 52.9736 21.3262 54.3799 21.3262ZM64.9561 17.8838C66.9971 14.7295 68.8281 13.1523 70.4492 13.1523C70.9961 13.1523 71.4062 13.3184 71.6797 13.6504C71.9531 13.9824 72.0898 14.4023 72.0898 14.9102C72.0898 15.418 71.8604 16.2969 71.4014 17.5469C70.9521 18.7969 70.7275 19.5732 70.7275 19.876C70.7275 20.1689 70.8008 20.3154 70.9473 20.3154C71.1426 20.3154 71.4307 20.1152 71.8115 19.7148C72.1924 19.3047 72.5293 18.875 72.8223 18.4258L73.4375 19.0117C72.8516 20.0762 72.207 20.8818 71.5039 21.4287C70.8105 21.9658 70.2441 22.2344 69.8047 22.2344C69.375 22.2344 69.0381 22.0928 68.7939 21.8096C68.5498 21.5166 68.4277 21.1211 68.4277 20.623C68.4277 20.125 68.623 19.3145 69.0137 18.1914C69.4141 17.0586 69.6143 16.2578 69.6143 15.7891C69.6143 15.3105 69.4531 15.0713 69.1309 15.0713C68.7598 15.0713 68.3203 15.3105 67.8125 15.7891C67.3047 16.2578 66.8115 16.834 66.333 17.5176C65.5713 18.6113 64.7949 19.8711 64.0039 21.2969L63.6084 22H61.543L61.9971 20.623C62.8467 18.084 63.2715 16.5801 63.2715 16.1113C63.2715 15.6328 63.1934 15.3936 63.0371 15.3936C62.7539 15.3936 62.417 15.7305 62.0264 16.4043C61.9385 16.5605 61.8652 16.6875 61.8066 16.7852C61.748 16.873 61.6797 16.9854 61.6016 17.1221C61.5332 17.249 61.4893 17.3271 61.4697 17.3564L60.4883 16.7852C61.25 15.5449 61.9482 14.6318 62.583 14.0459C63.2178 13.4502 63.8672 13.1523 64.5312 13.1523C64.834 13.1523 65.0928 13.2793 65.3076 13.5332C65.5322 13.7871 65.6445 14.0947 65.6445 14.4561C65.6445 14.8174 65.6152 15.1738 65.5566 15.5254C65.498 15.8672 65.4346 16.1553 65.3662 16.3896C65.3076 16.6143 65.2246 16.9072 65.1172 17.2686C65.0195 17.6299 64.9658 17.835 64.9561 17.8838ZM75.5762 21.8975C74.9414 21.6729 74.4873 21.4092 74.2139 21.1064C73.9404 20.7939 73.8037 20.4521 73.8037 20.0811C73.8037 19.71 73.9062 19.4023 74.1113 19.1582C74.3164 18.9141 74.585 18.792 74.917 18.792C75.2588 18.792 75.5566 18.8945 75.8105 19.0996C76.0742 19.2949 76.2061 19.5781 76.2061 19.9492C76.2061 20.3105 75.9814 20.6133 75.5322 20.8574C75.9033 21.1797 76.4697 21.3408 77.2314 21.3408C78.8818 21.3408 79.707 20.8721 79.707 19.9346C79.707 19.3486 79.1846 18.8799 78.1396 18.5283C77.71 18.3818 77.2754 18.2256 76.8359 18.0596C76.4062 17.8936 76.0303 17.6494 75.708 17.3271C75.3857 17.0049 75.21 16.6143 75.1807 16.1553C75.1807 15.4912 75.4004 14.9297 75.8398 14.4707C76.6699 13.5918 77.9102 13.1523 79.5605 13.1523C80.3711 13.1523 81.0889 13.3086 81.7139 13.6211C82.3389 13.9238 82.6514 14.3193 82.6514 14.8076C82.6514 15.2959 82.5244 15.6475 82.2705 15.8623C82.0264 16.0771 81.7383 16.1846 81.4062 16.1846C81.0742 16.1846 80.791 16.0967 80.5566 15.9209C80.332 15.7354 80.2197 15.4814 80.2197 15.1592C80.2197 14.8369 80.4102 14.5586 80.791 14.3242C80.5566 14.1582 80.1514 14.0752 79.5752 14.0752C78.999 14.0752 78.4814 14.1631 78.0225 14.3389C77.5635 14.5049 77.334 14.7344 77.334 15.0273C77.334 15.3203 77.5 15.5645 77.832 15.7598C78.1738 15.9551 78.584 16.1357 79.0625 16.3018C79.541 16.4678 80.0195 16.6582 80.498 16.873C80.9766 17.0879 81.3818 17.3955 81.7139 17.7959C82.0557 18.1963 82.2266 18.6895 82.2266 19.2754C82.2266 19.8613 81.9873 20.3936 81.5088 20.8721C80.6006 21.7803 79.3604 22.2344 77.7881 22.2344C76.958 22.2344 76.2207 22.1221 75.5762 21.8975Z" fill="black"/>
</svg>
