<svg width="22" height="22" viewBox="0 0 22 22" fill="none" xmlns="http://www.w3.org/2000/svg">
<path d="M8.24992 20.1666H13.7499C18.3333 20.1666 20.1666 18.3333 20.1666 13.75V8.24998C20.1666 3.66665 18.3333 1.83331 13.7499 1.83331H8.24992C3.66659 1.83331 1.83325 3.66665 1.83325 8.24998V13.75C1.83325 18.3333 3.66659 20.1666 8.24992 20.1666Z" stroke="white" stroke-width="1.375" stroke-linecap="round" stroke-linejoin="round"/>
<path d="M14.2083 16.9584C15.2167 16.9584 16.0417 16.1334 16.0417 15.125V6.87502C16.0417 5.86669 15.2167 5.04169 14.2083 5.04169C13.2 5.04169 12.375 5.86669 12.375 6.87502V15.125C12.375 16.1334 13.1908 16.9584 14.2083 16.9584Z" stroke="white" stroke-width="1.375" stroke-linecap="round" stroke-linejoin="round"/>
<path d="M7.79159 16.9583C8.79992 16.9583 9.62492 16.1333 9.62492 15.125V11.9166C9.62492 10.9083 8.79992 10.0833 7.79159 10.0833C6.78325 10.0833 5.95825 10.9083 5.95825 11.9166V15.125C5.95825 16.1333 6.77409 16.9583 7.79159 16.9583Z" stroke="white" stroke-width="1.375" stroke-linecap="round" stroke-linejoin="round"/>
</svg>
