<svg width="37" height="37" viewBox="0 0 37 37" fill="none" xmlns="http://www.w3.org/2000/svg">
<rect width="37" height="37" rx="10" transform="matrix(1 0 0 -1 0 37)" fill="#191919"/>
<path d="M15.2499 28.1666H20.7499C25.3333 28.1666 27.1666 26.3333 27.1666 21.75V16.25C27.1666 11.6666 25.3333 9.83331 20.7499 9.83331H15.2499C10.6666 9.83331 8.83325 11.6666 8.83325 16.25V21.75C8.83325 26.3333 10.6666 28.1666 15.2499 28.1666Z" stroke="white" stroke-width="1.375" stroke-linecap="round" stroke-linejoin="round"/>
<path d="M21.2083 24.9584C22.2167 24.9584 23.0417 24.1334 23.0417 23.125V14.875C23.0417 13.8667 22.2167 13.0417 21.2083 13.0417C20.2 13.0417 19.375 13.8667 19.375 14.875V23.125C19.375 24.1334 20.1908 24.9584 21.2083 24.9584Z" stroke="white" stroke-width="1.375" stroke-linecap="round" stroke-linejoin="round"/>
<path d="M14.7916 24.9583C15.7999 24.9583 16.6249 24.1333 16.6249 23.125V19.9166C16.6249 18.9083 15.7999 18.0833 14.7916 18.0833C13.7833 18.0833 12.9583 18.9083 12.9583 19.9166V23.125C12.9583 24.1333 13.7741 24.9583 14.7916 24.9583Z" stroke="white" stroke-width="1.375" stroke-linecap="round" stroke-linejoin="round"/>
</svg>
