<svg width="22" height="23" viewBox="0 0 22 23" fill="none" xmlns="http://www.w3.org/2000/svg">
<path d="M17.334 13.9681C17.334 15.1506 18.3057 16.1131 19.4882 16.1131C19.4882 19.5506 18.6265 20.4123 15.189 20.4123H6.59067C3.15317 20.4123 2.2915 19.5506 2.2915 16.1131V15.6915C3.474 15.6915 4.44567 14.7198 4.44567 13.5373C4.44567 12.3548 3.474 11.3831 2.2915 11.3831V10.9615C2.30067 7.52396 3.15317 6.66229 6.59067 6.66229H15.1798C18.6173 6.66229 19.479 7.52396 19.479 10.9615V11.8231C18.2965 11.8231 17.334 12.7765 17.334 13.9681Z" stroke="#292D32" stroke-width="1.5" stroke-linecap="round" stroke-linejoin="round"/>
<path d="M14.8603 6.6623H6.52783L9.21367 3.97647C11.4045 1.78564 12.5045 1.78564 14.6953 3.97647L15.2453 4.52647C14.6678 5.10397 14.5303 5.95647 14.8603 6.6623Z" stroke="#292D32" stroke-width="1.5" stroke-linecap="round" stroke-linejoin="round"/>
<path d="M9.05566 6.66245L9.05566 20.4124" stroke="#292D32" stroke-width="1.5" stroke-linecap="round" stroke-linejoin="round" stroke-dasharray="5 5"/>
</svg>
