<svg width="22" height="22" viewBox="0 0 22 22" fill="none" xmlns="http://www.w3.org/2000/svg">
<path d="M11 20C12.1819 20 13.3522 19.7672 14.4442 19.3149C15.5361 18.8626 16.5282 18.1997 17.364 17.364C18.1997 16.5282 18.8626 15.5361 19.3149 14.4441C19.7672 13.3522 20 12.1819 20 11C20 9.8181 19.7672 8.64777 19.3149 7.55584C18.8626 6.46391 18.1997 5.47176 17.364 4.63603C16.5282 3.80031 15.5361 3.13737 14.4441 2.68508C13.3522 2.23279 12.1819 2 11 2L11 11V20Z" fill="black"/>
<circle r="8.1" transform="matrix(1 0 0 -1 11 11)" stroke="black" stroke-width="1.8"/>
</svg>
