<svg width="22" height="23" viewBox="0 0 22 23" fill="none" xmlns="http://www.w3.org/2000/svg">
<path d="M11.9165 10.7208H6.4165" stroke="#292D32" stroke-width="1.5" stroke-linecap="round" stroke-linejoin="round"/>
<path d="M1.8335 10.7208V6.48583C1.8335 4.61583 3.346 3.10333 5.216 3.10333H10.3677C12.2377 3.10333 13.7502 4.2675 13.7502 6.1375" stroke="#292D32" stroke-width="1.5" stroke-linecap="round" stroke-linejoin="round"/>
<path d="M16.0235 11.6833C15.5651 12.1233 15.3452 12.8017 15.5285 13.4983C15.7577 14.3508 16.601 14.8917 17.481 14.8917H18.3335V16.2208C18.3335 18.2467 16.6927 19.8875 14.6668 19.8875H5.50016C3.47433 19.8875 1.8335 18.2467 1.8335 16.2208V9.80418C1.8335 7.77835 3.47433 6.13751 5.50016 6.13751H14.6668C16.6835 6.13751 18.3335 7.78751 18.3335 9.80418V11.1333H17.3435C16.8301 11.1333 16.3626 11.335 16.0235 11.6833Z" stroke="#292D32" stroke-width="1.5" stroke-linecap="round" stroke-linejoin="round"/>
<path d="M20.1665 12.0683V13.9567C20.1665 14.47 19.7448 14.8917 19.2223 14.8917H17.4532C16.4632 14.8917 15.5557 14.1675 15.4732 13.1775C15.4182 12.6 15.6382 12.0592 16.0232 11.6833C16.3624 11.335 16.8299 11.1333 17.3432 11.1333H19.2223C19.7448 11.1333 20.1665 11.555 20.1665 12.0683Z" stroke="#292D32" stroke-width="1.5" stroke-linecap="round" stroke-linejoin="round"/>
</svg>
