<?xml version="1.0" standalone="no"?>
<!DOCTYPE svg PUBLIC "-//W3C//DTD SVG 20010904//EN"
 "http://www.w3.org/TR/2001/REC-SVG-20010904/DTD/svg10.dtd">
<svg version="1.0" xmlns="http://www.w3.org/2000/svg"
 width="800.000000pt" height="711.000000pt" viewBox="0 0 800.000000 711.000000"
 preserveAspectRatio="xMidYMid meet">

<g transform="translate(0.000000,711.000000) scale(0.100000,-0.100000)"
fill="#000000" stroke="none">
<path d="M3544 7080 c-109 -28 -209 -80 -406 -212 -100 -66 -213 -138 -253
-159 -40 -22 -180 -75 -313 -118 -331 -109 -418 -155 -539 -284 -68 -73 -121
-151 -223 -327 -136 -234 -169 -274 -398 -489 -121 -114 -242 -246 -242 -265
0 -3 16 -6 36 -6 32 0 49 13 182 143 318 309 352 350 492 592 150 262 245 369
393 446 45 23 188 77 318 120 130 43 272 95 315 117 44 22 158 93 254 157 303
204 407 242 629 232 69 -3 205 -18 301 -32 218 -33 377 -31 645 10 146 22 202
26 300 22 190 -8 260 -37 568 -244 214 -143 277 -173 552 -262 418 -136 488
-190 697 -545 56 -94 121 -200 146 -236 24 -36 144 -164 267 -285 126 -126
238 -246 260 -279 81 -125 114 -258 135 -536 22 -284 38 -356 140 -620 92
-237 110 -304 117 -425 9 -155 -9 -228 -141 -570 -60 -155 -93 -291 -106 -440
-33 -379 -42 -431 -82 -532 -44 -109 -97 -174 -314 -388 -117 -115 -235 -239
-261 -275 -27 -37 -92 -139 -143 -229 -161 -277 -247 -375 -403 -457 -37 -19
-175 -71 -307 -114 -132 -43 -275 -96 -318 -118 -42 -21 -160 -94 -262 -162
-364 -242 -456 -263 -890 -200 -265 38 -359 38 -642 -1 -184 -26 -244 -30
-343 -26 -181 8 -262 42 -557 238 -248 165 -291 185 -611 284 -187 58 -327
128 -406 201 -79 73 -137 154 -259 359 -152 258 -186 300 -396 493 -294 270
-358 394 -385 751 -18 229 -16 221 -58 221 l-35 0 6 -67 c3 -38 8 -104 12
-148 15 -211 57 -377 121 -483 62 -101 109 -154 300 -338 201 -193 243 -244
345 -419 136 -233 174 -288 252 -371 82 -88 176 -154 281 -197 33 -14 153 -55
267 -92 247 -79 315 -113 556 -273 203 -135 289 -180 407 -213 114 -31 266
-29 500 7 245 38 413 38 655 0 213 -33 381 -37 485 -11 109 27 234 91 435 225
102 67 216 138 255 157 38 20 177 71 307 114 453 150 512 198 763 624 49 83
106 175 128 205 22 30 138 152 258 270 136 135 232 238 257 277 83 130 123
280 142 533 24 310 38 377 139 637 109 281 116 312 116 488 0 177 -6 203 -122
504 -89 232 -107 309 -128 570 -26 314 -61 449 -150 587 -22 34 -135 155 -265
284 -242 240 -259 262 -411 523 -140 242 -249 363 -398 440 -72 38 -190 82
-409 151 -183 59 -267 102 -487 249 -99 66 -216 137 -260 158 -180 87 -342
100 -653 52 -241 -37 -419 -37 -663 0 -215 33 -387 36 -495 7z"/>
<path d="M3651 6521 c-17 -31 -3 -53 33 -49 27 3 31 7 31 33 0 25 -4 31 -27
33 -18 2 -30 -3 -37 -17z"/>
<path d="M4386 6478 c-3 -13 -7 -74 -8 -135 l-3 -113 32 0 33 0 0 85 c0 93 16
125 63 125 45 0 49 -11 48 -119 l-2 -101 30 0 29 0 7 86 c10 115 -3 160 -52
181 -32 13 -41 13 -74 0 -32 -13 -38 -13 -43 -1 -9 24 -55 17 -60 -8z"/>
<path d="M4035 6483 c-69 -19 -115 -100 -96 -171 16 -60 69 -102 127 -102 85
0 144 55 144 135 0 91 -90 161 -175 138z m74 -63 c25 -13 45 -64 37 -94 -9
-37 -34 -56 -72 -56 -47 0 -74 29 -74 79 0 61 58 99 109 71z"/>
<path d="M3403 6450 c-22 -9 -22 -9 34 -177 30 -92 59 -172 63 -177 5 -4 19
-4 33 0 l25 9 -57 174 c-31 96 -61 176 -66 177 -6 1 -20 -1 -32 -6z"/>
<path d="M4825 6425 c-48 -47 -23 -106 63 -149 35 -18 39 -28 17 -46 -17 -14
-49 -5 -74 22 -16 17 -22 18 -40 6 -27 -17 -26 -24 5 -53 46 -43 124 -45 164
-5 39 39 14 102 -53 137 -40 20 -49 34 -35 50 13 16 45 8 73 -17 18 -17 22
-17 40 -4 25 19 13 42 -36 66 -49 26 -95 23 -124 -7z"/>
<path d="M3694 6420 l-22 -8 29 -124 c16 -68 29 -126 29 -129 0 -3 14 -4 30
-1 17 2 30 9 30 16 -2 33 -58 250 -66 252 -5 2 -19 -1 -30 -6z"/>
<path d="M3129 6349 c-9 -18 -8 -25 7 -39 37 -35 87 13 52 48 -19 19 -46 14
-59 -9z"/>
<path d="M5515 6305 c-71 -25 -125 -106 -125 -185 1 -39 35 -105 66 -127 39
-28 109 -46 145 -38 24 5 29 12 29 36 0 28 -1 29 -51 29 -45 0 -55 4 -85 34
-26 26 -34 42 -34 70 0 74 51 126 121 126 25 0 41 -10 71 -41 36 -37 42 -40
64 -30 23 10 24 12 10 38 -22 43 -67 80 -111 92 -49 13 -51 13 -100 -4z"/>
<path d="M3192 6258 c-13 -6 -21 -16 -19 -22 3 -6 26 -62 52 -124 43 -100 50
-112 69 -106 12 3 24 9 29 13 7 7 -93 252 -103 250 -3 0 -15 -5 -28 -11z"/>
<path d="M2793 6147 c-40 -24 -76 -46 -79 -50 -5 -5 147 -275 172 -306 1 -1
42 20 89 49 94 57 123 95 111 145 -9 34 -58 85 -83 85 -15 0 -19 7 -19 35 0
23 -8 43 -24 60 -36 38 -81 33 -167 -18z m132 -46 c9 -28 -2 -44 -47 -70 l-41
-23 -18 23 c-26 34 -24 44 14 67 42 27 84 28 92 3z m85 -111 c6 -12 9 -28 6
-38 -7 -20 -93 -75 -107 -67 -10 7 -42 66 -37 69 24 19 97 56 110 56 10 0 22
-9 28 -20z"/>
<path d="M5850 6008 c-94 -63 -88 -190 11 -240 45 -23 86 -23 127 2 51 31 74
76 69 133 -9 103 -124 161 -207 105z m127 -60 c32 -30 30 -72 -6 -109 -53 -53
-125 -26 -125 46 0 71 81 110 131 63z"/>
<path d="M6173 5710 l-93 -97 23 -21 23 -22 64 65 c64 65 84 74 121 55 36 -20
23 -57 -43 -126 l-62 -65 23 -22 22 -22 55 58 c75 77 90 84 123 59 14 -10 27
-26 29 -35 2 -8 -27 -47 -64 -87 l-67 -71 21 -22 22 -21 36 34 c73 69 114 130
114 166 0 44 -34 80 -84 89 -30 6 -36 11 -36 32 0 31 -51 83 -80 83 -15 0 -20
5 -17 14 3 8 -4 23 -16 34 l-22 19 -92 -97z"/>
<path d="M6545 5264 c-169 -124 -165 -119 -138 -145 l21 -21 48 37 49 37 8
-35 c19 -81 107 -118 186 -78 97 50 109 180 21 226 -17 9 -28 20 -25 25 8 13
-13 50 -28 49 -7 0 -70 -43 -142 -95z m178 -36 c25 -30 21 -65 -12 -99 -32
-31 -45 -34 -85 -19 -57 21 -59 96 -3 131 37 23 73 18 100 -13z"/>
<path d="M2770 5260 c-90 -13 -220 -55 -312 -101 l-78 -39 -126 9 c-440 34
-863 -117 -1176 -417 -54 -53 -126 -131 -159 -175 -122 -162 -211 -391 -225
-582 l-7 -82 -101 -6 c-194 -12 -320 -62 -432 -172 -196 -193 -201 -459 -10
-649 120 -120 248 -165 489 -173 175 -6 263 4 392 44 300 95 515 298 656 624
56 129 93 237 170 501 86 297 124 402 198 553 125 256 309 448 523 545 86 38
167 58 271 66 85 7 104 16 87 43 -10 17 -79 22 -160 11z m-599 -306 c-131
-123 -243 -278 -335 -460 -70 -140 -105 -225 -211 -519 -140 -389 -248 -586
-391 -713 -67 -60 -226 -143 -320 -166 -159 -41 -389 -39 -509 3 -235 83 -296
321 -125 492 76 76 190 121 340 135 l75 6 23 -98 c29 -124 35 -139 66 -159 19
-13 29 -14 45 -5 27 14 27 40 -4 146 -14 47 -25 90 -25 96 0 21 182 -32 287
-85 49 -24 68 -29 80 -21 83 52 3 140 -183 200 -58 19 -125 37 -150 41 l-44 6
0 68 c0 120 36 253 108 394 174 344 548 618 941 689 42 8 149 15 239 15 l162
1 -69 -66z"/>
<path d="M2541 5068 c-39 -11 -69 -28 -129 -76 l-43 -34 39 -27 c80 -59 134
-149 154 -261 15 -80 0 -162 -49 -260 -45 -92 -144 -193 -286 -294 -53 -37
-100 -72 -102 -77 -3 -5 32 -27 77 -50 110 -55 220 -132 269 -187 22 -25 54
-74 71 -110 27 -55 33 -79 36 -157 2 -50 -1 -117 -8 -148 -31 -150 -146 -298
-284 -363 -62 -30 -91 -37 -158 -41 -126 -8 -241 21 -255 63 -2 5 29 23 67 41
64 29 73 36 91 79 52 116 -30 212 -172 202 -106 -8 -174 -87 -173 -203 0 -72
25 -125 83 -178 82 -74 184 -107 331 -107 224 0 419 87 581 258 87 92 140 177
176 287 36 108 38 261 5 346 -52 131 -145 223 -316 311 l-100 51 44 35 c77 62
214 205 254 266 88 133 113 300 64 407 -32 68 -79 127 -143 177 -70 55 -84 61
-124 50z"/>
<path d="M6845 4950 c-17 -5 -45 -25 -63 -43 -58 -60 -52 -149 12 -188 17 -10
25 -19 19 -19 -17 0 -16 -21 0 -44 12 -17 20 -14 128 39 63 32 115 58 117 60
8 7 -23 55 -34 51 -8 -3 -12 6 -11 28 2 80 -86 141 -168 116z m95 -80 c26 -26
26 -74 0 -100 -62 -62 -163 -10 -131 68 21 51 94 69 131 32z"/>
<path d="M7005 4521 c-108 -37 -125 -50 -106 -80 8 -12 20 -11 83 7 40 12 83
22 95 22 30 0 53 -26 53 -60 0 -25 -6 -31 -52 -48 -29 -11 -72 -26 -96 -33
-36 -10 -41 -15 -36 -33 3 -12 10 -25 14 -30 11 -11 194 50 213 72 8 9 18 27
21 39 8 25 -13 82 -38 102 -11 9 -13 17 -6 21 14 9 -5 60 -22 59 -7 0 -62 -17
-123 -38z"/>
<path d="M7125 4090 l-120 -80 -52 14 -53 14 0 -29 c0 -16 6 -32 13 -35 7 -2
96 -24 198 -47 l184 -43 3 29 c2 16 1 31 -2 34 -3 3 -47 14 -97 24 -51 11 -94
21 -96 23 -2 2 33 27 79 56 46 29 84 54 86 55 5 4 -11 65 -17 65 -3 0 -60 -36
-126 -80z"/>
<path d="M3729 4113 c-137 -315 -275 -779 -286 -963 -5 -91 -4 -97 18 -122 23
-26 40 -32 85 -29 30 1 107 66 155 130 l40 54 -20 21 -20 20 -23 -30 c-39 -50
-66 -74 -84 -74 -14 0 -16 8 -11 63 12 138 191 706 304 965 4 9 -13 12 -66 12
l-72 0 -20 -47z"/>
<path d="M3304 3870 c-50 -20 -71 -101 -38 -148 22 -32 92 -31 124 3 29 31 32
98 4 125 -24 23 -62 32 -90 20z"/>
<path d="M4074 3870 c-50 -20 -71 -101 -38 -148 23 -33 92 -31 125 4 63 67 -4
179 -87 144z"/>
<path d="M3185 3521 c-45 -21 -106 -82 -154 -153 l-31 -47 22 -15 c33 -24 40
-20 76 35 32 49 56 68 69 55 4 -3 -12 -65 -35 -136 -23 -72 -42 -150 -42 -174
0 -138 151 -108 262 52 29 42 29 44 12 63 -17 19 -18 18 -70 -38 -43 -46 -56
-55 -66 -45 -10 10 -3 41 35 151 26 77 47 157 47 179 0 75 -54 106 -125 73z"/>
<path d="M3955 3521 c-45 -21 -106 -82 -154 -153 l-31 -47 22 -15 c33 -24 40
-20 76 35 32 49 56 68 69 55 4 -3 -12 -65 -35 -136 -47 -146 -53 -209 -22
-240 20 -20 37 -24 75 -20 45 5 149 98 185 165 12 23 11 27 -6 39 -17 13 -23
10 -71 -42 -42 -45 -55 -54 -65 -44 -10 10 -3 41 35 151 26 76 47 156 47 178
0 76 -54 108 -125 74z"/>
<path d="M4477 3530 c-226 -56 -351 -302 -228 -451 66 -79 200 -104 325 -60
201 71 296 294 181 428 -57 67 -186 105 -278 83z m103 -65 c45 -23 63 -67 63
-155 1 -178 -95 -293 -206 -247 -42 18 -66 58 -74 125 -12 102 40 229 109 272
39 24 69 25 108 5z"/>
<path d="M5036 3525 c-47 -16 -84 -51 -142 -130 -49 -66 -53 -80 -25 -95 31
-16 38 -13 64 33 33 56 54 74 69 59 14 -14 0 -82 -53 -248 -22 -67 -39 -125
-39 -128 0 -4 28 -6 62 -4 l62 3 47 83 c98 170 181 276 242 309 66 34 74 -16
25 -164 -54 -168 -40 -245 45 -245 57 0 134 58 196 150 22 32 22 34 5 53 -17
19 -18 18 -70 -37 -49 -53 -74 -63 -74 -29 0 8 18 68 40 134 56 167 53 228
-16 257 -79 33 -196 -38 -309 -188 -25 -33 -45 -58 -45 -54 0 3 7 31 15 63 37
143 -1 213 -99 178z"/>
<path d="M5899 3530 c-137 -24 -222 -131 -173 -218 21 -38 58 -61 148 -94 100
-35 131 -84 82 -133 -30 -30 -120 -43 -177 -26 l-39 12 20 28 c35 46 0 101
-64 101 -42 0 -69 -35 -63 -82 7 -52 28 -73 96 -99 65 -24 186 -29 247 -9 94
31 154 96 154 166 0 77 -54 126 -187 174 -57 21 -103 51 -103 68 1 38 103 72
170 57 29 -6 30 -8 16 -24 -46 -50 17 -119 83 -91 27 11 51 46 51 74 0 22 -42
68 -74 81 -43 18 -132 25 -187 15z"/>
<path d="M7050 3422 l0 -30 98 -6 c53 -3 136 -9 185 -12 l87 -6 0 30 c0 38 -4
39 -212 48 l-158 6 0 -30z"/>
<path d="M7026 3184 c-4 -15 -5 -28 -3 -31 4 -3 247 -43 264 -43 2 0 3 14 1
32 l-3 32 -115 18 c-146 22 -137 22 -144 -8z"/>
<path d="M7352 3161 c-8 -4 -12 -21 -10 -37 2 -23 8 -29 27 -29 31 0 50 28 35
53 -13 20 -34 25 -52 13z"/>
<path d="M6989 2952 c-5 -14 -6 -28 -2 -32 4 -4 40 -17 80 -29 79 -23 103 -41
103 -75 0 -52 -34 -57 -145 -22 l-76 24 -10 -26 c-5 -14 -6 -29 -2 -33 4 -4
40 -17 80 -28 79 -24 103 -41 103 -74 -1 -55 -24 -60 -138 -28 -45 13 -84 22
-86 20 -2 -2 -6 -15 -9 -29 -6 -25 -3 -27 83 -53 112 -34 144 -34 175 -2 26
25 34 85 16 114 -7 10 1 24 26 47 33 31 35 37 31 78 -4 33 -2 43 7 40 13 -5
31 43 20 54 -3 3 -60 23 -126 43 l-120 37 -10 -26z"/>
<path d="M6791 2414 c-6 -15 -10 -28 -9 -29 2 -2 54 -28 117 -60 108 -53 116
-56 128 -39 7 10 13 23 13 29 0 8 -218 125 -234 125 -1 0 -8 -12 -15 -26z"/>
<path d="M7078 2275 c-20 -45 38 -79 62 -36 13 25 13 27 -6 45 -22 23 -43 20
-56 -9z"/>
<path d="M6660 2174 c-10 -17 -11 -28 -4 -32 6 -4 45 -29 87 -55 l77 -48 -15
-28 c-13 -27 -13 -29 10 -41 22 -12 26 -11 43 10 19 23 20 23 45 7 24 -16 26
-15 42 10 17 25 17 27 -1 40 -10 7 -22 13 -27 13 -5 0 -6 8 -2 18 4 9 9 22 12
29 2 6 -6 17 -18 24 -19 10 -25 9 -39 -9 -16 -20 -18 -19 -101 34 -46 29 -87
54 -90 54 -3 0 -12 -12 -19 -26z"/>
<path d="M2331 1895 c-68 -46 -128 -88 -134 -94 -7 -7 6 -36 46 -96 32 -47 60
-85 65 -85 4 0 15 7 25 15 18 13 17 17 -24 76 l-42 62 29 24 c16 12 32 23 35
23 4 0 21 -22 39 -50 36 -55 34 -54 61 -40 26 14 24 24 -13 77 l-33 45 24 19
c13 10 27 19 32 19 4 0 27 -27 49 -61 40 -57 43 -60 63 -46 12 8 21 18 21 23
-2 13 -108 174 -114 173 -3 0 -61 -38 -129 -84z"/>
<path d="M6470 1904 c-25 -23 -44 -51 -50 -75 -13 -47 -7 -59 26 -59 19 0 24
5 24 26 0 33 50 84 84 84 13 0 27 -4 30 -8 2 -4 -22 -39 -54 -77 -33 -39 -59
-73 -60 -78 -1 -17 67 -47 106 -47 47 0 86 25 109 70 46 90 -27 200 -132 200
-35 0 -50 -7 -83 -36z m170 -104 c0 -37 -31 -70 -66 -70 -22 0 -24 2 -12 18
68 93 78 100 78 52z"/>
<path d="M6184 1606 c-19 -19 -34 -41 -34 -50 0 -8 -6 -13 -12 -11 -16 5 -51
-20 -47 -33 5 -14 230 -266 241 -271 5 -1 18 5 28 14 19 17 19 19 -21 66 l-40
48 34 14 c52 22 77 61 77 120 0 45 -4 53 -44 93 -40 41 -47 44 -96 44 -46 0
-56 -4 -86 -34z m138 -53 c36 -34 38 -83 6 -113 -56 -53 -163 34 -127 103 16
29 28 37 63 37 19 0 40 -10 58 -27z"/>
<path d="M2704 1570 c-57 -23 -70 -97 -28 -167 30 -52 29 -87 -3 -91 -36 -5
-73 39 -73 88 0 33 -3 40 -19 40 -11 0 -27 -7 -36 -16 -44 -44 49 -174 124
-174 41 0 88 34 96 70 6 25 0 46 -26 97 -34 67 -33 94 4 101 26 5 67 -43 67
-78 0 -27 3 -30 30 -30 27 0 30 3 30 30 0 83 -97 159 -166 130z"/>
<path d="M3060 1301 c-14 -27 -14 -28 25 -54 l35 -24 -70 -112 c-39 -62 -70
-116 -70 -120 0 -4 11 -13 25 -19 28 -13 15 -28 119 141 27 42 51 77 55 77 3
0 17 -9 31 -20 14 -11 30 -20 37 -20 16 0 37 40 26 50 -12 11 -192 120 -198
120 -2 0 -9 -9 -15 -19z"/>
<path d="M5235 1142 c-6 -4 -25 -26 -43 -48 -31 -41 -31 -42 -12 -59 16 -15
22 -16 35 -5 9 7 17 11 19 9 3 -2 21 -40 41 -84 l36 -79 -22 -17 c-18 -13 -20
-19 -10 -37 7 -12 16 -22 20 -22 12 0 141 61 141 67 0 22 -24 43 -47 41 -25
-3 -30 5 -82 119 -31 68 -58 123 -61 123 -3 0 -10 -4 -15 -8z"/>
<path d="M3485 1078 c-41 -114 -100 -300 -96 -302 3 -2 42 -15 87 -29 63 -20
89 -24 118 -17 126 28 171 226 69 298 -25 17 -144 62 -165 62 -5 0 -11 -6 -13
-12z m155 -115 c25 -32 25 -73 0 -122 -21 -41 -36 -51 -79 -51 -22 0 -87 16
-98 25 -2 1 43 141 62 192 6 19 91 -14 115 -44z"/>
<path d="M4963 1036 c-37 -17 -63 -53 -66 -92 -2 -22 3 -28 26 -35 22 -6 27
-4 27 11 0 48 35 79 70 60 30 -16 25 -59 -20 -160 -33 -73 -39 -93 -30 -110
13 -25 7 -25 115 8 89 28 105 41 86 72 -9 12 -17 12 -62 -3 -29 -9 -55 -15
-57 -13 -2 3 6 26 18 53 11 26 25 65 30 87 21 92 -54 159 -137 122z"/>
<path d="M4652 957 c-83 -46 -80 -223 5 -297 32 -28 41 -32 80 -27 102 11 138
117 86 250 -30 75 -108 109 -171 74z m112 -91 c22 -46 26 -137 7 -160 -18 -21
-64 -20 -83 2 -38 43 -50 141 -22 180 12 17 24 22 47 20 26 -2 36 -11 51 -42z"/>
<path d="M4364 930 c-25 -10 -64 -57 -64 -76 0 -12 39 -40 44 -32 1 2 10 15
19 31 24 37 74 39 83 2 7 -29 -4 -48 -84 -147 -40 -50 -52 -72 -47 -88 6 -18
14 -20 111 -20 l104 0 0 30 0 30 -60 0 c-64 0 -72 6 -40 35 44 40 80 107 80
151 0 35 -5 47 -31 68 -31 27 -74 33 -115 16z"/>
<path d="M3967 773 c-22 -21 0 -63 33 -63 18 0 32 40 19 56 -12 15 -41 19 -52
7z"/>
</g>
</svg>
