<?xml version="1.0" standalone="no"?>
<!DOCTYPE svg PUBLIC "-//W3C//DTD SVG 20010904//EN"
 "http://www.w3.org/TR/2001/REC-SVG-20010904/DTD/svg10.dtd">
<svg version="1.0" xmlns="http://www.w3.org/2000/svg"
 width="251.000000pt" height="201.000000pt" viewBox="0 0 251.000000 201.000000"
 preserveAspectRatio="xMidYMid meet">

<g transform="translate(0.000000,201.000000) scale(0.100000,-0.100000)"
fill="#000000" stroke="none">
<path d="M1110 1853 c-131 -23 -352 -126 -333 -155 4 -7 0 -9 -10 -5 -22 8
-142 -104 -202 -188 -127 -178 -188 -422 -156 -618 l8 -47 -99 -47 c-89 -42
-109 -59 -92 -76 7 -6 364 169 364 179 0 3 -7 3 -16 0 -9 -3 -12 -2 -9 5 4 5
15 7 25 4 18 -6 242 94 254 114 4 6 13 11 21 11 7 0 185 84 394 187 284 139
381 191 381 204 0 16 -3 16 -42 -3 l-43 -21 -48 27 c-55 30 -54 30 -54 12 0
-8 13 -20 29 -27 28 -11 58 -49 39 -49 -5 0 -11 7 -15 15 -3 8 -11 15 -18 15
-9 0 -8 -3 2 -10 10 -6 11 -10 3 -10 -7 0 -18 9 -25 20 -18 28 -23 25 -38 -21
-9 -27 -23 -45 -43 -55 -16 -9 -31 -13 -34 -11 -2 3 3 29 11 58 21 70 20 79
-7 79 -21 0 -24 -6 -34 -81 -9 -74 -21 -98 -45 -99 -5 0 -8 43 -8 95 l0 95
-26 0 c-25 0 -26 -2 -20 -42 19 -138 19 -165 1 -172 -10 -3 -19 -5 -20 -4 -1
2 -12 46 -25 98 -13 52 -24 96 -25 98 -2 2 -15 0 -29 -4 -18 -4 -24 -10 -18
-18 20 -25 74 -177 68 -191 -11 -29 -25 -14 -77 80 -46 82 -54 93 -71 84 -10
-5 -18 -13 -18 -18 0 -4 27 -43 59 -87 34 -45 56 -83 51 -88 -17 -17 -56 5
-93 54 -42 56 -60 63 -55 23 2 -21 8 -27 22 -25 10 2 15 -1 12 -7 -3 -5 10
-23 30 -39 35 -29 36 -30 15 -41 -16 -9 -27 -8 -50 4 -29 15 -61 12 -61 -6 0
-5 9 -9 19 -9 26 0 32 -11 18 -30 -14 -18 -45 -18 -100 -2 -32 9 -39 8 -44 -4
-3 -9 -1 -20 6 -27 16 -16 14 -30 -3 -24 -8 3 -17 1 -19 -6 -3 -7 -4 9 -4 35
1 27 5 48 8 48 9 0 29 72 22 83 -3 6 -1 7 5 3 5 -3 19 9 31 27 13 22 29 33 46
35 15 1 24 -2 20 -8 -3 -6 -4 -10 -1 -10 11 0 27 41 20 51 -4 7 -15 2 -30 -12
-13 -12 -24 -18 -24 -12 0 14 64 72 113 101 20 13 37 27 37 31 0 4 8 7 18 8 9
1 42 8 72 17 61 18 154 20 215 6 22 -5 44 -5 48 -1 17 17 -69 35 -158 34 -105
-1 -177 -25 -272 -89 -92 -64 -175 -193 -189 -295 -11 -79 -14 -82 -159 -153
-75 -36 -138 -66 -140 -66 -2 0 -6 8 -8 18 -4 13 -5 11 -6 -5 0 -13 -5 -23
-10 -23 -16 0 -23 140 -12 230 5 47 19 110 30 142 10 31 17 59 14 62 -4 3 -1
6 5 6 7 0 12 6 12 13 0 7 20 47 45 90 87 148 231 273 394 342 67 28 121 41
259 61 51 8 39 29 -15 27 -7 -1 -10 3 -7 8 5 9 -39 10 -86 2z"/>
<path d="M1301 1846 c-12 -15 -12 -17 0 -14 8 2 13 -2 12 -7 -1 -6 13 -12 30
-13 98 -7 209 -41 318 -98 76 -40 212 -151 203 -166 -3 -5 -18 1 -32 14 -26
23 -27 23 -8 0 11 -12 17 -24 15 -26 -2 -2 -41 -22 -86 -45 -77 -38 -103 -61
-69 -61 18 0 295 137 319 158 9 8 17 12 17 8 0 -3 23 5 50 19 48 24 65 45 37
45 -7 0 -51 -20 -99 -44 l-87 -44 -55 54 c-129 125 -321 217 -481 231 -59 5
-73 3 -84 -11z m289 -56 c0 -5 -2 -10 -4 -10 -3 0 -8 5 -11 10 -3 6 -1 10 4
10 6 0 11 -4 11 -10z"/>
<path d="M1158 1783 c7 -3 16 -2 19 1 4 3 -2 6 -13 5 -11 0 -14 -3 -6 -6z"/>
<path d="M1368 1783 c7 -3 16 -2 19 1 4 3 -2 6 -13 5 -11 0 -14 -3 -6 -6z"/>
<path d="M1197 1664 c-12 -13 -7 -52 9 -68 24 -25 53 -4 51 36 -2 27 -6 34
-27 36 -14 2 -29 0 -33 -4z m30 -51 c-3 -10 -5 -2 -5 17 0 19 2 27 5 18 2 -10
2 -26 0 -35z"/>
<path d="M1295 1655 c-3 -8 -7 -22 -10 -30 -7 -25 6 -45 30 -45 24 0 35 17 35
55 0 32 -46 49 -55 20z m29 -32 c-10 -40 -14 -41 -14 -5 0 18 5 32 10 32 6 0
8 -11 4 -27z"/>
<path d="M1103 1643 c-4 -9 -2 -18 4 -20 5 -2 19 -11 29 -19 18 -14 18 -15 -3
-9 -14 4 -23 2 -23 -4 0 -15 47 -14 56 1 4 6 -5 21 -22 35 -25 22 -26 24 -6
18 13 -4 22 -2 22 4 0 18 -50 13 -57 -6z"/>
<path d="M1387 1643 c-12 -21 -18 -73 -8 -73 6 0 11 8 12 18 0 13 2 12 9 -5 5
-13 14 -23 19 -23 12 0 35 69 26 78 -4 4 -10 1 -12 -5 -6 -18 -23 -16 -23 2 0
16 -16 21 -23 8z"/>
<path d="M1750 1626 c0 -2 8 -10 18 -17 15 -13 16 -12 3 4 -13 16 -21 21 -21
13z"/>
<path d="M705 1558 l-60 -63 63 60 c34 33 62 61 62 62 0 8 -10 -1 -65 -59z"/>
<path d="M985 1570 c16 -31 22 -34 49 -24 17 7 22 44 6 44 -5 0 -10 -10 -10
-22 -1 -22 -1 -22 -21 5 -28 36 -43 35 -24 -3z"/>
<path d="M1582 1576 c4 -20 0 -26 -21 -31 l-26 -7 28 -20 c15 -11 27 -26 27
-34 0 -18 14 -18 29 0 6 8 22 11 37 8 24 -4 25 -3 14 18 -6 12 -10 33 -7 46 3
20 0 24 -19 24 -13 0 -24 -6 -25 -12 0 -7 -4 -3 -9 10 -13 30 -34 29 -28 -2z"/>
<path d="M927 1583 c-4 -3 -2 -12 4 -20 8 -9 8 -13 1 -13 -6 0 -14 5 -18 11
-4 7 -10 7 -16 1 -7 -7 -3 -21 13 -44 19 -26 24 -29 27 -15 2 9 8 15 13 12 22
-14 26 8 8 40 -23 38 -23 38 -32 28z"/>
<path d="M2120 1560 c-12 -8 -12 -14 3 -45 27 -56 20 -62 -21 -22 -39 38 -68
42 -70 9 -1 -18 88 -212 98 -212 3 0 14 6 23 13 15 10 15 15 4 37 -18 35 -27
60 -22 60 3 0 20 -16 38 -35 30 -32 37 -35 60 -26 l27 10 -46 93 c-25 51 -48
101 -51 111 -6 19 -20 22 -43 7z"/>
<path d="M840 1522 c0 -13 56 -63 63 -56 9 9 -34 64 -50 64 -7 0 -13 -4 -13
-8z"/>
<path d="M803 1489 c-6 -6 -9 -18 -5 -27 4 -11 1 -14 -12 -9 -31 12 -32 -24
-1 -49 30 -23 55 -23 35 1 -9 11 -7 12 11 8 20 -6 20 -4 8 18 -11 22 -11 23 5
10 30 -25 31 -1 0 29 -22 23 -33 27 -41 19z"/>
<path d="M1882 1444 c-46 -32 -46 -48 -2 -139 47 -98 69 -111 129 -79 50 27
52 63 7 152 -19 38 -42 72 -51 76 -28 10 -59 7 -83 -10z m81 -101 c34 -71 39
-102 16 -87 -11 6 -79 141 -79 156 0 4 6 8 13 8 8 0 30 -34 50 -77z"/>
<path d="M717 1383 c-15 -14 -6 -43 19 -60 26 -17 27 -16 46 7 20 24 20 24 -2
42 -23 18 -51 23 -63 11z m38 -25 c14 -6 25 -15 25 -20 0 -5 -13 -2 -30 7 -45
23 -41 34 5 13z"/>
<path d="M1708 1360 c-9 -6 -15 -18 -14 -27 2 -10 1 -12 -1 -5 -8 24 -28 6
-30 -29 -2 -24 9 -55 35 -104 34 -65 40 -70 73 -73 24 -2 44 4 63 19 23 18 27
27 22 58 -5 39 -60 151 -79 163 -16 11 -49 9 -69 -2z m64 -110 c42 -84 43 -90
25 -90 -12 0 -87 139 -87 161 0 29 29 -4 62 -71z"/>
<path d="M677 1303 c-12 -11 -7 -19 13 -20 11 -1 20 4 20 13 0 14 -21 19 -33
7z"/>
<path d="M725 1280 c-3 -5 -1 -10 4 -10 6 0 11 -4 11 -10 0 -5 -13 -7 -29 -4
-36 7 -51 -13 -16 -22 36 -9 55 2 55 31 0 25 -14 34 -25 15z"/>
<path d="M2220 1256 c-36 -19 -103 -52 -150 -74 -225 -107 -685 -334 -690
-340 -3 -4 -12 -8 -20 -10 -8 -1 -59 -23 -112 -49 -68 -33 -96 -51 -95 -63 1
-11 7 -15 19 -12 22 5 22 11 -1 -70 l-19 -66 21 -6 c32 -8 34 -8 33 12 0 9 3
47 8 85 7 56 13 70 35 86 l26 19 -3 -104 -4 -104 24 0 25 0 -13 103 c-9 77 -9
104 -1 109 21 13 26 9 37 -34 41 -159 47 -174 55 -149 5 18 9 20 16 10 4 -7
10 -11 13 -9 2 3 -14 49 -36 103 -29 69 -38 101 -30 109 16 16 27 4 71 -75 59
-107 66 -115 85 -97 14 14 9 24 -49 102 -58 79 -63 89 -46 97 14 8 30 -3 91
-64 69 -70 75 -73 92 -58 16 15 13 19 -60 75 -42 33 -79 61 -80 63 -2 2 6 8
17 14 18 10 33 5 98 -34 l77 -45 12 23 c12 21 9 23 -51 47 -80 32 -83 35 -48
53 25 13 34 13 80 -3 51 -16 52 -16 57 4 9 33 8 36 -21 36 -27 1 -27 1 -9 15
11 8 27 15 37 15 14 0 15 -6 7 -52 -5 -29 -22 -80 -38 -113 -35 -72 -107 -158
-126 -151 -7 3 -11 0 -8 -7 3 -8 -22 -26 -61 -46 -36 -19 -65 -40 -65 -47 0
-10 6 -11 27 -3 38 14 83 42 83 51 0 4 5 8 11 8 23 0 72 44 115 103 51 71 82
147 92 227 l7 55 115 57 c63 31 116 61 118 67 2 6 8 9 13 5 5 -3 22 1 38 9 27
14 30 13 35 -7 9 -35 7 -209 -4 -267 -7 -37 -7 -55 0 -57 13 -5 13 -42 0 -42
-5 0 -10 8 -11 18 0 9 -11 -14 -25 -51 -14 -38 -41 -95 -60 -127 -19 -32 -34
-61 -34 -63 0 -15 -143 -155 -196 -193 -242 -173 -563 -201 -830 -73 -34 16
-67 29 -73 29 -6 0 -11 4 -11 9 0 5 -15 18 -32 30 l-33 20 -12 -22 -11 -22
-11 27 c-6 15 -8 34 -5 41 2 7 -9 23 -26 35 -16 13 -30 30 -30 39 0 14 3 14
22 -3 19 -16 20 -16 9 -1 -8 9 -12 19 -9 22 2 2 57 29 121 60 64 31 116 59
116 63 -3 19 2 23 16 12 10 -8 15 -9 15 -1 0 6 28 -5 63 -23 81 -45 146 -63
233 -65 78 -2 124 6 124 21 0 7 -22 9 -62 5 -83 -7 -170 8 -247 44 -60 28 -63
30 -45 44 25 19 35 19 27 0 -3 -9 2 -22 13 -30 19 -14 43 -21 31 -9 -3 4 -2
15 4 25 5 10 11 32 13 50 2 17 10 35 17 40 9 5 10 9 2 9 -17 0 -327 -151 -335
-164 -4 -6 -8 -8 -8 -4 0 4 -41 -13 -91 -38 -65 -32 -89 -49 -85 -60 3 -8 -1
-14 -8 -14 -8 0 -16 4 -18 8 -4 11 -188 -75 -188 -88 0 -23 26 -17 114 27 l94
47 59 -55 c109 -100 248 -178 383 -214 188 -49 476 -19 542 57 15 18 18 18 18
4 0 -15 3 -15 36 -1 148 62 331 248 409 418 22 46 23 53 9 79 -15 29 -7 37 14
16 9 -9 12 -9 14 3 2 24 4 33 15 59 20 49 24 108 8 117 -15 9 -10 53 5 53 5 0
7 47 6 104 l-3 104 88 42 c49 23 89 48 89 56 0 20 -7 18 -80 -20z"/>
<path d="M1510 1262 c-26 -12 -36 -25 -38 -45 -4 -30 23 -81 38 -72 5 3 11 1
15 -5 3 -5 17 -10 31 -10 36 0 64 -18 64 -40 0 -26 -15 -25 -33 1 -13 18 -18
19 -36 7 -26 -16 -27 -30 -3 -51 25 -23 68 -21 103 4 32 23 36 46 14 88 -16
33 -33 41 -79 41 -35 0 -73 31 -61 50 5 8 12 6 25 -5 15 -13 23 -14 39 -5 26
13 26 22 3 43 -23 21 -38 21 -82 -1z m-3 -104 c-3 -8 -6 -5 -6 6 -1 11 2 17 5
13 3 -3 4 -12 1 -19z"/>
<path d="M872 1208 c-18 -18 -15 -24 18 -38 55 -23 83 8 30 35 -35 18 -33 18
-48 3z"/>
<path d="M1243 1130 c-25 -15 -33 -27 -33 -48 0 -35 69 -174 89 -180 8 -3 12
1 9 9 -3 8 2 19 9 24 9 7 11 18 7 30 -8 19 -9 18 -16 -5 -7 -24 -7 -23 -6 5 2
44 -10 75 -28 68 -7 -3 -14 0 -14 6 0 6 5 11 10 11 7 0 7 7 -1 21 -16 31 4 47
25 18 13 -19 19 -21 40 -11 31 14 25 49 -11 63 -34 13 -44 12 -80 -11z"/>
<path d="M481 1114 c0 -11 3 -14 6 -6 3 7 2 16 -1 19 -3 4 -6 -2 -5 -13z"/>
<path d="M600 1111 c0 -11 -9 -26 -20 -34 -20 -14 -20 -14 5 -31 14 -9 25 -26
25 -38 l0 -21 25 23 c15 14 31 21 44 17 18 -4 19 -2 10 15 -6 11 -9 31 -6 44
4 21 0 24 -24 24 -15 0 -31 5 -34 10 -10 17 -25 11 -25 -9z"/>
<path d="M2051 1064 c0 -11 3 -14 6 -6 3 7 2 16 -1 19 -3 4 -6 -2 -5 -13z"/>
<path d="M1110 1060 c0 -5 4 -10 8 -10 5 0 10 -26 10 -57 l2 -58 -43 49 c-39
44 -45 48 -65 37 -20 -11 -21 -14 -9 -39 8 -15 31 -64 52 -109 39 -83 47 -91
75 -73 12 8 11 15 -8 54 -26 55 -16 59 27 11 34 -39 39 -41 65 -22 17 12 14
20 -35 120 -30 59 -59 107 -66 107 -7 0 -13 -4 -13 -10z"/>
<path d="M1338 1044 c-34 -18 -35 -27 -6 -46 18 -12 22 -24 21 -59 l-2 -44 19
23 c11 13 23 21 28 18 4 -2 14 -1 21 4 11 6 8 19 -12 64 -14 31 -30 56 -34 56
-4 -1 -20 -8 -35 -16z"/>
<path d="M472 1000 c0 -19 2 -27 5 -17 2 9 2 25 0 35 -3 9 -5 1 -5 -18z"/>
<path d="M1864 966 c-3 -15 -16 -31 -27 -38 -20 -10 -20 -11 6 -25 16 -8 27
-22 27 -34 0 -20 1 -21 25 -5 13 9 34 16 45 16 18 0 19 3 9 21 -8 16 -8 28 0
45 10 23 9 24 -15 18 -17 -4 -31 -1 -44 11 -18 17 -19 16 -26 -9z"/>
<path d="M915 968 c-11 -6 -21 -12 -23 -14 -9 -7 20 -44 30 -38 7 5 9 2 5 -9
-4 -10 9 -49 30 -93 34 -71 38 -75 62 -69 14 4 28 9 31 11 7 8 -79 174 -90
174 -6 0 -10 6 -9 13 5 38 -3 44 -36 25z"/>
<path d="M2052 935 c0 -16 2 -22 5 -12 2 9 2 23 0 30 -3 6 -5 -1 -5 -18z"/>
<path d="M787 904 c-28 -15 -29 -25 -5 -94 l8 -25 -21 25 c-12 14 -27 33 -34
43 -11 16 -15 16 -49 2 -20 -8 -36 -18 -36 -21 0 -3 23 -55 52 -114 48 -101
53 -108 72 -98 12 6 22 12 24 13 2 1 -9 29 -23 60 -14 32 -24 60 -22 62 2 1
21 -21 41 -51 26 -38 42 -53 53 -49 16 6 15 23 -11 106 -20 63 -8 53 28 -22
27 -55 31 -59 50 -49 12 6 22 12 24 13 7 6 -103 215 -113 215 -5 -1 -22 -8
-38 -16z"/>
<path d="M2041 854 c0 -11 3 -14 6 -6 3 7 2 16 -1 19 -3 4 -6 -2 -5 -13z"/>
<path d="M504 767 c-36 -31 -34 -60 12 -148 36 -69 41 -74 75 -77 44 -4 89 28
89 64 0 27 -65 164 -84 176 -22 15 -65 8 -92 -15z m86 -97 c25 -50 36 -81 29
-85 -6 -4 -12 -5 -13 -4 -12 14 -76 152 -76 164 0 30 20 4 60 -75z"/>
<path d="M1789 726 c9 -11 7 -15 -11 -20 l-23 -6 25 -15 c32 -18 40 -18 40 0
0 8 9 15 20 15 30 0 24 17 -11 29 -43 15 -54 14 -40 -3z"/>
<path d="M323 681 c-50 -31 -50 -57 -4 -150 52 -102 84 -114 154 -53 23 20 24
77 1 68 -13 -5 -14 -4 -6 7 17 20 4 27 -24 15 -24 -11 -25 -17 -7 -65 3 -7 -2
-13 -11 -13 -9 0 -27 21 -41 50 -19 38 -29 48 -43 43 -14 -6 -15 -4 -5 8 7 8
10 24 7 36 -9 34 14 36 31 3 17 -34 20 -35 53 -17 l23 13 -23 35 c-28 41 -60
47 -105 20z"/>
<path d="M1740 650 c0 -5 4 -10 8 -10 5 0 17 -7 28 -16 19 -15 19 -16 -1 -10
-19 6 -19 6 -1 -9 22 -17 38 -11 34 13 -5 28 -68 57 -68 32z"/>
<path d="M1741 614 c0 -11 3 -14 6 -6 3 7 2 16 -1 19 -3 4 -6 -2 -5 -13z"/>
<path d="M1686 582 c-10 -10 -6 -41 6 -48 8 -5 9 0 6 14 -8 27 6 28 34 2 l21
-19 -24 -11 c-17 -7 -18 -9 -5 -7 10 1 24 10 30 20 9 16 7 22 -13 35 -26 18
-47 23 -55 14z"/>
<path d="M1623 519 c-19 -19 -3 -39 31 -40 17 -1 23 -3 14 -6 -21 -5 -24 -23
-4 -23 19 0 39 27 31 41 -4 6 -18 9 -31 6 -24 -4 -42 18 -21 27 7 2 7 5 2 5
-6 1 -16 -4 -22 -10z"/>
<path d="M880 495 c0 -15 -8 -29 -22 -36 l-22 -12 27 -14 c16 -8 27 -22 27
-35 0 -20 1 -20 18 -5 10 10 31 17 46 17 24 0 26 2 16 21 -7 11 -9 32 -5 46 5
23 4 25 -18 19 -16 -4 -29 0 -37 9 -18 22 -30 18 -30 -10z"/>
<path d="M1820 443 l-65 -68 68 65 c37 35 67 66 67 67 0 8 -10 -2 -70 -64z"/>
<path d="M1531 461 c-11 -7 -12 -17 -5 -43 11 -37 30 -45 58 -23 16 12 17 17
6 30 -15 18 -31 10 -24 -13 5 -14 3 -14 -10 2 -17 21 -21 38 -8 34 4 -2 8 1
10 7 5 13 -10 16 -27 6z"/>
<path d="M1110 419 c-19 -34 -9 -64 23 -67 26 -3 37 11 17 23 -5 3 -10 1 -10
-4 0 -6 -5 -11 -11 -11 -7 0 -9 10 -4 27 9 38 13 40 30 17 14 -19 14 -18 15 2
0 20 -17 34 -40 34 -5 0 -14 -9 -20 -21z"/>
<path d="M1474 424 c5 -14 4 -15 -9 -4 -22 18 -27 8 -20 -34 7 -36 25 -50 25
-20 0 14 3 14 15 4 9 -7 18 -10 21 -7 9 9 -16 77 -28 77 -6 0 -7 -7 -4 -16z"/>
<path d="M1396 378 c8 -49 9 -52 22 -44 12 7 -6 86 -19 86 -5 0 -6 -19 -3 -42z"/>
<path d="M765 390 c10 -11 20 -20 23 -20 3 0 -3 9 -13 20 -10 11 -20 20 -23
20 -3 0 3 -9 13 -20z"/>
<path d="M1195 380 c-8 -37 0 -50 30 -50 18 0 26 7 31 25 9 36 -2 55 -30 55
-19 0 -26 -7 -31 -30z m37 -10 c-2 -16 -6 -30 -8 -30 -2 0 -4 14 -4 30 0 17 4
30 8 30 5 0 7 -13 4 -30z"/>
<path d="M1330 393 c0 -14 -2 -15 -9 -5 -14 22 -26 15 -33 -20 -7 -37 -2 -49
13 -28 8 11 12 12 16 3 7 -18 21 -16 26 5 4 16 5 16 6 0 0 -10 6 -18 12 -18 6
0 9 16 7 37 -2 27 -8 39 -20 41 -12 2 -18 -3 -18 -15z"/>
<path d="M1729 363 c-13 -16 -12 -17 4 -4 16 13 21 21 13 21 -2 0 -10 -8 -17
-17z"/>
<path d="M1684 334 c-18 -14 -18 -15 4 -4 12 6 22 13 22 15 0 8 -5 6 -26 -11z"/>
<path d="M860 326 c0 -3 9 -10 20 -16 11 -6 20 -8 20 -6 0 3 -9 10 -20 16 -11
6 -20 8 -20 6z"/>
<path d="M1078 233 c7 -3 16 -2 19 1 4 3 -2 6 -13 5 -11 0 -14 -3 -6 -6z"/>
<path d="M1228 213 c23 -2 61 -2 85 0 23 2 4 4 -43 4 -47 0 -66 -2 -42 -4z"/>
</g>
</svg>
