<svg width="22" height="22" viewBox="0 0 22 22" fill="none" xmlns="http://www.w3.org/2000/svg">
    <path d="M14.0002 21.75C13.7302 21.75 13.4802 21.6 13.3502 21.37C13.2202 21.14 13.2202 20.85 13.3602 20.62L14.4102 18.87C14.6202 18.51 15.0802 18.4 15.4402 18.61C15.8002 18.82 15.9102 19.28 15.7002 19.64L15.4302 20.09C18.1902 19.44 20.2602 16.96 20.2602 14C20.2602 13.59 20.6002 13.25 21.0102 13.25C21.4202 13.25 21.7602 13.59 21.7602 14C21.7502 18.27 18.2702 21.75 14.0002 21.75Z" fill="#292D32"/>
    <path d="M1 8.75C0.59 8.75 0.25 8.41 0.25 8C0.25 3.73 3.73 0.25 8 0.25C8.27 0.25 8.52 0.4 8.65 0.63C8.78 0.86 8.78 1.15 8.64 1.38L7.59 3.14C7.38 3.49 6.92 3.61 6.56 3.39C6.21 3.18 6.09 2.72 6.31 2.36L6.58 1.91C3.81 2.56 1.75 5.04 1.75 8C1.75 8.41 1.41 8.75 1 8.75Z" fill="#292D32"/>
    <path d="M9.66996 12.85L6.52996 11.16C6.19996 10.98 5.79996 10.98 5.46996 11.16L2.32996 12.85C2.09996 12.97 1.95996 13.22 1.95996 13.49C1.95996 13.76 2.09996 14.01 2.32996 14.13L5.46996 15.82C5.63996 15.91 5.81996 15.95 5.99996 15.95C6.17996 15.95 6.35996 15.91 6.52996 15.82L9.66996 14.13C9.89996 14.01 10.04 13.76 10.04 13.49C10.04 13.22 9.88996 12.98 9.66996 12.85Z" fill="#292D32"/>
    <path d="M4.95 16.41L2.03 14.95C1.81 14.84 1.55 14.85 1.33 14.98C1.13 15.11 1 15.34 1 15.59V18.35C1 18.83 1.26 19.26 1.69 19.47L4.61 20.93C4.71 20.97 4.82 21 4.93 21C5.06 21 5.19 20.96 5.31 20.89C5.52 20.76 5.65 20.53 5.65 20.28V17.52C5.65 17.05 5.38 16.62 4.95 16.41Z" fill="#292D32"/>
    <path d="M10.6601 14.98C10.4501 14.85 10.1901 14.84 9.9601 14.95L7.0401 16.41C6.6101 16.62 6.3501 17.05 6.3501 17.53V20.29C6.3501 20.54 6.4801 20.77 6.6901 20.9C6.8101 20.96 6.9401 21 7.0701 21C7.1801 21 7.2901 20.97 7.3901 20.92L10.3101 19.46C10.7401 19.25 11.0001 18.82 11.0001 18.34V15.58C11.0001 15.34 10.8701 15.11 10.6601 14.98Z" fill="#292D32"/>
    <path d="M19.67 2.83L16.53 1.14C16.2 0.960005 15.8 0.960005 15.47 1.14L12.33 2.83C12.1 2.95 11.96 3.2 11.96 3.47C11.96 3.74 12.1 3.99001 12.33 4.11L15.47 5.8C15.64 5.89001 15.82 5.93 16 5.93C16.18 5.93 16.36 5.89001 16.53 5.8L19.67 4.11C19.9 3.99001 20.04 3.74 20.04 3.47C20.04 3.19 19.89 2.95 19.67 2.83Z" fill="#292D32"/>
    <path d="M14.95 6.37999L12.03 4.91999C11.81 4.80999 11.55 4.81999 11.33 4.94999C11.13 5.07999 11 5.30999 11 5.55999V8.31999C11 8.79999 11.26 9.22998 11.69 9.43998L14.61 10.9C14.71 10.95 14.82 10.98 14.93 10.98C15.06 10.98 15.19 10.94 15.31 10.87C15.52 10.74 15.65 10.51 15.65 10.26V7.49999C15.65 7.01999 15.38 6.58999 14.95 6.37999Z" fill="#292D32"/>
    <path d="M20.6601 4.94999C20.4501 4.81999 20.1901 4.80999 19.9601 4.91999L17.0401 6.37999C16.6101 6.58999 16.3501 7.01999 16.3501 7.49999V10.26C16.3501 10.51 16.4801 10.74 16.6901 10.87C16.8101 10.94 16.9401 10.98 17.0701 10.98C17.1801 10.98 17.2901 10.95 17.3901 10.9L20.3101 9.43998C20.7401 9.21999 21.0001 8.78999 21.0001 8.31999V5.55999C21.0001 5.30999 20.8701 5.07999 20.6601 4.94999Z" fill="#292D32"/>
</svg>
