<svg width="23" height="23" viewBox="0 0 23 23" fill="none" xmlns="http://www.w3.org/2000/svg">
    <path d="M22.1674 3.28019C22.0169 4.09843 21.6595 4.86453 21.1292 5.50564L21.0297 4.9273C21.0032 4.77597 20.9635 4.62736 20.911 4.48288C21.1583 4.07469 21.3271 3.62393 21.409 3.15385C21.5655 2.49531 21.3878 1.80188 20.9339 1.2998C20.4318 0.845966 19.7384 0.668275 19.0799 0.824734C18.2006 0.996936 17.3955 1.43556 16.7741 2.08127C15.4105 3.44484 15.058 5.31429 15.9888 6.24504V6.24487C16.0604 6.31652 16.1008 6.41365 16.1008 6.51505C16.1008 6.61629 16.0604 6.71342 15.9888 6.78507C15.9183 6.85723 15.8214 6.89742 15.7206 6.89605C15.6186 6.89742 15.5204 6.85741 15.4486 6.78507C14.2191 5.55555 14.5713 3.20358 16.2339 1.54101C16.9669 0.781263 17.9167 0.266182 18.9535 0.0662521C19.8571 -0.133652 20.8014 0.124222 21.4779 0.755741C22.1094 1.43223 22.3672 2.3765 22.1674 3.2801L22.1674 3.28019ZM20.2751 5.05745C20.2075 4.66482 20.0185 4.30317 19.735 4.02322C19.8573 4.33308 19.9197 4.66328 19.9188 4.99625V11.6385C19.9206 12.3499 19.6379 13.0328 19.1336 13.5346L10.6951 21.977L11.557 22.5899C12.0411 22.9302 12.6396 23.0665 13.2232 22.9692C13.8089 22.8729 14.3312 22.5441 14.6711 22.0576L21.0678 13.0369V13.0329C21.3614 12.6188 21.4786 12.1047 21.3934 11.6042L20.2751 5.05745ZM9.57637 14.9555C9.27164 14.9555 8.97921 15.0765 8.76378 15.292C8.54835 15.5075 8.42724 15.7999 8.42724 16.1046C8.42724 16.4093 8.54831 16.7017 8.76378 16.9172C8.97925 17.1326 9.27168 17.2537 9.57637 17.2537C9.88106 17.2537 10.1735 17.1326 10.389 16.9172C10.6044 16.7017 10.7255 16.4093 10.7255 16.1046C10.7252 15.7998 10.6039 15.5078 10.3886 15.2923C10.1732 15.077 9.88107 14.9558 9.57633 14.9554L9.57637 14.9555ZM18.5936 12.9942L10.0054 21.5784C9.58728 21.9977 9.01939 22.2334 8.42718 22.2334C7.83496 22.2334 7.26708 21.9977 6.84897 21.5784L0.654949 15.3844C0.235648 14.9663 0 14.3984 0 13.8062C0 13.214 0.235643 12.6461 0.654949 12.228L9.2392 3.63982C9.59882 3.28071 10.0869 3.07943 10.5951 3.08065H14.3146C13.8857 4.08206 13.8447 5.20708 14.1997 6.23707C14.1828 6.33317 14.1739 6.43048 14.1729 6.52812C14.172 6.90262 14.3083 7.26462 14.5561 7.54541C14.8039 7.8262 15.1461 8.0066 15.5178 8.05244C15.8896 8.09827 16.2651 8.00626 16.5738 7.79388C16.8823 7.58166 17.1023 7.26361 17.1923 6.90004C17.2824 6.53648 17.2361 6.15241 17.0623 5.82067C16.8884 5.48892 16.5991 5.23226 16.249 5.09936C16.2224 4.88885 16.2302 4.67527 16.272 4.4673C16.3807 3.96216 16.602 3.48832 16.9194 3.08062H17.2373C17.7452 3.08079 18.2322 3.28258 18.5913 3.64184C18.9506 4.00095 19.1523 4.48797 19.1525 4.99587V11.6382C19.1537 12.1464 18.9524 12.6344 18.5934 12.9941L18.5936 12.9942ZM7.66112 9.20971C7.66112 9.71761 7.86291 10.2048 8.22199 10.5641C8.58127 10.9232 9.06847 11.125 9.57637 11.125C10.0843 11.125 10.5714 10.9232 10.9307 10.5641C11.2899 10.2048 11.4916 9.71761 11.4916 9.20971C11.4916 8.70181 11.2898 8.21466 10.9307 7.85533C10.5715 7.49623 10.0843 7.29446 9.57637 7.29446C9.06864 7.29497 8.5818 7.4971 8.22269 7.85603C7.86376 8.21514 7.66165 8.70198 7.66112 9.20971ZM11.4916 16.1046C11.4916 15.5967 11.2898 15.1095 10.9307 14.7502C10.5715 14.3911 10.0843 14.1894 9.57637 14.1894C9.06847 14.1894 8.58132 14.3911 8.22199 14.7502C7.86289 15.1095 7.66112 15.5967 7.66112 16.1046C7.66112 16.6125 7.86291 17.0997 8.22199 17.459C8.58127 17.8181 9.06847 18.0198 9.57637 18.0198C10.0841 18.0193 10.5709 17.8172 10.93 17.4583C11.289 17.0992 11.4911 16.6123 11.4916 16.1046ZM14.9391 12.6572C14.9391 12.5556 14.8987 12.4581 14.8269 12.3863C14.7551 12.3145 14.6576 12.2741 14.556 12.2741H4.59673C4.38519 12.2741 4.21368 12.4456 4.21368 12.6572C4.21368 12.8687 4.38519 13.0402 4.59673 13.0402H14.556C14.6576 13.0402 14.7551 12.9998 14.8269 12.928C14.8987 12.8562 14.9391 12.7587 14.9391 12.6572ZM9.57637 10.3589C9.8811 10.3589 10.1735 10.2378 10.389 10.0223C10.6044 9.80685 10.7255 9.51442 10.7255 9.20973C10.7255 8.90504 10.6044 8.61257 10.389 8.39714C10.1735 8.18171 9.88106 8.0606 9.57637 8.0606C9.27168 8.0606 8.97921 8.18167 8.76378 8.39714C8.54835 8.61261 8.42724 8.90504 8.42724 9.20973C8.42758 9.51446 8.54883 9.80654 8.76412 10.022C8.97959 10.2373 9.27167 10.3586 9.5764 10.3589L9.57637 10.3589Z" fill="#292D32"/>
</svg>
