<svg width="127" height="96" viewBox="0 0 127 96" fill="none" xmlns="http://www.w3.org/2000/svg">
<path d="M123.194 39.5469V35.0595C123.194 34.2037 122.898 33.3831 122.371 32.778C121.844 32.1729 121.129 31.833 120.384 31.833H116.91C116.165 31.833 115.45 31.493 114.923 30.888C114.396 30.2829 114.1 29.4622 114.1 28.6065V24.119C114.1 23.2633 114.396 22.4427 114.923 21.8376C115.45 21.2325 116.165 20.8926 116.91 20.8926H117.223C117.969 20.8926 118.684 20.5526 119.211 19.9475C119.738 19.3425 120.034 18.5218 120.034 17.6661V13.1786C120.034 12.3229 119.738 11.5022 119.211 10.8972C118.684 10.2921 117.969 9.95215 117.223 9.95215H11.5294C11.1604 9.95215 10.7949 10.0356 10.454 10.1977C10.113 10.3599 9.80321 10.5976 9.54224 10.8972C9.28128 11.1968 9.07428 11.5525 8.93304 11.9439C8.79181 12.3354 8.71912 12.7549 8.71912 13.1786V17.6661C8.71912 18.5218 9.01521 19.3425 9.54224 19.9475C10.0693 20.5526 10.7841 20.8926 11.5294 20.8926C11.8985 20.8926 12.2639 20.976 12.6049 21.1382C12.9459 21.3003 13.2557 21.538 13.5166 21.8376C13.7776 22.1372 13.9846 22.4929 14.1258 22.8843C14.2671 23.2758 14.3398 23.6953 14.3398 24.119V28.6065C14.3398 29.0302 14.2671 29.4498 14.1258 29.8412C13.9846 30.2327 13.7776 30.5884 13.5166 30.888C13.2557 31.1876 12.9459 31.4252 12.6049 31.5874C12.2639 31.7495 11.8985 31.833 11.5294 31.833H2.81033C2.44127 31.833 2.07583 31.9164 1.73486 32.0786C1.3939 32.2407 1.08409 32.4784 0.823126 32.778C0.562163 33.0776 0.355156 33.4333 0.213924 33.8247C0.0726913 34.2162 0 34.6357 0 35.0595V39.5469C0 39.9706 0.0726913 40.3902 0.213924 40.7816C0.355156 41.1731 0.562163 41.5288 0.823126 41.8284C1.08409 42.128 1.3939 42.3656 1.73486 42.5278C2.07583 42.6899 2.44127 42.7734 2.81033 42.7734H4.92602C5.29508 42.7734 5.66052 42.8568 6.00149 43.019C6.34245 43.1811 6.65226 43.4188 6.91322 43.7184C7.17419 44.018 7.38119 44.3737 7.52242 44.7652C7.66366 45.1566 7.73635 45.5762 7.73635 45.9999V50.4873C7.73635 50.911 7.66366 51.3306 7.52242 51.7221C7.38119 52.1135 7.17419 52.4692 6.91322 52.7688C6.65226 53.0684 6.34245 53.3061 6.00149 53.4682C5.66052 53.6304 5.29508 53.7138 4.92602 53.7138H4.91571C4.17036 53.7138 3.45555 54.0538 2.92851 54.6588C2.40147 55.2639 2.10538 56.0846 2.10538 56.9403V61.4277C2.10538 61.8514 2.17807 62.271 2.31931 62.6625C2.46054 63.0539 2.66755 63.4096 2.92851 63.7092C3.18947 64.0088 3.49928 64.2465 3.84025 64.4086C4.18121 64.5708 4.54666 64.6542 4.91572 64.6542H5.53268C6.27802 64.6542 6.99284 64.9942 7.51988 65.5992C8.04692 66.2043 8.343 67.025 8.343 67.8807V72.3682C8.343 73.2239 8.04692 74.0446 7.51988 74.6496C6.99284 75.2547 6.27802 75.5947 5.53268 75.5947H5.29106C4.922 75.5947 4.55656 75.6781 4.21559 75.8402C3.87463 76.0024 3.56482 76.2401 3.30386 76.5397C3.0429 76.8393 2.83589 77.195 2.69466 77.5864C2.55342 77.9779 2.48073 78.3974 2.48073 78.8211V83.3086C2.48073 83.7323 2.55342 84.1519 2.69466 84.5433C2.83589 84.9348 3.0429 85.2904 3.30386 85.59C3.56482 85.8897 3.87463 86.1273 4.21559 86.2895C4.55656 86.4516 4.922 86.5351 5.29106 86.5351H118.732C119.478 86.5351 120.192 86.1951 120.719 85.59C121.246 84.985 121.543 84.1643 121.543 83.3086V78.8211C121.543 77.9654 121.246 77.1447 120.719 76.5397C120.192 75.9346 119.478 75.5947 118.732 75.5947H116.296C115.55 75.5947 114.835 75.2547 114.308 74.6496C113.781 74.0446 113.485 73.2239 113.485 72.3682V67.8807C113.485 67.025 113.781 66.2043 114.308 65.5992C114.835 64.9942 115.55 64.6542 116.296 64.6542H124.19C124.935 64.6542 125.65 64.3143 126.177 63.7092C126.704 63.1041 127 62.2834 127 61.4277V56.9403C127 56.5166 126.927 56.097 126.786 55.7056C126.645 55.3141 126.438 54.9584 126.177 54.6588C125.916 54.3592 125.606 54.1216 125.265 53.9594C124.924 53.7973 124.559 53.7138 124.19 53.7138H120.298C119.929 53.7138 119.564 53.6304 119.223 53.4682C118.882 53.3061 118.572 53.0684 118.311 52.7688C118.05 52.4692 117.843 52.1135 117.702 51.7221C117.56 51.3306 117.488 50.911 117.488 50.4873V45.9999C117.488 45.5762 117.56 45.1566 117.702 44.7652C117.843 44.3737 118.05 44.018 118.311 43.7184C118.572 43.4188 118.882 43.1811 119.223 43.019C119.564 42.8568 119.929 42.7734 120.298 42.7734H120.384C121.129 42.7734 121.844 42.4335 122.371 41.8284C122.898 41.2233 123.194 40.4026 123.194 39.5469Z" fill="#F5F5F5"/>
<path d="M28.1719 21.1608H62.3829V64.5796H29.0407C28.8103 64.5796 28.5893 64.4881 28.4264 64.3251C28.2634 64.1622 28.1719 63.9412 28.1719 63.7107V21.1608Z" fill="#B0B0B0"/>
<path d="M62.3794 21.1608H80.2808V63.7107C80.2808 63.9412 80.1892 64.1622 80.0263 64.3251C79.8634 64.4881 79.6424 64.5796 79.4119 64.5796H62.3794V21.1608Z" fill="#949494"/>
<path d="M72.6955 32.4746H88.5854C88.7433 32.4746 88.8978 32.4289 89.0301 32.3429C89.1625 32.2569 89.2671 32.1343 89.3313 31.9901C89.3954 31.8458 89.4164 31.6861 89.3916 31.5302C89.3668 31.3743 89.2973 31.2289 89.1916 31.1116L80.2171 21.1608H62.1606L72.0885 32.2041C72.165 32.2892 72.2586 32.3573 72.3632 32.4039C72.4678 32.4506 72.581 32.4746 72.6955 32.4746Z" fill="#D0D0D0"/>
<path d="M62.3806 21.1608H28.1696L20.3492 31.1553C20.2549 31.2758 20.1964 31.4204 20.1803 31.5726C20.1642 31.7247 20.1912 31.8784 20.2583 32.0159C20.3253 32.1535 20.4296 32.2694 20.5594 32.3505C20.6891 32.4316 20.8391 32.4746 20.9921 32.4746H53.1301C53.254 32.4746 53.3763 32.4464 53.4877 32.3922C53.5991 32.3379 53.6966 32.259 53.773 32.1614L62.3806 21.1608Z" fill="#D0D0D0"/>
<path d="M101.625 66.6887L83.0493 78.7152V51.4351L101.625 44.465V66.6887Z" fill="#767676"/>
<path d="M83.0486 51.4349L61.1197 48.7686L56.6255 40.7993C56.5735 40.7071 56.5434 40.5996 56.5383 40.4884C56.5333 40.3771 56.5536 40.2663 56.5971 40.1679C56.6405 40.0695 56.7054 39.9871 56.7848 39.9297C56.8642 39.8723 56.9552 39.8419 57.0479 39.8419H77.7052C77.7984 39.8419 77.8899 39.8726 77.9697 39.9307C78.0494 39.9888 78.1144 40.0721 78.1575 40.1715L83.0486 51.4349Z" fill="#BFBFBF"/>
<path d="M61.119 76.0486L53.4605 74.1333C53.3457 74.1046 53.2426 74.0292 53.1686 73.9198C53.0946 73.8105 53.0542 73.6738 53.0542 73.5329V47.5056C53.0542 47.4145 53.0711 47.3245 53.1037 47.2422C53.1362 47.1599 53.1837 47.0874 53.2425 47.0298C53.3013 46.9723 53.3701 46.9313 53.4438 46.9097C53.5174 46.8882 53.5942 46.8866 53.6684 46.9052L61.119 48.7684V76.0486ZM90.4411 81.6732L83.0479 78.7148V51.4347L90.7635 54.522C90.8652 54.5627 90.9536 54.6408 91.0162 54.7452C91.0789 54.8497 91.1126 54.9752 91.1126 55.104V81.0912C91.1126 81.1884 91.0934 81.2842 91.0566 81.3707C91.0198 81.4572 90.9664 81.5319 90.9008 81.5887C90.8352 81.6455 90.7593 81.6828 90.6794 81.6975C90.5995 81.7122 90.5178 81.7038 90.4411 81.6732Z" fill="#BFBFBF"/>
<path d="M83.0505 78.7151L61.1216 76.0488V48.7687L83.0505 51.435V78.7151Z" fill="#767676"/>
<path d="M77.4708 86.0142L55.0957 84.9411L61.1181 76.0488L83.047 78.7151L77.8748 85.8057C77.8246 85.8744 77.7623 85.9288 77.6924 85.9649C77.6225 86.001 77.5468 86.0178 77.4708 86.0142Z" fill="#BFBFBF"/>
<path d="M83.0484 51.4351L101.625 44.4649L78.9185 41.9246L83.0484 51.4351Z" fill="#A3A3A3"/>
<path d="M61.1216 76.0488L83.0505 63.742V51.435L61.1216 48.7687V76.0488Z" fill="#8F8F8F"/>
</svg>
