<svg width="127" height="96" viewBox="0 0 127 96" fill="none" xmlns="http://www.w3.org/2000/svg">
<path opacity="0.9" d="M112.843 38.1907V33.1291C112.843 32.1639 112.598 31.2383 112.161 30.5558C111.724 29.8733 111.131 29.4898 110.513 29.4898H107.632C107.014 29.4898 106.421 29.1064 105.984 28.4239C105.547 27.7414 105.301 26.8158 105.301 25.8506V20.789C105.301 19.8238 105.547 18.8981 105.984 18.2156C106.421 17.5331 107.014 17.1497 107.632 17.1497H107.892C108.51 17.1497 109.103 16.7663 109.54 16.0838C109.977 15.4013 110.222 14.4756 110.222 13.5104V8.44885C110.222 7.48365 109.977 6.55799 109.54 5.87549C109.103 5.19299 108.51 4.80957 107.892 4.80957H20.233C19.9269 4.80957 19.6238 4.9037 19.341 5.08659C19.0583 5.26948 18.8013 5.53755 18.5849 5.87549C18.3684 6.21343 18.1968 6.61462 18.0796 7.05616C17.9625 7.49769 17.9022 7.97093 17.9022 8.44885V13.5104C17.9022 14.4756 18.1478 15.4013 18.5849 16.0838C19.022 16.7663 19.6148 17.1497 20.233 17.1497C20.5391 17.1497 20.8422 17.2438 21.1249 17.4267C21.4077 17.6096 21.6647 17.8777 21.8811 18.2156C22.0975 18.5536 22.2692 18.9547 22.3863 19.3963C22.5035 19.8378 22.5638 20.3111 22.5638 20.789V25.8506C22.5638 26.3285 22.5035 26.8017 22.3863 27.2432C22.2692 27.6848 22.0975 28.086 21.8811 28.4239C21.6647 28.7619 21.4077 29.0299 21.1249 29.2128C20.8422 29.3957 20.5391 29.4898 20.233 29.4898H13.0017C12.6956 29.4898 12.3925 29.584 12.1097 29.7669C11.8269 29.9497 11.57 30.2178 11.3536 30.5558C11.1371 30.8937 10.9655 31.2949 10.8483 31.7364C10.7312 32.178 10.6709 32.6512 10.6709 33.1291V38.1907C10.6709 38.6686 10.7312 39.1418 10.8483 39.5834C10.9655 40.0249 11.1371 40.4261 11.3536 40.764C11.57 41.102 11.8269 41.3701 12.1097 41.5529C12.3925 41.7358 12.6956 41.83 13.0017 41.83H14.7564C15.0624 41.83 15.3655 41.9241 15.6483 42.107C15.9311 42.2899 16.188 42.5579 16.4045 42.8959C16.6209 43.2338 16.7926 43.635 16.9097 44.0766C17.0268 44.5181 17.0871 44.9913 17.0871 45.4692V50.5308C17.0871 51.0088 17.0268 51.482 16.9097 51.9235C16.7926 52.3651 16.6209 52.7663 16.4045 53.1042C16.188 53.4421 15.9311 53.7102 15.6483 53.8931C15.3655 54.076 15.0624 54.1701 14.7564 54.1701H14.7478C14.1296 54.1701 13.5368 54.5535 13.0997 55.236C12.6626 55.9185 12.417 56.8442 12.417 57.8094V62.8709C12.417 63.3489 12.4773 63.8221 12.5944 64.2636C12.7116 64.7052 12.8833 65.1064 13.0997 65.4443C13.3161 65.7822 13.5731 66.0503 13.8559 66.2332C14.1386 66.4161 14.4417 66.5102 14.7478 66.5102H15.2595C15.8777 66.5102 16.4705 66.8937 16.9076 67.5762C17.3447 68.2587 17.5903 69.1843 17.5903 70.1495V75.2111C17.5903 76.1763 17.3447 77.102 16.9076 77.7845C16.4705 78.467 15.8777 78.8504 15.2595 78.8504H15.0591C14.753 78.8504 14.4499 78.9445 14.1672 79.1274C13.8844 79.3103 13.6274 79.5784 13.411 79.9163C13.1946 80.2542 13.0229 80.6554 12.9057 81.097C12.7886 81.5385 12.7283 82.0117 12.7283 82.4897V87.5512C12.7283 88.0292 12.7886 88.5024 12.9057 88.9439C13.0229 89.3855 13.1946 89.7867 13.411 90.1246C13.6274 90.4625 13.8844 90.7306 14.1672 90.9135C14.4499 91.0964 14.753 91.1905 15.0591 91.1905H109.143C109.761 91.1905 110.354 90.8071 110.791 90.1246C111.228 89.4421 111.474 88.5164 111.474 87.5512V82.4897C111.474 81.5245 111.228 80.5988 110.791 79.9163C110.354 79.2338 109.761 78.8504 109.143 78.8504H107.122C106.504 78.8504 105.911 78.467 105.474 77.7845C105.037 77.102 104.791 76.1763 104.791 75.2111V70.1495C104.791 69.1843 105.037 68.2587 105.474 67.5762C105.911 66.8937 106.504 66.5102 107.122 66.5102H113.669C114.287 66.5102 114.88 66.1268 115.317 65.4443C115.754 64.7618 116 63.8361 116 62.8709V57.8094C116 57.3315 115.94 56.8582 115.823 56.4167C115.705 55.9752 115.534 55.574 115.317 55.236C115.101 54.8981 114.844 54.63 114.561 54.4471C114.278 54.2643 113.975 54.1701 113.669 54.1701H110.442C110.136 54.1701 109.832 54.076 109.55 53.8931C109.267 53.7102 109.01 53.4421 108.794 53.1042C108.577 52.7663 108.405 52.3651 108.288 51.9235C108.171 51.482 108.111 51.0088 108.111 50.5308V45.4692C108.111 44.9913 108.171 44.5181 108.288 44.0766C108.405 43.635 108.577 43.2338 108.794 42.8959C109.01 42.5579 109.267 42.2899 109.55 42.107C109.832 41.9241 110.136 41.83 110.442 41.83H110.513C111.131 41.83 111.724 41.4465 112.161 40.764C112.598 40.0815 112.843 39.1559 112.843 38.1907Z" fill="#F5F5F5"/>
<path d="M78.8094 84.03H33.9125C33.6423 84.03 33.3754 83.9702 33.131 83.855C32.8865 83.7398 32.6706 83.5719 32.4987 83.3634C32.3268 83.1549 32.2031 82.911 32.1365 82.6491C32.0699 82.3872 32.062 82.1138 32.1135 81.8485L44.4921 18.0343C44.5731 17.6167 44.7969 17.2402 45.1252 16.9695C45.4534 16.6988 45.8656 16.5508 46.2911 16.5508H91.188C91.4582 16.5508 91.7251 16.6105 91.9695 16.7258C92.214 16.841 92.4299 17.0089 92.6018 17.2174C92.7737 17.4259 92.8974 17.6698 92.964 17.9317C93.0306 18.1936 93.0385 18.467 92.987 18.7323L80.6084 82.5464C80.5274 82.9641 80.3035 83.3406 79.9753 83.6113C79.6471 83.882 79.2349 84.03 78.8094 84.03Z" fill="#949494"/>
<path d="M85.4944 18.0586L74.5549 72.3437H47.4124L85.4944 18.0586Z" fill="#B0B0B0"/>
<path d="M73.2488 50.2259C81.1994 37.8588 83.7319 26.1599 85.6932 18.0586H50.2667C47.5074 29.4727 42.8588 40.3451 36.5133 50.2259C31.2245 58.4479 24.8148 65.8922 17.4695 72.3436H54.2049C61.5502 65.8922 67.9599 58.4479 73.2488 50.2259Z" fill="#D0D0D0"/>
<path d="M74.7685 20.5404H60.9206C60.5653 20.5404 60.2981 20.3232 60.3657 20.0894L61.8399 14.7525C61.89 14.6508 61.97 14.5669 62.0692 14.512C62.1684 14.4572 62.2821 14.4341 62.3948 14.4459H76.2427C76.598 14.4459 76.8652 14.663 76.7976 14.8968L75.3234 20.2337C75.2733 20.3354 75.1933 20.4194 75.0941 20.4742C74.9949 20.529 74.8812 20.5521 74.7685 20.5404Z" fill="#949494"/>
<path d="M53.3542 26.4131L72.6746 26.0361" stroke="#949494" stroke-width="2.35584" stroke-miterlimit="10"/>
<path d="M75.0737 26.08L79.5042 25.9937" stroke="#949494" stroke-width="2.35584" stroke-miterlimit="10"/>
<path d="M51.8489 31.1129L71.169 30.7358" stroke="#949494" stroke-width="2.35584" stroke-miterlimit="10"/>
<path d="M73.5684 30.7788L77.9991 30.6924" stroke="#949494" stroke-width="2.35584" stroke-miterlimit="10"/>
<path d="M49.4761 35.7981L68.7961 35.4214" stroke="#949494" stroke-width="2.35584" stroke-miterlimit="10"/>
<path d="M71.1942 35.4641L75.625 35.3774" stroke="#949494" stroke-width="2.35584" stroke-miterlimit="10"/>
<path d="M47.2805 40.5269L66.6009 40.1499" stroke="#949494" stroke-width="2.35584" stroke-miterlimit="10"/>
<path d="M69.0001 40.1933L73.4309 40.1069" stroke="#949494" stroke-width="2.35584" stroke-miterlimit="10"/>
<path d="M44.5193 45.2007L63.8394 44.8237" stroke="#949494" stroke-width="2.35584" stroke-miterlimit="10"/>
<path d="M66.2385 44.8671L70.6693 44.7808" stroke="#949494" stroke-width="2.35584" stroke-miterlimit="10"/>
<path d="M41.1047 49.918L60.4248 49.541" stroke="#949494" stroke-width="2.35584" stroke-miterlimit="10"/>
<path d="M62.824 49.5847L67.2548 49.498" stroke="#949494" stroke-width="2.35584" stroke-miterlimit="10"/>
<path d="M37.6903 54.6788L57.0104 54.3018" stroke="#949494" stroke-width="2.35584" stroke-miterlimit="10"/>
<path d="M59.4082 54.3452L63.839 54.2588" stroke="#949494" stroke-width="2.35584" stroke-miterlimit="10"/>
<path d="M33.5406 59.4825L52.861 59.1055" stroke="#949494" stroke-width="2.35584" stroke-miterlimit="10"/>
<path d="M55.26 59.1492L59.6905 59.0625" stroke="#949494" stroke-width="2.35584" stroke-miterlimit="10"/>
<path d="M30.1262 64.3296L49.4466 63.9526" stroke="#949494" stroke-width="2.35584" stroke-miterlimit="10"/>
<path d="M51.8455 63.996L56.2762 63.9097" stroke="#949494" stroke-width="2.35584" stroke-miterlimit="10"/>
<path d="M24.6154 69.2198L43.9357 68.8428" stroke="#949494" stroke-width="2.35584" stroke-miterlimit="10"/>
<path d="M46.3335 68.8857L50.764 68.7993" stroke="#949494" stroke-width="2.35584" stroke-miterlimit="10"/>
</svg>
