<svg width="82" height="82" viewBox="0 0 82 82" fill="none" xmlns="http://www.w3.org/2000/svg">
    <circle r="17.883" transform="matrix(1 0 0 -1 17.883 17.883)" fill="#EBEBEB"/>
    <path d="M24.0121 14.1042L17.8548 17.6706C17.6069 17.8146 17.295 17.8146 17.0392 17.6706L10.8819 14.1042C10.4421 13.8483 10.3301 13.2486 10.666 12.8728C10.8979 12.6089 11.1618 12.393 11.4416 12.241L15.7757 9.8421C16.7033 9.32233 18.2066 9.32233 19.1342 9.8421L23.4683 12.241C23.7482 12.393 24.0121 12.6169 24.244 12.8728C24.5638 13.2486 24.4519 13.8483 24.0121 14.1042Z" fill="black"/>
    <path d="M16.9908 19.1581V24.6117C16.9908 25.2194 16.375 25.6193 15.8313 25.3554C14.184 24.5477 11.4092 23.0364 11.4092 23.0364C10.4337 22.4847 9.63403 21.0933 9.63403 19.9498V15.8236C9.63403 15.1919 10.2977 14.7921 10.8415 15.1039L16.5909 18.4384C16.8308 18.5904 16.9908 18.8623 16.9908 19.1581Z" fill="black"/>
    <path d="M17.9026 19.1581V24.6117C17.9026 25.2194 18.5183 25.6193 19.0621 25.3554C20.7093 24.5477 23.4841 23.0364 23.4841 23.0364C24.4597 22.4847 25.2593 21.0933 25.2593 19.9498V15.8236C25.2593 15.1919 24.5956 14.7921 24.0519 15.1039L18.3024 18.4384C18.0625 18.5904 17.9026 18.8623 17.9026 19.1581Z" fill="black"/>
    <circle r="17.883" transform="matrix(1 0 0 -1 64.1169 17.883)" fill="#EBEBEB"/>
    <path d="M70.246 14.1042L64.0887 17.6706C63.8408 17.8146 63.5289 17.8146 63.273 17.6706L57.1158 14.1042C56.676 13.8483 56.564 13.2486 56.8999 12.8728C57.1318 12.6089 57.3957 12.393 57.6755 12.241L62.0096 9.8421C62.9372 9.32233 64.4405 9.32233 65.3681 9.8421L69.7022 12.241C69.9821 12.393 70.246 12.6169 70.4779 12.8728C70.7977 13.2486 70.6858 13.8483 70.246 14.1042Z" fill="black"/>
    <path d="M63.2247 19.1581V24.6117C63.2247 25.2194 62.6089 25.6193 62.0652 25.3554C60.4179 24.5477 57.6431 23.0364 57.6431 23.0364C56.6676 22.4847 55.8679 21.0933 55.8679 19.9498V15.8236C55.8679 15.1919 56.5316 14.7921 57.0754 15.1039L62.8248 18.4384C63.0647 18.5904 63.2247 18.8623 63.2247 19.1581Z" fill="black"/>
    <path d="M64.1365 19.1581V24.6117C64.1365 25.2194 64.7522 25.6193 65.296 25.3554C66.9432 24.5477 69.718 23.0364 69.718 23.0364C70.6936 22.4847 71.4932 21.0933 71.4932 19.9498V15.8236C71.4932 15.1919 70.8295 14.7921 70.2857 15.1039L64.5363 18.4384C64.2964 18.5904 64.1365 18.8623 64.1365 19.1581Z" fill="black"/>
    <circle r="17.883" transform="matrix(1 0 0 -1 17.883 64.1173)" fill="#EBEBEB"/>
    <path d="M24.0121 60.3385L17.8548 63.9049C17.6069 64.0488 17.295 64.0488 17.0392 63.9049L10.8819 60.3385C10.4421 60.0826 10.3301 59.4828 10.666 59.107C10.8979 58.8431 11.1618 58.6272 11.4416 58.4753L15.7757 56.0764C16.7033 55.5566 18.2066 55.5566 19.1342 56.0764L23.4683 58.4753C23.7482 58.6272 24.0121 58.8511 24.244 59.107C24.5638 59.4828 24.4519 60.0826 24.0121 60.3385Z" fill="black"/>
    <path d="M16.9908 65.3924V70.846C16.9908 71.4537 16.375 71.8535 15.8313 71.5896C14.184 70.782 11.4092 69.2707 11.4092 69.2707C10.4337 68.7189 9.63403 67.3275 9.63403 66.184V62.0579C9.63403 61.4261 10.2977 61.0263 10.8415 61.3382L16.5909 64.6727C16.8308 64.8246 16.9908 65.0965 16.9908 65.3924Z" fill="black"/>
    <path d="M17.9026 65.3924V70.846C17.9026 71.4537 18.5183 71.8535 19.0621 71.5896C20.7093 70.782 23.4841 69.2707 23.4841 69.2707C24.4597 68.7189 25.2593 67.3275 25.2593 66.184V62.0579C25.2593 61.4261 24.5956 61.0263 24.0519 61.3382L18.3024 64.6727C18.0625 64.8246 17.9026 65.0965 17.9026 65.3924Z" fill="black"/>
    <circle r="17.883" transform="matrix(1 0 0 -1 64.117 64.1173)" fill="#EBEBEB"/>
    <path d="M70.2461 60.3385L64.0888 63.9049C63.8409 64.0488 63.5291 64.0488 63.2732 63.9049L57.1159 60.3385C56.6761 60.0826 56.5641 59.4828 56.9 59.107C57.1319 58.8431 57.3958 58.6272 57.6757 58.4753L62.0097 56.0764C62.9373 55.5566 64.4407 55.5566 65.3682 56.0764L69.7023 58.4753C69.9822 58.6272 70.2461 58.8511 70.478 59.107C70.7978 59.4828 70.6859 60.0826 70.2461 60.3385Z" fill="black"/>
    <path d="M63.2248 65.3924V70.846C63.2248 71.4537 62.6091 71.8535 62.0653 71.5896C60.418 70.782 57.6433 69.2707 57.6433 69.2707C56.6677 68.7189 55.868 67.3275 55.868 66.184V62.0579C55.868 61.4261 56.5317 61.0263 57.0755 61.3382L62.825 64.6727C63.0649 64.8246 63.2248 65.0965 63.2248 65.3924Z" fill="black"/>
    <path d="M64.1366 65.3924V70.846C64.1366 71.4537 64.7523 71.8535 65.2961 71.5896C66.9434 70.782 69.7181 69.2707 69.7181 69.2707C70.6937 68.7189 71.4933 67.3275 71.4933 66.184V62.0579C71.4933 61.4261 70.8296 61.0263 70.2859 61.3382L64.5364 64.6727C64.2965 64.8246 64.1366 65.0965 64.1366 65.3924Z" fill="black"/>
    <path d="M29.6595 63.6809H50.5957" stroke="#EBEBEB" stroke-width="2.61702" stroke-linecap="round"/>
    <path d="M29.6595 17.4468H50.5957" stroke="#EBEBEB" stroke-width="2.61702" stroke-linecap="round"/>
    <path d="M17.4468 50.5957V29.6595" stroke="#EBEBEB" stroke-width="2.61702" stroke-linecap="round"/>
    <path d="M63.6809 50.5957V29.6595" stroke="#EBEBEB" stroke-width="2.61702" stroke-linecap="round"/>
</svg>
