<svg width="22" height="22" viewBox="0 0 22 22" fill="none"
  xmlns="http://www.w3.org/2000/svg">
  <path d="M2.46654 7.64511L1.82679 7.39338L2.46654 7.64511ZM7.33754 19.4059L7.06262 20.036L7.33754 19.4059ZM14.6618 19.406L14.3869 18.7759L14.6618 19.406ZM19.4059 14.6618L20.0361 14.9367L19.4059 14.6618ZM19.4056 7.33755L18.7754 7.6125L19.4056 7.33755ZM7.64487 19.5334L7.39315 20.1731L7.64487 19.5334ZM19.5331 7.64512L18.8934 7.89684L19.5331 7.64512ZM14.9365 1.96387C14.8275 1.91633 14.7175 1.8707 14.6065 1.82703L14.1031 3.10654C14.1985 3.14408 14.293 3.18331 14.3867 3.22418L14.9365 1.96387ZM20.1729 7.39339C20.1291 7.28212 20.0834 7.17185 20.0357 7.06261L18.7754 7.6125C18.8164 7.70641 18.8557 7.8012 18.8934 7.89684L20.1729 7.39339ZM20.0361 14.9367C20.0836 14.8277 20.1292 14.7177 20.1729 14.6068L18.8934 14.1033C18.8558 14.1987 18.8166 14.2932 18.7757 14.3869L20.0361 14.9367ZM14.6065 20.1731C14.7176 20.1294 14.8277 20.0838 14.9367 20.0362L14.3869 18.7759C14.2932 18.8168 14.1985 18.856 14.1031 18.8936L14.6065 20.1731ZM7.06262 20.036C7.17177 20.0837 7.28196 20.1294 7.39315 20.1731L7.8966 18.8936C7.80103 18.856 7.70631 18.8167 7.61247 18.7758L7.06262 20.036ZM1.82678 14.6067C1.87049 14.7178 1.91617 14.828 1.96375 14.937L3.22404 14.3872C3.18313 14.2934 3.14387 14.1988 3.10629 14.1033L1.82678 14.6067ZM1.96386 7.06286C1.91624 7.17202 1.87053 7.2822 1.82679 7.39338L3.1063 7.89683C3.1439 7.80127 3.18319 7.70655 3.22413 7.61271L1.96386 7.06286ZM7.39315 1.82702C7.28206 1.87073 7.17197 1.91639 7.06291 1.96397L7.61272 3.22426C7.70648 3.18336 7.80112 3.14411 7.8966 3.10654L7.39315 1.82702ZM5.97647 5.97646C6.25263 5.70029 6.44271 5.36882 6.5876 5.06502C6.72818 4.77026 6.85622 4.43258 6.96193 4.17768C7.20893 3.5821 7.38871 3.32199 7.61272 3.22426L7.06291 1.96397C6.26945 2.31012 5.91796 3.10565 5.69182 3.65096C5.56096 3.96651 5.46696 4.2206 5.34653 4.47311C5.23041 4.71658 5.1205 4.88789 5.00419 5.00419L5.97647 5.97646ZM3.22413 7.61271C3.32187 7.38869 3.582 7.20891 4.17761 6.96193C4.43253 6.85622 4.77022 6.72819 5.06499 6.58761C5.3688 6.44272 5.70029 6.25264 5.97647 5.97646L5.00419 5.00419C4.88789 5.12049 4.71658 5.23041 4.4731 5.34652C4.22059 5.46695 3.96649 5.56094 3.65093 5.6918C3.1056 5.91793 2.31004 6.2694 1.96386 7.06286L3.22413 7.61271ZM3.89566 11.0001C3.89566 10.6093 3.79558 10.2404 3.68312 9.92306C3.57402 9.61517 3.42565 9.28573 3.32012 9.03075C3.07348 8.43484 3.01689 8.12407 3.1063 7.89683L1.82679 7.39338C1.50959 8.19951 1.82382 9.01098 2.04964 9.55659C2.18033 9.87236 2.29361 10.1185 2.38709 10.3823C2.47722 10.6367 2.52066 10.8356 2.52066 11.0001H3.89566ZM3.10629 14.1033C3.01688 13.8761 3.07347 13.5653 3.32012 12.9694C3.42565 12.7144 3.57402 12.385 3.68312 12.0771C3.79558 11.7597 3.89566 11.3908 3.89566 11.0001H2.52066C2.52066 11.1646 2.47722 11.3635 2.38709 11.6178C2.29361 11.8816 2.18033 12.1278 2.04964 12.4435C1.82382 12.9891 1.50959 13.8006 1.82678 14.6067L3.10629 14.1033ZM5.97622 16.0235C5.70005 15.7473 5.36858 15.5572 5.06479 15.4123C4.77003 15.2718 4.43235 15.1437 4.17746 15.038C3.58188 14.791 3.32177 14.6112 3.22404 14.3872L1.96375 14.937C2.30991 15.7305 3.10542 16.082 3.65073 16.3081C3.96628 16.439 4.22036 16.533 4.47287 16.6534C4.71634 16.7695 4.88765 16.8794 5.00395 16.9957L5.97622 16.0235ZM7.61247 18.7758C7.38845 18.678 7.20867 18.4179 6.96168 17.8223C6.85598 17.5674 6.72795 17.2297 6.58737 16.9349C6.44248 16.6311 6.2524 16.2996 5.97622 16.0235L5.00395 16.9957C5.12026 17.112 5.23017 17.2834 5.34628 17.5268C5.46671 17.7793 5.5607 18.0334 5.69156 18.349C5.91769 18.8943 6.26916 19.6899 7.06262 20.036L7.61247 18.7758ZM16.0232 16.0232C15.747 16.2994 15.5569 16.631 15.412 16.9348C15.2715 17.2296 15.1434 17.5674 15.0377 17.8223C14.7907 18.418 14.6109 18.6782 14.3869 18.7759L14.9367 20.0362C15.7303 19.69 16.0817 18.8943 16.3079 18.3489C16.4387 18.0333 16.5327 17.7792 16.6532 17.5266C16.7693 17.2831 16.8792 17.1118 16.9955 16.9955L16.0232 16.0232ZM18.7757 14.3869C18.678 14.6109 18.4179 14.7907 17.8222 15.0377C17.5673 15.1434 17.2296 15.2715 16.9348 15.4121C16.6309 15.557 16.2994 15.747 16.0232 16.0232L16.9955 16.9955C17.1118 16.8792 17.2831 16.7693 17.5266 16.6532C17.7792 16.5327 18.0333 16.4387 18.3489 16.3079C18.8943 16.0817 19.6899 15.7302 20.0361 14.9367L18.7757 14.3869ZM18.104 11.0001C18.104 11.3908 18.2041 11.7597 18.3165 12.0771C18.4256 12.385 18.574 12.7144 18.6795 12.9694C18.9262 13.5653 18.9828 13.8761 18.8934 14.1033L20.1729 14.6068C20.4901 13.8006 20.1758 12.9892 19.95 12.4435C19.8193 12.1278 19.7061 11.8816 19.6126 11.6178C19.5224 11.3635 19.479 11.1646 19.479 11.0001H18.104ZM16.023 5.97626C16.2992 6.25244 16.6307 6.44252 16.9345 6.58741C17.2293 6.72799 17.567 6.85602 17.8219 6.96172C18.4175 7.20869 18.6777 7.38847 18.7754 7.6125L20.0357 7.06261C19.6895 6.26915 18.8939 5.9177 18.3486 5.69158C18.033 5.56073 17.7789 5.46674 17.5264 5.34631C17.2829 5.2302 17.1116 5.12029 16.9953 5.00399L16.023 5.97626ZM10.9998 18.1042C10.6091 18.1042 10.2402 18.2043 9.92282 18.3168C9.61494 18.4259 9.2855 18.5742 9.03051 18.6798C8.4346 18.9264 8.12383 18.983 7.8966 18.8936L7.39315 20.1731C8.19928 20.4903 9.01075 20.1761 9.55635 19.9503C9.87213 19.8196 10.1183 19.7063 10.3821 19.6128C10.6364 19.5227 10.8353 19.4792 10.9998 19.4792V18.1042ZM14.3867 3.22418C14.6107 3.3219 14.7905 3.58198 15.0375 4.17754C15.1432 4.43243 15.2713 4.7701 15.4119 5.06485C15.5568 5.36864 15.7468 5.7001 16.023 5.97626L16.9953 5.00399C16.879 4.88768 16.769 4.71638 16.6529 4.47292C16.5325 4.22041 16.4385 3.96633 16.3076 3.65079C16.0815 3.1055 15.73 2.31 14.9365 1.96387L14.3867 3.22418ZM10.9998 3.8959C11.3906 3.8959 11.7595 3.79582 12.0768 3.68337C12.3847 3.57426 12.7142 3.42589 12.9692 3.32036C13.5651 3.07372 13.8758 3.01713 14.1031 3.10654L14.6065 1.82703C13.8004 1.50984 12.9889 1.82406 12.4433 2.04988C12.1275 2.18057 11.8814 2.29385 11.6176 2.38733C11.3632 2.47746 11.1643 2.5209 10.9998 2.5209V3.8959ZM18.8934 7.89684C18.9828 8.12408 18.9262 8.43484 18.6795 9.03076C18.574 9.28574 18.4256 9.61518 18.3165 9.92306C18.2041 10.2404 18.104 10.6093 18.104 11.0001H19.479C19.479 10.8356 19.5224 10.6367 19.6126 10.3823C19.7061 10.1185 19.8193 9.87237 19.95 9.55659C20.1758 9.01099 20.4901 8.19952 20.1729 7.39339L18.8934 7.89684ZM14.1031 18.8936C13.8758 18.983 13.5651 18.9264 12.9691 18.6798C12.7142 18.5742 12.3847 18.4259 12.0768 18.3168C11.7595 18.2043 11.3906 18.1042 10.9998 18.1042V19.4792C11.1643 19.4792 11.3632 19.5227 11.6176 19.6128C11.8814 19.7063 12.1275 19.8196 12.4433 19.9503C12.9889 20.1761 13.8004 20.4903 14.6065 20.1731L14.1031 18.8936ZM10.9998 2.5209C10.8353 2.5209 10.6364 2.47746 10.3821 2.38733C10.1183 2.29385 9.87213 2.18057 9.55635 2.04988C9.01075 1.82406 8.19927 1.50983 7.39315 1.82702L7.8966 3.10654C8.12383 3.01713 8.4346 3.07372 9.03052 3.32036C9.2855 3.42589 9.61494 3.57426 9.92283 3.68337C10.2402 3.79582 10.6091 3.8959 10.9998 3.8959V2.5209Z" fill="#292D32"/>
  <circle cx="8.98193" cy="8.98205" r="0.725576" transform="rotate(45 8.98193 8.98205)" fill="#292D32"/>
  <circle cx="13.0181" cy="13.0181" r="0.725576" transform="rotate(45 13.0181 13.0181)" fill="#292D32"/>
  <path d="M8.94777 13.0521L13.0522 8.94763" stroke="#292D32" stroke-width="1.375" stroke-linecap="round" stroke-linejoin="round"/>
</svg>
