<svg width="22" height="22" viewBox="0 0 22 22" fill="none"
  xmlns="http://www.w3.org/2000/svg">
  <path d="M16.7292 11C16.7292 11.3797 17.037 11.6875 17.4167 11.6875C17.7964 11.6875 18.1042 11.3797 18.1042 11H16.7292ZM11 20.8542C11.3797 20.8542 11.6875 20.5464 11.6875 20.1667C11.6875 19.787 11.3797 19.4792 11 19.4792V20.8542ZM13.3831 2.49304L13.9112 2.05291L13.3831 2.49304ZM3.4375 16.5V5.50004H2.0625V16.5H3.4375ZM6.41667 2.52087H10.0833V1.14587H6.41667V2.52087ZM10.0833 2.52087H11.9746V1.14587H10.0833V2.52087ZM16.7292 7.99713V11H18.1042V7.99713H16.7292ZM12.8549 2.93316L16.4636 7.26359L17.5199 6.38333L13.9112 2.05291L12.8549 2.93316ZM11 19.4792H6.41667V20.8542H11V19.4792ZM11.9746 2.52087C12.3147 2.52087 12.6372 2.67192 12.8549 2.93316L13.9112 2.05291C13.4323 1.47818 12.7228 1.14587 11.9746 1.14587V2.52087ZM2.0625 16.5C2.0625 18.9048 4.01193 20.8542 6.41667 20.8542V19.4792C4.77132 19.4792 3.4375 18.1454 3.4375 16.5H2.0625ZM18.1042 7.99713C18.1042 7.40742 17.8974 6.83637 17.5199 6.38333L16.4636 7.26359C16.6352 7.46951 16.7292 7.72908 16.7292 7.99713H18.1042ZM3.4375 5.50004C3.4375 3.85469 4.77132 2.52087 6.41667 2.52087V1.14587C4.01193 1.14587 2.0625 3.0953 2.0625 5.50004H3.4375Z" fill="#292D32"/>
  <path d="M14.6665 17.4166H20.1665" stroke="#292D32" stroke-width="1.375" stroke-linecap="round" stroke-linejoin="round"/>
  <path d="M17.4165 14.6666L17.4165 20.1666" stroke="#292D32" stroke-width="1.375" stroke-linecap="round" stroke-linejoin="round"/>
  <path d="M12.8335 2.29163V5.49996C12.8335 6.51248 13.6543 7.33329 14.6668 7.33329H16.9585" stroke="#292D32" stroke-width="1.375" stroke-linecap="round"/>
</svg>
