<svg width="47" height="47" viewBox="0 0 47 47" fill="none" xmlns="http://www.w3.org/2000/svg">
<rect width="47" height="47" rx="10" fill="#ECECEC"/>
<path d="M18.2627 13.0259H17.2152C14.0727 13.0259 13.0253 14.9009 13.0253 17.2158V18.2633V32.928C13.0253 33.7974 14.0099 34.2897 14.7012 33.766L16.4924 32.4252C16.9114 32.111 17.498 32.1529 17.8751 32.53L19.6139 34.2793C20.0224 34.6878 20.6928 34.6878 21.1013 34.2793L22.8611 32.5195C23.2277 32.1529 23.8143 32.111 24.2228 32.4252L26.014 33.766C26.7054 34.2793 27.69 33.7869 27.69 32.928V15.1208C27.69 13.9686 28.6327 13.0259 29.785 13.0259H18.2627ZM22.7145 25.3338H18.0008C17.5713 25.3338 17.2152 24.9776 17.2152 24.5482C17.2152 24.1187 17.5713 23.7626 18.0008 23.7626H22.7145C23.1439 23.7626 23.5001 24.1187 23.5001 24.5482C23.5001 24.9776 23.1439 25.3338 22.7145 25.3338ZM23.5001 21.1439H17.2152C16.7857 21.1439 16.4296 20.7877 16.4296 20.3582C16.4296 19.9288 16.7857 19.5726 17.2152 19.5726H23.5001C23.9295 19.5726 24.2857 19.9288 24.2857 20.3582C24.2857 20.7877 23.9295 21.1439 23.5001 21.1439Z" fill="black"/>
<path d="M29.7954 13.0259V14.5971C30.4868 14.5971 31.1467 14.8799 31.6285 15.3513C32.1313 15.8646 32.4037 16.5245 32.4037 17.2158V19.7507C32.4037 20.5258 32.058 20.882 31.2724 20.882H29.2612V15.1313C29.2612 14.838 29.5021 14.5971 29.7954 14.5971V13.0259ZM29.7954 13.0259C28.6327 13.0259 27.69 13.9686 27.69 15.1313V22.4532H31.2724C32.9274 22.4532 33.9749 21.4057 33.9749 19.7507V17.2158C33.9749 16.0636 33.5035 15.0161 32.7493 14.2514C31.9847 13.4972 30.9477 13.0364 29.7954 13.0259C29.8059 13.0259 29.7954 13.0259 29.7954 13.0259Z" fill="black"/>
</svg>
