<svg width="20" height="20" viewBox="0 0 20 20" fill="none" xmlns="http://www.w3.org/2000/svg">
    <path d="M18.2102 5.81994L10.5102 10.2799C10.2002 10.4599 9.81021 10.4599 9.49021 10.2799L1.79021 5.81994C1.24021 5.49994 1.10021 4.74994 1.52021 4.27994C1.81021 3.94994 2.14021 3.67994 2.49021 3.48994L7.91021 0.489941C9.07021 -0.160059 10.9502 -0.160059 12.1102 0.489941L17.5302 3.48994C17.8802 3.67994 18.2102 3.95994 18.5002 4.27994C18.9002 4.74994 18.7602 5.49994 18.2102 5.81994Z" fill="#292D32"/>
    <path d="M9.42998 12.14V18.96C9.42998 19.72 8.65998 20.22 7.97998 19.89C5.91998 18.88 2.44998 16.99 2.44998 16.99C1.22998 16.3 0.22998 14.56 0.22998 13.13V7.97C0.22998 7.18 1.05998 6.68 1.73998 7.07L8.92998 11.24C9.22998 11.43 9.42998 11.77 9.42998 12.14Z" fill="#292D32"/>
    <path d="M10.5698 12.14V18.96C10.5698 19.72 11.3398 20.22 12.0198 19.89C14.0798 18.88 17.5498 16.99 17.5498 16.99C18.7698 16.3 19.7698 14.56 19.7698 13.13V7.97C19.7698 7.18 18.9398 6.68 18.2598 7.07L11.0698 11.24C10.7698 11.43 10.5698 11.77 10.5698 12.14Z" fill="#292D32"/>
</svg>
