<svg width="22" height="22" viewBox="0 0 22 22" fill="none" xmlns="http://www.w3.org/2000/svg">
    <path d="M16.5002 6.56338C16.4452 6.55421 16.3811 6.55421 16.3261 6.56338C15.0611 6.51754 14.0527 5.48171 14.0527 4.19838C14.0527 2.88754 15.1069 1.83337 16.4177 1.83337C17.7286 1.83337 18.7827 2.89671 18.7827 4.19838C18.7736 5.48171 17.7652 6.51754 16.5002 6.56338Z" stroke="#292D32" stroke-width="1.5" stroke-linecap="round" stroke-linejoin="round"/>
    <path d="M15.5563 13.2367C16.8121 13.4476 18.1963 13.2276 19.168 12.5767C20.4605 11.7151 20.4605 10.3034 19.168 9.44173C18.1871 8.7909 16.7846 8.57089 15.5288 8.79089" stroke="#292D32" stroke-width="1.5" stroke-linecap="round" stroke-linejoin="round"/>
    <path d="M5.47244 6.56338C5.52744 6.55421 5.59161 6.55421 5.64661 6.56338C6.91161 6.51754 7.91994 5.48171 7.91994 4.19838C7.91994 2.88754 6.86578 1.83337 5.55494 1.83337C4.24411 1.83337 3.18994 2.89671 3.18994 4.19838C3.19911 5.48171 4.20744 6.51754 5.47244 6.56338Z" stroke="#292D32" stroke-width="1.5" stroke-linecap="round" stroke-linejoin="round"/>
    <path d="M6.41649 13.2367C5.16066 13.4476 3.77649 13.2276 2.80482 12.5767C1.51232 11.7151 1.51232 10.3034 2.80482 9.44173C3.78566 8.7909 5.18815 8.57089 6.44399 8.79089" stroke="#292D32" stroke-width="1.5" stroke-linecap="round" stroke-linejoin="round"/>
    <path d="M11.0002 13.4108C10.9452 13.4016 10.8811 13.4016 10.8261 13.4108C9.56107 13.365 8.55273 12.3291 8.55273 11.0458C8.55273 9.73495 9.6069 8.68079 10.9177 8.68079C12.2286 8.68079 13.2827 9.74412 13.2827 11.0458C13.2736 12.3291 12.2652 13.3741 11.0002 13.4108Z" stroke="#292D32" stroke-width="1.5" stroke-linecap="round" stroke-linejoin="round"/>
    <path d="M8.33266 16.2983C7.04016 17.16 7.04016 18.5717 8.33266 19.4333C9.79932 20.4142 12.201 20.4142 13.6677 19.4333C14.9602 18.5717 14.9602 17.16 13.6677 16.2983C12.2102 15.3267 9.79932 15.3267 8.33266 16.2983Z" stroke="#292D32" stroke-width="1.5" stroke-linecap="round" stroke-linejoin="round"/>
</svg>
